<?xml version="1.0" encoding="utf-8"?>
<!-- Generator: Adobe Illustrator 16.0.0, SVG Export Plug-In . SVG Version: 6.00 Build 0)  -->
<!DOCTYPE svg PUBLIC "-//W3C//DTD SVG 1.1//EN" "http://www.w3.org/Graphics/SVG/1.1/DTD/svg11.dtd">
<svg version="1.1" id="Layer_1" xmlns="http://www.w3.org/2000/svg" xmlns:xlink="http://www.w3.org/1999/xlink" x="0px" y="0px"
	 width="312px" height="147.926px" viewBox="0 0 312 147.926" enable-background="new 0 0 312 147.926" xml:space="preserve">
<g>
	<path fill="#25354B" d="M173.75,101.139v1.5h-2.152h-1.305h-1.24h-0.456h-6.132v-1.5c0-0.848,0.522-1.239,1.501-1.304
		c0.065,0,0.195-0.065,0.391-0.065c0.196,0,0.522-0.065,0.979-0.065c0.457,0,0.979,0,1.631-0.064L162.4,88.354l-0.326-0.848h-22.047
		l-0.326,0.848l-4.566,11.285c0.652,0.064,1.239,0.064,1.696,0.064s0.717,0.065,0.914,0.065c0.195,0,0.326,0.065,0.391,0.065
		c0.979,0.065,1.5,0.457,1.5,1.304v1.5h-6.131h-0.457h-1.174h-1.37h-2.087v-1.5c0-0.782,0.392-1.239,1.239-1.304l2.088-0.195
		l17.677-43.182h3.327l17.611,43.182l2.152,0.195C173.358,99.9,173.75,100.357,173.75,101.139 M141.07,85.028h20.025l-9.132-22.504
		c-0.13-0.392-0.326-0.783-0.456-1.239c-0.131-0.457-0.327-0.913-0.457-1.435c-0.13,0.521-0.326,0.978-0.457,1.435
		c-0.13,0.457-0.326,0.913-0.457,1.305L141.07,85.028z"/>
	<path fill="#25354B" d="M192.08,101.335v1.305h-4.696h-3.131h-4.696v-1.305c0-0.717,0.456-1.108,1.305-1.174h0.391h1.109
		c0.521,0,1.174-0.131,1.892-0.131V57.763c-0.587,0-1.109-0.065-1.565-0.065h-0.979c-0.196,0-0.392-0.065-0.522-0.065h-0.325
		c-0.849-0.065-1.305-0.457-1.305-1.174v-1.304h4.696h3.131v44.876c0.587,0,1.108,0.066,1.565,0.066s0.783,0.065,0.979,0.065h0.521
		h0.326C191.624,100.227,192.08,100.618,192.08,101.335"/>
	<path fill="#25354B" d="M210.475,101.335v1.305h-4.697h-3.131h-4.696v-1.305c0-0.717,0.457-1.108,1.305-1.174h0.392h1.108
		c0.522,0,1.175-0.131,1.892-0.131V57.763c-0.587,0-1.108-0.065-1.565-0.065h-0.978c-0.196,0-0.392-0.065-0.522-0.065h-0.326
		c-0.848-0.065-1.305-0.457-1.305-1.174v-1.304h4.696h3.131v44.876c0.588,0,1.109,0.066,1.566,0.066
		c0.456,0,0.782,0.065,0.978,0.065h0.522h0.326C210.018,100.227,210.475,100.618,210.475,101.335"/>
	<path fill="#25354B" d="M268.558,70.416c1.826,0.783,3.393,1.892,4.631,3.327c1.239,1.435,2.283,3.196,2.936,5.283
		s0.979,4.371,0.979,6.915s-0.326,4.827-0.979,6.849c-0.652,2.022-1.696,3.849-2.936,5.284c-1.238,1.435-2.805,2.544-4.631,3.327
		s-3.849,1.174-6.196,1.174c-2.349,0-4.436-0.391-6.262-1.174c-1.827-0.783-3.393-1.892-4.697-3.327
		c-1.304-1.435-2.218-3.261-2.869-5.284c-0.653-2.022-1.044-4.305-1.044-6.849s0.391-4.827,1.044-6.915
		c0.651-2.087,1.565-3.848,2.869-5.283c1.305-1.435,2.87-2.544,4.697-3.327c1.826-0.783,3.913-1.239,6.262-1.239
		C264.709,69.177,266.731,69.633,268.558,70.416 M267.384,99.182c1.435-0.652,2.674-1.631,3.652-2.87s1.696-2.739,2.152-4.5
		c0.457-1.761,0.718-3.718,0.718-5.871s-0.261-4.11-0.718-5.871c-0.456-1.761-1.174-3.262-2.152-4.501s-2.218-2.283-3.652-2.935
		c-1.436-0.652-3.066-0.979-5.022-0.979c-1.957,0-3.653,0.326-5.088,0.979c-1.436,0.652-2.675,1.696-3.653,2.935
		s-1.63,2.74-2.152,4.501c-0.521,1.761-0.718,3.718-0.718,5.871s0.196,4.109,0.718,5.871c0.522,1.761,1.174,3.261,2.152,4.5
		s2.218,2.218,3.653,2.87c1.435,0.652,3.131,0.979,5.088,0.979C264.317,100.16,265.948,99.834,267.384,99.182"/>
	<path fill="#25354B" d="M303.455,70.416c1.827,0.783,3.393,1.892,4.632,3.327c1.238,1.435,2.283,3.196,2.935,5.283
		c0.652,2.087,0.979,4.371,0.979,6.915s-0.326,4.827-0.979,6.849c-0.651,2.022-1.696,3.849-2.935,5.284
		c-1.239,1.435-2.805,2.544-4.632,3.327c-1.826,0.783-3.848,1.174-6.196,1.174s-4.436-0.391-6.262-1.174s-3.392-1.892-4.696-3.327
		s-2.218-3.261-2.87-5.284c-0.652-2.022-1.044-4.305-1.044-6.849s0.392-4.827,1.044-6.915s1.565-3.848,2.87-5.283
		s2.87-2.544,4.696-3.327s3.913-1.239,6.262-1.239S301.629,69.633,303.455,70.416 M302.281,99.182
		c1.436-0.652,2.675-1.631,3.652-2.87c0.979-1.239,1.696-2.739,2.153-4.5c0.456-1.761,0.718-3.718,0.718-5.871
		s-0.262-4.11-0.718-5.871c-0.457-1.761-1.175-3.262-2.153-4.501c-0.978-1.239-2.217-2.283-3.652-2.935
		c-1.435-0.652-3.065-0.979-5.022-0.979s-3.652,0.326-5.088,0.979c-1.435,0.652-2.674,1.696-3.652,2.935s-1.631,2.74-2.153,4.501
		c-0.521,1.761-0.717,3.718-0.717,5.871s0.195,4.109,0.717,5.871c0.522,1.761,1.175,3.261,2.153,4.5s2.218,2.218,3.652,2.87
		c1.436,0.652,3.131,0.979,5.088,0.979S300.847,99.834,302.281,99.182"/>
	<path fill="#25354B" d="M233.346,70.204c1.175,0.326,2.283,0.783,3.262,1.435h8.35v1.109c0,0.522-0.327,0.783-0.913,0.848
		l-4.958,0.391c0.587,0.848,1.109,1.761,1.436,2.805c0.325,1.043,0.456,2.152,0.456,3.326c0,1.565-0.261,2.936-0.848,4.24
		c-0.587,1.305-1.305,2.348-2.349,3.262c-1.043,0.913-2.218,1.565-3.652,2.087c-1.435,0.521-3,0.718-4.696,0.718
		c-1.892,0-3.588-0.196-5.088-0.783c-0.913,0.522-1.631,1.109-2.152,1.826c-0.522,0.718-0.783,1.436-0.783,2.087
		c0,0.914,0.326,1.631,0.979,2.152c0.652,0.522,1.565,0.848,2.609,1.109c1.044,0.261,2.283,0.327,3.652,0.392
		c1.37,0.065,2.805,0.196,4.24,0.261c1.435,0.065,2.805,0.195,4.174,0.391c1.37,0.196,2.675,0.521,3.719,1.043
		c1.043,0.522,1.957,1.109,2.608,2.022c0.653,0.913,0.914,2.087,0.914,3.522c0,1.37-0.326,2.609-0.979,3.848
		s-1.631,2.349-2.936,3.327c-1.305,0.978-2.739,1.695-4.566,2.282c-1.826,0.587-3.913,0.913-6.131,0.913
		c-2.283,0-4.305-0.261-6.001-0.717c-1.696-0.457-3.131-1.109-4.305-1.892c-1.175-0.783-2.022-1.696-2.609-2.74
		c-0.587-1.043-0.913-2.218-0.913-3.392c0-1.696,0.587-3.196,1.695-4.436c1.109-1.239,2.74-2.218,4.697-2.87
		c-1.109-0.392-1.957-0.849-2.609-1.566s-0.914-1.63-0.914-2.87c0-0.457,0.065-0.913,0.262-1.435c0.195-0.522,0.456-0.979,0.783-1.5
		c0.325-0.522,0.717-0.914,1.238-1.37c0.522-0.457,1.044-0.848,1.696-1.174c-1.565-0.913-2.739-2.087-3.588-3.587
		c-0.848-1.5-1.304-3.196-1.304-5.153c0-1.565,0.326-3,0.848-4.305s1.305-2.348,2.348-3.262c1.044-0.913,2.218-1.565,3.653-2.087
		c1.435-0.522,3-0.783,4.762-0.783C230.867,69.682,232.172,69.877,233.346,70.204 M240.651,102.426
		c-0.521-0.652-1.174-1.109-2.087-1.435c-0.913-0.326-1.957-0.652-3.131-0.783c-1.175-0.13-2.349-0.196-3.653-0.261
		s-2.479-0.13-3.783-0.196s-2.479-0.195-3.587-0.391c-0.848,0.326-1.631,0.717-2.349,1.109c-0.718,0.391-1.239,0.913-1.761,1.435
		c-0.521,0.522-0.913,1.109-1.175,1.762c-0.261,0.652-0.456,1.304-0.456,2.087c0,0.979,0.195,1.892,0.718,2.674
		c0.521,0.783,1.239,1.5,2.152,2.087s2.152,1.109,3.522,1.435c1.369,0.326,2.935,0.522,4.696,0.522c1.631,0,3.196-0.131,4.631-0.522
		c1.435-0.391,2.674-0.913,3.718-1.565s1.892-1.565,2.479-2.479c0.588-0.913,0.914-1.891,0.914-3
		C241.5,103.861,241.174,103.079,240.651,102.426 M233.15,87.75c1.108-0.391,2.022-0.979,2.739-1.696
		c0.718-0.717,1.305-1.565,1.696-2.544s0.587-2.153,0.587-3.392s-0.195-2.283-0.587-3.326c-0.392-1.044-0.979-1.827-1.762-2.544
		c-0.782-0.718-1.695-1.305-2.739-1.696c-1.044-0.391-2.283-0.587-3.652-0.587c-1.37,0-2.544,0.196-3.653,0.587
		c-1.108,0.392-2.021,0.979-2.805,1.696c-0.782,0.717-1.305,1.5-1.695,2.544c-0.392,1.043-0.588,2.152-0.588,3.392
		s0.196,2.348,0.588,3.327c0.391,0.979,0.913,1.827,1.695,2.544c0.783,0.717,1.696,1.305,2.805,1.696
		c1.109,0.391,2.283,0.587,3.653,0.587C230.802,88.337,232.041,88.141,233.15,87.75"/>
	<rect x="51.688" fill="#FAA626" width="1.739" height="27.829"/>
	<polygon fill="#F4B723" points="71.407,7.819 54.569,14.434 54.569,0 	"/>
	<polygon fill="#25354B" points="13.165,102.33 52.528,23.122 92.851,102.33 	"/>
	<polygon fill="#2F607C" points="0,102.33 15.576,70.989 31.531,102.33 	"/>
	<polygon fill="#344960" points="44.257,102.33 78.241,33.949 113.053,102.33 	"/>
	<polygon fill="#2F607C" points="35.71,102.33 58.837,55.793 82.529,102.33 	"/>
	<path fill="#25354B" d="M133.5,128.177c-0.115,0-0.277,0.023-0.507,0.023c-0.231,0-0.485,0.022-0.762,0.022v14.489
		c0.277,0,0.531,0.022,0.762,0.022c0.23,0,0.392,0.023,0.507,0.023h0.23c0.3,0.023,0.438,0.161,0.438,0.415v0.462h-1.938h-1.177
		h-1.96v-0.462c0-0.254,0.161-0.392,0.461-0.415h0.23c0.116,0,0.277-0.023,0.508-0.023s0.485-0.022,0.761-0.022v-14.489
		c-0.276,0-0.531-0.022-0.761-0.022s-0.392-0.023-0.508-0.023h-0.23c-0.3-0.022-0.461-0.161-0.461-0.415V127.3h1.96h1.177h1.938
		v0.462c0,0.254-0.138,0.393-0.438,0.415H133.5z"/>
	<path fill="#25354B" d="M137.237,142.343c0.046-0.139,0.138-0.254,0.23-0.347c0.092-0.092,0.185-0.185,0.323-0.23
		c0.139-0.046,0.277-0.093,0.438-0.093c0.138,0,0.277,0.047,0.416,0.093c0.138,0.046,0.23,0.139,0.323,0.23
		c0.092,0.093,0.184,0.208,0.23,0.347c0.046,0.138,0.092,0.276,0.092,0.415c0,0.161-0.046,0.276-0.092,0.415
		c-0.046,0.139-0.138,0.23-0.23,0.323c-0.093,0.092-0.185,0.185-0.323,0.23c-0.139,0.046-0.277,0.092-0.416,0.092
		c-0.3,0-0.554-0.114-0.761-0.322c-0.208-0.208-0.3-0.438-0.3-0.738C137.168,142.619,137.191,142.48,137.237,142.343"/>
	<path fill="#25354B" d="M149.511,132.399c0.646,0.276,1.199,0.668,1.638,1.176s0.808,1.131,1.038,1.869
		c0.231,0.738,0.347,1.546,0.347,2.445c0,0.9-0.116,1.707-0.347,2.422c-0.23,0.716-0.6,1.361-1.038,1.869s-0.992,0.9-1.638,1.177
		c-0.646,0.277-1.361,0.415-2.192,0.415s-1.569-0.138-2.215-0.415c-0.646-0.276-1.2-0.669-1.661-1.177
		c-0.462-0.508-0.785-1.153-1.016-1.869c-0.23-0.715-0.369-1.521-0.369-2.422c0-0.899,0.139-1.707,0.369-2.445
		c0.231-0.738,0.554-1.361,1.016-1.869c0.461-0.508,1.015-0.899,1.661-1.176c0.646-0.277,1.384-0.439,2.215-0.439
		S148.865,132.122,149.511,132.399 M149.095,142.573c0.507-0.23,0.946-0.577,1.292-1.016c0.346-0.438,0.6-0.969,0.761-1.592
		c0.162-0.623,0.254-1.314,0.254-2.076s-0.092-1.453-0.254-2.076c-0.161-0.623-0.415-1.154-0.761-1.592
		c-0.346-0.438-0.785-0.808-1.292-1.038c-0.507-0.231-1.084-0.347-1.776-0.347s-1.292,0.115-1.799,0.347
		c-0.508,0.23-0.946,0.6-1.292,1.038c-0.346,0.438-0.576,0.969-0.761,1.592s-0.254,1.314-0.254,2.076s0.07,1.453,0.254,2.076
		s0.415,1.154,0.761,1.592c0.347,0.438,0.785,0.785,1.292,1.016c0.507,0.23,1.107,0.346,1.799,0.346
		S148.588,142.804,149.095,142.573"/>
	<path fill="#25354B" d="M155.416,142.343c0.046-0.139,0.139-0.254,0.23-0.347c0.093-0.092,0.185-0.185,0.323-0.23
		s0.276-0.093,0.438-0.093c0.139,0,0.276,0.047,0.415,0.093s0.23,0.139,0.323,0.23c0.092,0.093,0.185,0.208,0.23,0.347
		c0.046,0.138,0.093,0.276,0.093,0.415c0,0.161-0.047,0.276-0.093,0.415s-0.139,0.23-0.23,0.323
		c-0.093,0.092-0.185,0.185-0.323,0.23s-0.276,0.092-0.415,0.092c-0.3,0-0.554-0.114-0.762-0.322c-0.207-0.208-0.3-0.438-0.3-0.738
		C155.347,142.619,155.37,142.48,155.416,142.343"/>
	<path fill="#25354B" d="M173.272,139.182c0,0.692-0.115,1.315-0.369,1.868c-0.254,0.555-0.623,1.016-1.084,1.408
		c-0.462,0.392-1.038,0.669-1.73,0.876c-0.692,0.208-1.453,0.301-2.33,0.301h-5.283h-1.938v-0.462c0-0.254,0.139-0.393,0.438-0.415
		h0.23c0.116,0,0.277-0.023,0.508-0.023s0.484-0.022,0.762-0.022v-14.489c-0.277,0-0.531-0.022-0.762-0.022
		s-0.392-0.023-0.508-0.023h-0.23c-0.3-0.022-0.461-0.161-0.461-0.415v-0.438h1.961h4.684c0.923,0,1.729,0.093,2.422,0.277
		s1.246,0.461,1.685,0.807c0.438,0.369,0.784,0.808,0.992,1.315c0.207,0.508,0.346,1.107,0.346,1.753
		c0,0.439-0.092,0.854-0.23,1.246s-0.369,0.762-0.646,1.107c-0.276,0.346-0.646,0.623-1.061,0.877
		c-0.416,0.254-0.877,0.438-1.408,0.576c1.292,0.186,2.284,0.601,2.977,1.27S173.272,138.097,173.272,139.182 M163.652,134.96h3.529
		c0.762,0,1.407-0.115,1.938-0.301c0.531-0.184,0.97-0.438,1.315-0.761c0.347-0.323,0.601-0.669,0.762-1.062
		c0.161-0.392,0.23-0.83,0.23-1.246c0-1.106-0.346-1.914-1.038-2.491c-0.692-0.554-1.776-0.854-3.229-0.854h-3.507V134.96z
		 M172.096,139.159c0-0.508-0.115-0.992-0.3-1.408c-0.207-0.415-0.484-0.738-0.854-1.038c-0.369-0.276-0.83-0.507-1.361-0.669
		c-0.53-0.161-1.13-0.23-1.822-0.23h-4.106v6.875h4.083c1.431,0,2.515-0.3,3.253-0.923S172.096,140.289,172.096,139.159"/>
	<path fill="#25354B" d="M185.245,143.173v0.462h-1.522h-0.415h-0.022c-0.231,0-0.393-0.116-0.438-0.323l-0.162-1.477
		c-0.323,0.3-0.622,0.577-0.923,0.83c-0.322,0.254-0.646,0.462-0.992,0.623c-0.346,0.162-0.691,0.3-1.084,0.393
		c-0.393,0.092-0.83,0.139-1.292,0.139c-0.392,0-0.761-0.07-1.13-0.185c-0.369-0.116-0.716-0.3-0.992-0.531
		c-0.277-0.23-0.508-0.53-0.692-0.899c-0.161-0.369-0.254-0.831-0.254-1.361c0-0.484,0.139-0.923,0.415-1.338
		c0.277-0.416,0.692-0.785,1.292-1.084c0.601-0.301,1.361-0.555,2.284-0.738c0.923-0.186,2.03-0.301,3.322-0.323v-1.2
		c0-1.062-0.207-1.868-0.669-2.445s-1.153-0.854-2.054-0.854c-0.554,0-1.015,0.069-1.407,0.23c-0.392,0.161-0.692,0.323-0.969,0.508
		s-0.508,0.323-0.669,0.484c-0.162,0.162-0.323,0.254-0.438,0.254c-0.161,0-0.276-0.069-0.346-0.207l-0.185-0.347
		c0.6-0.6,1.223-1.062,1.892-1.361s1.407-0.461,2.237-0.461c0.623,0,1.154,0.092,1.615,0.3c0.462,0.185,0.854,0.461,1.154,0.83
		c0.3,0.369,0.53,0.808,0.691,1.338c0.162,0.531,0.23,1.085,0.23,1.73v6.575c0.186,0,0.369,0.023,0.531,0.023h0.369h0.161
		C185.084,142.781,185.245,142.919,185.245,143.173 M182.639,138.098c-1.084,0.022-2.03,0.115-2.814,0.253
		c-0.784,0.139-1.431,0.323-1.938,0.555c-0.507,0.23-0.876,0.484-1.13,0.807c-0.254,0.323-0.369,0.692-0.369,1.107
		c0,0.393,0.046,0.715,0.185,0.992c0.115,0.277,0.3,0.508,0.507,0.692c0.208,0.185,0.438,0.3,0.716,0.393
		c0.276,0.092,0.577,0.114,0.877,0.114c0.438,0,0.854-0.045,1.223-0.138c0.369-0.092,0.715-0.208,1.038-0.393
		s0.623-0.392,0.899-0.622c0.277-0.231,0.53-0.508,0.808-0.785V138.098z"/>
	<path fill="#25354B" d="M200.103,143.173v0.462h-1.661h-1.107v-7.337c0-1.084-0.254-1.915-0.738-2.537
		c-0.484-0.601-1.246-0.9-2.261-0.9c-0.762,0-1.453,0.185-2.1,0.576c-0.646,0.393-1.223,0.923-1.73,1.593v7.683
		c0.208,0,0.415,0.022,0.577,0.022c0.161,0,0.276,0.023,0.346,0.023h0.162h0.138c0.3,0.023,0.438,0.161,0.438,0.415v0.462h-1.661
		h-1.084h-1.661v-0.462c0-0.254,0.139-0.392,0.438-0.415h0.161h0.369c0.185,0,0.415-0.046,0.692-0.046v-9.645
		c-0.208,0-0.415-0.022-0.577-0.022h-0.346c-0.069,0-0.115-0.022-0.162-0.022h-0.138c-0.3-0.023-0.438-0.162-0.438-0.416v-0.438
		h1.661h0.6c0.208,0,0.323,0.093,0.346,0.277l0.093,1.729c0.53-0.669,1.131-1.176,1.822-1.592c0.692-0.392,1.477-0.6,2.33-0.6
		c0.623,0,1.177,0.093,1.661,0.301c0.485,0.207,0.877,0.483,1.2,0.853s0.554,0.831,0.715,1.362c0.162,0.53,0.254,1.13,0.254,1.799
		v6.414c0.208,0,0.393,0.022,0.554,0.022c0.162,0,0.277,0.023,0.347,0.023h0.185h0.115
		C199.941,142.781,200.103,142.919,200.103,143.173"/>
	<path fill="#25354B" d="M213.506,143.173v0.462h-0.507H212.1h-0.07c-0.115,0-0.184-0.023-0.276-0.069s-0.161-0.115-0.254-0.208
		l-4.821-5.146c-0.139-0.138-0.254-0.253-0.369-0.299c-0.116-0.047-0.277-0.07-0.508-0.07h-0.508v4.869
		c0.208,0,0.393,0.022,0.554,0.022c0.162,0,0.277,0.023,0.346,0.023h0.186h0.115c0.3,0.023,0.461,0.161,0.461,0.415v0.462h-1.661
		h-1.107h-1.661v-0.462c0-0.254,0.162-0.392,0.462-0.415h0.139h0.392c0.185,0,0.415-0.046,0.669-0.046v-14.95
		c-0.207,0-0.392-0.023-0.554-0.023h-0.346c-0.069,0-0.139-0.023-0.185-0.023h-0.115c-0.3-0.022-0.462-0.161-0.462-0.415v-0.438
		h1.661h1.107v10.22h0.531c0.115,0,0.207-0.022,0.3-0.046c0.092-0.023,0.207-0.093,0.323-0.207l3.968-3.784
		c-0.369-0.022-0.554-0.022-0.577-0.022c-0.3-0.023-0.461-0.162-0.461-0.416v-0.461h1.892h0.462h1.199v0.461
		c0,0.254-0.139,0.393-0.438,0.416h-0.161c-0.093,0-0.186,0.022-0.301,0.022s-0.23,0.022-0.369,0.022l-4.105,3.899
		c-0.07,0.069-0.162,0.138-0.231,0.208c-0.069,0.068-0.138,0.139-0.23,0.185c0.115,0.069,0.23,0.114,0.323,0.208
		c0.092,0.092,0.161,0.184,0.254,0.275l4.498,4.892c0.139,0,0.277,0.023,0.393,0.023h0.254h0.115h0.115
		C213.345,142.781,213.506,142.919,213.506,143.173"/>
	<path fill="#25354B" d="M220.312,143.173v0.461h-1.661h-1.107h-1.661v-0.461c0-0.254,0.161-0.392,0.462-0.415h0.139h0.392
		c0.185,0,0.415-0.046,0.669-0.046v-9.645c-0.207,0-0.393-0.022-0.554-0.022h-0.346c-0.069,0-0.139-0.022-0.185-0.022h-0.115
		c-0.301-0.023-0.462-0.162-0.462-0.416v-0.461h1.661h1.107v10.566c0.208,0,0.393,0.022,0.554,0.022s0.276,0.023,0.347,0.023h0.184
		h0.115C220.15,142.781,220.312,142.919,220.312,143.173 M217.174,128.593c-0.046-0.116-0.092-0.254-0.092-0.393
		s0.046-0.277,0.092-0.393c0.047-0.115,0.115-0.23,0.208-0.322c0.092-0.093,0.208-0.186,0.323-0.231s0.254-0.069,0.392-0.069
		c0.139,0,0.276,0.023,0.393,0.069c0.115,0.046,0.23,0.139,0.323,0.231c0.092,0.092,0.184,0.207,0.23,0.322
		c0.046,0.139,0.092,0.254,0.092,0.393s-0.046,0.276-0.092,0.393c-0.047,0.115-0.139,0.229-0.23,0.322
		c-0.093,0.092-0.208,0.162-0.323,0.208c-0.116,0.046-0.254,0.092-0.393,0.092c-0.138,0-0.276-0.046-0.392-0.092
		s-0.231-0.116-0.323-0.208C217.289,128.822,217.221,128.708,217.174,128.593"/>
	<path fill="#25354B" d="M235.1,143.173v0.462h-1.661h-1.107v-7.337c0-1.084-0.254-1.915-0.738-2.537
		c-0.484-0.601-1.246-0.9-2.261-0.9c-0.762,0-1.453,0.185-2.1,0.576c-0.646,0.393-1.223,0.923-1.73,1.593v7.683
		c0.208,0,0.416,0.022,0.577,0.022s0.276,0.023,0.347,0.023h0.161h0.138c0.301,0.023,0.438,0.161,0.438,0.415v0.462h-1.661h-1.084
		h-1.661v-0.462c0-0.254,0.139-0.392,0.438-0.415h0.161h0.369c0.185,0,0.415-0.046,0.692-0.046v-9.645
		c-0.207,0-0.416-0.022-0.576-0.022h-0.347c-0.069,0-0.115-0.022-0.161-0.022h-0.139c-0.3-0.023-0.438-0.162-0.438-0.416v-0.438
		h1.661h0.6c0.208,0,0.323,0.093,0.346,0.277l0.093,1.729c0.53-0.669,1.131-1.176,1.823-1.592c0.691-0.392,1.476-0.6,2.329-0.6
		c0.623,0,1.177,0.093,1.661,0.301c0.484,0.207,0.877,0.483,1.2,0.853s0.554,0.831,0.715,1.362c0.162,0.53,0.254,1.13,0.254,1.799
		v6.414c0.208,0,0.393,0.022,0.554,0.022c0.162,0,0.277,0.023,0.347,0.023h0.185h0.114C234.938,142.781,235.1,142.919,235.1,143.173
		"/>
	<path fill="#25354B" d="M243.267,132.146c0.415,0.115,0.808,0.276,1.153,0.507h2.953v0.393c0,0.185-0.115,0.276-0.323,0.3
		l-1.753,0.139c0.208,0.3,0.393,0.623,0.507,0.992c0.116,0.369,0.162,0.762,0.162,1.176c0,0.554-0.092,1.039-0.3,1.5
		c-0.208,0.462-0.462,0.831-0.831,1.154c-0.369,0.322-0.784,0.553-1.292,0.738c-0.507,0.184-1.061,0.253-1.661,0.253
		c-0.669,0-1.269-0.069-1.799-0.276c-0.323,0.185-0.577,0.392-0.762,0.646s-0.276,0.508-0.276,0.738
		c0,0.323,0.115,0.577,0.346,0.762s0.554,0.3,0.923,0.392c0.369,0.093,0.807,0.115,1.292,0.139c0.484,0.023,0.992,0.069,1.5,0.092
		c0.507,0.023,0.991,0.07,1.477,0.139c0.484,0.069,0.945,0.185,1.314,0.369s0.692,0.393,0.923,0.716s0.323,0.738,0.323,1.246
		c0,0.483-0.115,0.923-0.346,1.36c-0.231,0.438-0.577,0.831-1.039,1.177c-0.461,0.347-0.969,0.6-1.614,0.808
		c-0.646,0.207-1.385,0.323-2.169,0.323c-0.808,0-1.522-0.093-2.123-0.254c-0.6-0.161-1.107-0.393-1.522-0.669
		c-0.415-0.277-0.715-0.6-0.923-0.969c-0.207-0.369-0.323-0.785-0.323-1.2c0-0.6,0.208-1.13,0.6-1.569
		c0.393-0.438,0.97-0.784,1.662-1.015c-0.393-0.139-0.692-0.3-0.923-0.554c-0.231-0.254-0.323-0.576-0.323-1.015
		c0-0.162,0.023-0.323,0.092-0.508c0.069-0.185,0.162-0.347,0.277-0.53c0.115-0.186,0.254-0.324,0.438-0.485s0.369-0.3,0.6-0.415
		c-0.554-0.323-0.969-0.738-1.27-1.27c-0.299-0.53-0.461-1.129-0.461-1.822c0-0.553,0.115-1.061,0.3-1.521
		c0.185-0.462,0.462-0.831,0.831-1.154s0.784-0.554,1.291-0.738c0.509-0.185,1.062-0.276,1.685-0.276
		C242.39,131.961,242.852,132.03,243.267,132.146 M245.851,143.542c-0.185-0.23-0.416-0.392-0.738-0.508
		c-0.323-0.115-0.692-0.23-1.107-0.276s-0.831-0.069-1.292-0.093c-0.462-0.022-0.877-0.046-1.338-0.068
		c-0.462-0.023-0.877-0.07-1.27-0.139c-0.3,0.115-0.576,0.254-0.83,0.392c-0.254,0.139-0.438,0.323-0.623,0.508
		s-0.323,0.393-0.416,0.623c-0.092,0.23-0.161,0.462-0.161,0.738c0,0.346,0.069,0.669,0.254,0.946
		c0.185,0.276,0.438,0.53,0.762,0.738c0.323,0.207,0.761,0.392,1.246,0.507c0.484,0.115,1.038,0.185,1.661,0.185
		c0.576,0,1.13-0.046,1.638-0.185c0.508-0.138,0.946-0.322,1.315-0.554c0.369-0.23,0.669-0.554,0.876-0.876
		c0.208-0.323,0.323-0.669,0.323-1.062C246.15,144.05,246.035,143.772,245.851,143.542 M243.197,138.351
		c0.393-0.139,0.715-0.346,0.969-0.6s0.462-0.553,0.601-0.899c0.138-0.346,0.207-0.762,0.207-1.2c0-0.438-0.069-0.807-0.207-1.176
		c-0.139-0.369-0.347-0.646-0.623-0.9c-0.277-0.254-0.601-0.461-0.97-0.6s-0.807-0.208-1.292-0.208
		c-0.484,0-0.899,0.069-1.292,0.208s-0.715,0.346-0.991,0.6c-0.277,0.254-0.462,0.531-0.601,0.9
		c-0.138,0.369-0.207,0.762-0.207,1.199c0,0.438,0.069,0.831,0.207,1.177c0.139,0.347,0.323,0.646,0.601,0.899
		c0.276,0.254,0.599,0.461,0.991,0.6s0.808,0.208,1.292,0.208C242.367,138.559,242.805,138.489,243.197,138.351"/>
	<path fill="#25354B" d="M263.245,127.393c0.461,0.185,0.877,0.415,1.223,0.715s0.6,0.646,0.808,1.038
		c0.208,0.393,0.3,0.808,0.323,1.246c-0.115,0.023-0.185,0.047-0.277,0.069c-0.185,0.046-0.323,0.046-0.415,0.046
		c-0.069,0-0.139-0.023-0.185-0.068c-0.046-0.047-0.093-0.093-0.115-0.186c-0.047-0.207-0.139-0.438-0.277-0.691
		c-0.139-0.254-0.3-0.508-0.53-0.738s-0.508-0.438-0.831-0.6c-0.346-0.162-0.715-0.231-1.176-0.231c-0.462,0-0.9,0.069-1.27,0.208
		c-0.369,0.138-0.692,0.346-0.969,0.6c-0.277,0.254-0.484,0.577-0.623,0.923c-0.139,0.347-0.23,0.738-0.23,1.153
		c0,0.623,0.161,1.246,0.484,1.822c0.323,0.577,0.83,1.178,1.5,1.846l5.145,5.076c0.346-0.554,0.623-1.131,0.83-1.73
		c0.208-0.6,0.323-1.176,0.393-1.73c0.023-0.092,0.046-0.185,0.092-0.23c0.047-0.046,0.139-0.092,0.231-0.092h0.623
		c-0.023,0.715-0.162,1.477-0.416,2.237s-0.6,1.499-1.084,2.191l3.414,3.369h-1.015c-0.139,0-0.254-0.023-0.347-0.047
		c-0.092-0.022-0.184-0.092-0.3-0.207l-2.353-2.33c-0.347,0.392-0.738,0.761-1.153,1.107c-0.416,0.346-0.854,0.646-1.339,0.876
		c-0.484,0.231-1.015,0.438-1.568,0.577c-0.555,0.139-1.131,0.207-1.73,0.207c-0.577,0-1.153-0.092-1.708-0.276
		c-0.553-0.185-1.061-0.484-1.499-0.854s-0.808-0.83-1.084-1.385c-0.277-0.553-0.393-1.153-0.393-1.845
		c0-0.554,0.069-1.085,0.276-1.593c0.208-0.508,0.485-0.969,0.831-1.384s0.762-0.784,1.246-1.107s0.969-0.623,1.522-0.831
		c-0.554-0.623-0.946-1.199-1.223-1.775c-0.277-0.577-0.393-1.2-0.393-1.869c0-0.531,0.093-1.038,0.277-1.5
		c0.185-0.461,0.461-0.83,0.83-1.176c0.369-0.347,0.808-0.624,1.315-0.808c0.508-0.186,1.062-0.301,1.685-0.301
		C262.299,127.115,262.783,127.208,263.245,127.393 M256.877,140.935c0.231,0.438,0.508,0.808,0.877,1.107
		c0.369,0.301,0.762,0.508,1.2,0.646c0.438,0.139,0.876,0.23,1.314,0.23c0.531,0,1.038-0.069,1.523-0.185
		c0.484-0.115,0.945-0.276,1.36-0.508c0.416-0.23,0.808-0.484,1.154-0.784c0.346-0.3,0.646-0.623,0.945-0.992l-5.283-5.214
		c-0.046-0.046-0.092-0.069-0.139-0.115c-0.507,0.208-0.945,0.462-1.36,0.762c-0.416,0.3-0.785,0.646-1.062,1.015
		c-0.277,0.369-0.484,0.762-0.646,1.177c-0.161,0.415-0.23,0.854-0.23,1.315C256.531,139.989,256.646,140.497,256.877,140.935"/>
	<path fill="#25354B" d="M293.582,143.104v0.531h-0.761h-0.462h-0.438h-0.161h-2.169v-0.531c0-0.3,0.185-0.438,0.53-0.462
		c0.023,0,0.069-0.022,0.139-0.022s0.185-0.022,0.347-0.022c0.161,0,0.346,0,0.576-0.023l-1.614-3.991l-0.116-0.3h-7.798l-0.115,0.3
		l-1.615,3.991c0.231,0.023,0.438,0.023,0.601,0.023c0.161,0,0.253,0.022,0.322,0.022s0.116,0.022,0.139,0.022
		c0.347,0.023,0.53,0.162,0.53,0.462v0.531h-2.168h-0.162h-0.415h-0.484h-0.738v-0.531c0-0.276,0.139-0.438,0.438-0.462l0.738-0.068
		l6.252-15.273h1.177l6.229,15.273l0.762,0.068C293.443,142.665,293.582,142.827,293.582,143.104 M282.023,137.405h7.083
		l-3.229-7.959c-0.047-0.139-0.115-0.277-0.162-0.439c-0.046-0.161-0.115-0.322-0.161-0.507c-0.046,0.185-0.115,0.346-0.161,0.507
		c-0.047,0.162-0.116,0.323-0.162,0.462L282.023,137.405z"/>
	<path fill="#25354B" d="M296.465,142.343c0.047-0.139,0.139-0.254,0.231-0.347c0.092-0.092,0.185-0.185,0.323-0.23
		c0.138-0.046,0.276-0.093,0.438-0.093c0.139,0,0.277,0.047,0.416,0.093c0.138,0.046,0.23,0.139,0.322,0.23
		c0.093,0.093,0.185,0.208,0.23,0.347c0.047,0.138,0.093,0.276,0.093,0.415c0,0.161-0.046,0.276-0.093,0.415
		c-0.046,0.139-0.138,0.23-0.23,0.323c-0.092,0.092-0.185,0.185-0.322,0.23c-0.139,0.046-0.277,0.092-0.416,0.092
		c-0.3,0-0.554-0.114-0.761-0.322c-0.208-0.208-0.3-0.438-0.3-0.738C296.396,142.619,296.419,142.48,296.465,142.343"/>
	<path fill="#25354B" d="M305.971,128.177c-0.115,0-0.277,0.023-0.508,0.023s-0.484,0.022-0.762,0.022v14.489
		c0.277,0,0.531,0.022,0.762,0.022s0.393,0.023,0.508,0.023h0.23c0.3,0.023,0.438,0.161,0.438,0.415v0.462h-1.938h-1.177h-1.961
		v-0.462c0-0.254,0.161-0.392,0.462-0.415h0.23c0.115,0,0.277-0.023,0.508-0.023s0.484-0.022,0.761-0.022v-14.489
		c-0.276,0-0.53-0.022-0.761-0.022s-0.393-0.023-0.508-0.023h-0.23c-0.301-0.022-0.462-0.161-0.462-0.415V127.3h1.961h1.177h1.938
		v0.462c0,0.254-0.139,0.393-0.438,0.415H305.971z"/>
	<path fill="#25354B" d="M309.707,142.343c0.047-0.139,0.139-0.254,0.231-0.347c0.092-0.092,0.185-0.185,0.322-0.23
		c0.139-0.046,0.277-0.093,0.438-0.093c0.139,0,0.277,0.047,0.415,0.093c0.139,0.046,0.231,0.139,0.323,0.23
		c0.093,0.093,0.185,0.208,0.23,0.347c0.047,0.138,0.093,0.276,0.093,0.415c0,0.161-0.046,0.276-0.093,0.415
		c-0.046,0.139-0.138,0.23-0.23,0.323c-0.092,0.092-0.185,0.185-0.323,0.23c-0.138,0.046-0.276,0.092-0.415,0.092
		c-0.3,0-0.554-0.114-0.761-0.322c-0.208-0.208-0.301-0.438-0.301-0.738C309.638,142.619,309.661,142.48,309.707,142.343"/>
</g>
</svg>
