<?xml version="1.0" encoding="UTF-8"?>
<svg width="403px" height="338px" viewBox="0 0 403 338" version="1.1" xmlns="http://www.w3.org/2000/svg" xmlns:xlink="http://www.w3.org/1999/xlink">
    <!-- Generator: Sketch 46 (44423) - http://www.bohemiancoding.com/sketch -->
    <title>alura</title>
    <desc>Created with Sketch.</desc>
    <defs></defs>
    <g id="Page-1" stroke="none" stroke-width="1" fill="none" fill-rule="evenodd">
        <g id="alura" fill-rule="nonzero" fill="#414040">
            <g transform="translate(79.000000, 113.000000)" id="XMLID_27_">
                <path d="M65.106626,0 L76.2543793,0 C76.8164509,0 77.2848439,0.465403624 77.2848439,1.02388797 L77.2848439,111.883031 C77.2848439,112.441516 76.8164509,112.906919 76.2543793,112.906919 L65.106626,112.906919 C64.5445545,112.906919 64.0761615,112.441516 64.0761615,111.883031 L64.0761615,1.02388797 C64.0761615,0.465403624 64.5445545,0 65.106626,0 Z M141.73572,91.2191104 L141.73572,94.0115321 C141.73572,95.2215815 141.548363,96.8970346 141.07997,99.0378913 C140.705255,101.085667 139.581112,103.226524 137.801219,105.2743 C136.021325,107.322076 133.398324,109.18369 129.838538,110.672982 C126.278751,112.162273 121.407464,112.906919 115.130998,112.906919 C108.854532,112.906919 103.983244,112.162273 100.423458,110.672982 C96.863671,109.18369 94.2406702,107.415157 92.4607768,105.2743 C90.6808835,103.226524 89.5567403,101.085667 89.1820259,98.9448105 C88.8073115,96.8039539 88.5262757,95.2215815 88.5262757,94.0115321 L88.5262757,92.3360791 L88.5262757,30.9028007 C88.5262757,30.3443163 88.9946687,29.8789127 89.5567403,29.8789127 L100.704494,29.8789127 C101.266565,29.8789127 101.734958,30.3443163 101.734958,30.9028007 L101.734958,90.009061 C101.734958,91.9637562 102.015994,93.3599671 102.29703,94.4769357 C102.578065,95.5939044 103.140137,96.7108731 103.983244,97.6416804 C104.826352,98.6655684 106.137852,99.5032949 107.917746,100.15486 C109.60396,100.806425 111.945925,101.178748 114.849962,101.178748 C117.847677,101.178748 120.283321,100.806425 122.063214,100.15486 C123.843107,99.5032949 125.154608,98.6655684 126.091394,97.7347611 C127.02818,96.8039539 127.68393,95.7800659 127.964966,94.6630972 C128.246002,93.5461285 128.620716,92.6153213 128.620716,89.9159802 L128.620716,30.9028007 C128.620716,30.3443163 129.089109,29.8789127 129.651181,29.8789127 L140.798934,29.8789127 C141.361005,29.8789127 141.829398,30.3443163 141.829398,30.9028007 L141.829398,91.2191104 L141.73572,91.2191104 Z M179.675552,29.8789127 L187.16984,29.8789127 C187.82559,29.8789127 188.293983,30.5304778 188.106626,31.1820428 L185.577304,40.8624382 C185.483625,41.3278418 185.015232,41.607084 184.640518,41.607084 L179.394516,41.607084 C176.584158,41.607084 174.335872,41.9794069 172.555979,42.7240527 C170.869764,43.4686985 169.464585,44.306425 168.527799,45.330313 C167.591013,46.354201 167.028941,47.378089 166.747906,48.4019769 C166.46687,49.5189456 166.373191,50.5428336 166.373191,51.4736409 L166.373191,52.8698517 L166.373191,111.976112 C166.373191,112.534596 165.904798,113 165.342727,113 L154.101295,113 C153.539223,113 153.07083,112.534596 153.07083,111.976112 L153.07083,52.4044481 L153.07083,48.8673806 C153.07083,47.7504119 153.258187,46.0749588 153.72658,43.9341021 C154.101295,41.7932455 155.225438,39.7454695 157.005331,37.6046129 C158.785225,35.5568369 161.408225,33.6952224 164.968012,32.2059308 C168.43412,30.6235585 173.399086,29.8789127 179.675552,29.8789127 Z M26.5110434,29.8789127 C35.5978675,29.8789127 42.249048,31.6474465 46.5582635,35.184514 C50.7738005,38.7215815 52.9284082,43.1894563 52.9284082,48.4950577 L52.9284082,55.8484349 L52.9284082,89.6367381 L52.9284082,94.1046129 C52.9284082,95.9662273 52.5536938,98.0140033 51.8979436,100.15486 C51.2421935,102.388797 49.9306931,104.436573 47.9634425,106.205107 C45.9961919,108.066722 43.2795126,109.556013 39.907083,110.859143 C36.5346535,112.069193 32.0380807,112.720758 26.604722,112.720758 C21.0776847,112.720758 16.6747906,112.069193 13.302361,110.859143 C9.92993145,109.649094 7.21325209,108.066722 5.24600152,106.205107 C3.27875095,104.343493 1.96725057,102.295717 1.31150038,100.15486 C0.65575019,97.9209226 0.281035796,95.8731466 0.281035796,94.1046129 L0.281035796,86.8443163 C0.281035796,82.9349259 1.31150038,79.3978583 3.27875095,76.2331137 C5.33968012,73.068369 8.15003808,70.7413509 11.897182,69.4382208 C13.770754,68.7866557 15.8316832,68.1350906 18.2673267,67.2973641 C20.6092917,66.4596376 22.9512567,65.7149918 25.199543,64.8772652 C27.4478294,64.1326194 29.3214014,63.3879736 31.0076161,62.8294893 C32.6938309,62.1779242 33.7242955,61.898682 34.0990099,61.7125206 C34.4737243,61.5263591 35.0357959,61.247117 35.6915461,60.8747941 C36.3472963,60.5024712 37.0030465,59.9439868 37.6587966,59.2924217 C38.3145468,58.5477759 38.7829398,57.7100494 39.2513328,56.8723229 C39.7197258,55.9415157 39.907083,54.824547 39.907083,53.6144975 L39.907083,50.7289951 C39.907083,49.7051071 39.7197258,48.6812191 39.2513328,47.5642504 C38.8766184,46.4472817 38.1271896,45.5164745 37.0967251,44.5856672 C36.0662605,43.65486 34.6610815,42.9102142 32.9748667,42.3517298 C31.2886519,41.7932455 29.1340442,41.5140033 26.5110434,41.5140033 C21.3587205,41.5140033 17.8926123,42.5378913 16.0190404,44.6787479 C14.4265042,46.5403624 13.4897182,48.7742998 13.302361,51.3805601 C13.302361,51.9390445 12.833968,52.3113674 12.2718964,52.3113674 L1.03046458,52.3113674 C0.468392993,52.3113674 0,51.8459638 0,51.2874794 L0,48.5881384 C0,45.9818781 0.468392993,43.5617792 1.49885758,41.3278418 C2.43564356,39.0939044 4.02817974,37.0461285 6.27646611,35.3706755 C8.43107388,33.6952224 11.1477532,32.2990115 14.5201828,31.3682043 C17.7989337,30.437397 21.8271135,29.8789127 26.5110434,29.8789127 Z M39.8134044,70.7413509 C39.6260472,71.7652389 39.0639756,72.5098847 38.2208682,73.068369 C37.3777609,73.6268534 36.6283321,73.9060956 35.8789033,74.1853377 C34.2863671,74.7438221 32.6001523,75.3023064 30.8202589,75.9538715 C29.0403656,76.6054366 27.3541508,77.2570016 25.7616146,77.7224053 C23.8880427,78.3739703 22.1081493,78.9324547 20.5156131,79.5840198 C19.2977913,80.1425041 18.0799695,80.7940692 16.9558264,81.7248764 C16.0190404,82.562603 15.175933,83.5864909 14.4265042,84.8896211 C13.6770754,86.1927512 13.302361,87.7751236 13.302361,89.7298188 C13.302361,93.6392092 14.239147,96.5247117 16.112719,98.4794069 C17.9862909,100.341021 21.4523991,101.364909 26.5110434,101.364909 C31.6633663,101.364909 35.2231531,100.341021 37.0967251,98.3863262 C38.970297,96.3385502 39.907083,93.5461285 39.907083,89.8228995 L39.907083,70.7413509 L39.8134044,70.7413509 Z M219.582635,29.8789127 C228.669459,29.8789127 235.32064,31.6474465 239.629855,35.184514 C243.845392,38.7215815 246,43.1894563 246,48.4950577 L246,55.8484349 L246,89.6367381 L246,94.1046129 C246,95.9662273 245.625286,98.0140033 244.969535,100.15486 C244.313785,102.388797 243.002285,104.436573 241.035034,106.205107 C239.067784,108.066722 236.351104,109.556013 232.978675,110.859143 C229.606245,112.069193 225.109673,112.720758 219.676314,112.720758 C214.149276,112.720758 209.746382,112.069193 206.373953,110.859143 C203.001523,109.649094 200.284844,108.066722 198.317593,106.205107 C196.350343,104.343493 195.038842,102.295717 194.383092,100.15486 C193.727342,97.9209226 193.352628,95.8731466 193.352628,94.1046129 L193.352628,86.8443163 C193.352628,82.9349259 194.383092,79.3978583 196.350343,76.2331137 C198.411272,73.068369 201.22163,70.7413509 204.968774,69.4382208 C206.842346,68.7866557 208.903275,68.1350906 211.338919,67.2973641 C213.680883,66.4596376 216.022848,65.7149918 218.271135,64.8772652 C220.519421,64.1326194 222.392993,63.3879736 224.079208,62.8294893 C225.765423,62.1779242 226.795887,61.898682 227.170602,61.7125206 C227.545316,61.5263591 228.107388,61.247117 228.763138,60.8747941 C229.418888,60.5024712 230.074638,59.9439868 230.730388,59.2924217 C231.386139,58.5477759 231.854532,57.7100494 232.322925,56.8723229 C232.791318,55.9415157 232.978675,54.824547 232.978675,53.6144975 L232.978675,50.7289951 C232.978675,49.7051071 232.791318,48.6812191 232.322925,47.5642504 C231.94821,46.4472817 231.198781,45.5164745 230.168317,44.5856672 C229.137852,43.65486 227.732673,42.9102142 226.046458,42.3517298 C224.360244,41.7932455 222.205636,41.5140033 219.582635,41.5140033 C214.430312,41.5140033 210.964204,42.5378913 209.090632,44.6787479 C207.498096,46.5403624 206.56131,48.7742998 206.373953,51.3805601 C206.373953,51.9390445 205.90556,52.3113674 205.343488,52.3113674 L194.102056,52.3113674 C193.539985,52.3113674 193.071592,51.8459638 193.071592,51.2874794 L193.071592,48.5881384 C193.071592,45.9818781 193.539985,43.5617792 194.570449,41.3278418 C195.507235,39.0939044 197.099772,37.0461285 199.348058,35.3706755 C201.502666,33.6952224 204.219345,32.2990115 207.591775,31.3682043 C210.964204,30.437397 214.898705,29.8789127 219.582635,29.8789127 Z M232.884996,70.7413509 C232.697639,71.7652389 232.135567,72.5098847 231.29246,73.068369 C230.449353,73.6268534 229.699924,73.9060956 228.950495,74.1853377 C227.357959,74.7438221 225.671744,75.3023064 223.891851,75.9538715 C222.111957,76.6054366 220.425743,77.2570016 218.833206,77.7224053 C216.959634,78.3739703 215.179741,78.9324547 213.587205,79.5840198 C212.369383,80.1425041 211.151561,80.7940692 210.027418,81.7248764 C209.090632,82.562603 208.247525,83.5864909 207.498096,84.8896211 C206.748667,86.1927512 206.373953,87.7751236 206.373953,89.7298188 C206.373953,93.6392092 207.310739,96.5247117 209.184311,98.4794069 C211.057883,100.341021 214.523991,101.364909 219.582635,101.364909 C224.734958,101.364909 228.294745,100.341021 230.168317,98.3863262 C232.041889,96.3385502 232.978675,93.5461285 232.978675,89.8228995 L232.978675,70.7413509 L232.884996,70.7413509 Z"></path>
            </g>
        </g>
    </g>
</svg>