<?xml version="1.0" encoding="UTF-8"?>
<svg width="264px" height="122px" viewBox="0 0 264 122" version="1.1" xmlns="http://www.w3.org/2000/svg" xmlns:xlink="http://www.w3.org/1999/xlink">
    <!-- Generator: Sketch 46 (44423) - http://www.bohemiancoding.com/sketch -->
    <title>alura-dark</title>
    <desc>Created with Sketch.</desc>
    <defs></defs>
    <g id="Page-1" stroke="none" stroke-width="1" fill="none" fill-rule="evenodd">
        <g id="alura-dark" fill-rule="nonzero" fill="#414040">
            <path d="M70.4,0 L82.3,0 C82.9,0 83.4,0.5 83.4,1.1 L83.4,120.2 C83.4,120.8 82.9,121.3 82.3,121.3 L70.4,121.3 C69.8,121.3 69.3,120.8 69.3,120.2 L69.3,1.1 C69.3,0.5 69.8,0 70.4,0 Z M152.2,98 L152.2,101 C152.2,102.3 152,104.1 151.5,106.4 C151.1,108.6 149.9,110.9 148,113.1 C146.1,115.3 143.3,117.3 139.5,118.9 C135.7,120.5 130.5,121.3 123.8,121.3 C117.1,121.3 111.9,120.5 108.1,118.9 C104.3,117.3 101.5,115.4 99.6,113.1 C97.7,110.9 96.5,108.6 96.1,106.3 C95.7,104 95.4,102.3 95.4,101 L95.4,99.2 L95.4,33.2 C95.4,32.6 95.9,32.1 96.5,32.1 L108.4,32.1 C109,32.1 109.5,32.6 109.5,33.2 L109.5,96.7 C109.5,98.8 109.8,100.3 110.1,101.5 C110.4,102.7 111,103.9 111.9,104.9 C112.8,106 114.2,106.9 116.1,107.6 C117.9,108.3 120.4,108.7 123.5,108.7 C126.7,108.7 129.3,108.3 131.2,107.6 C133.1,106.9 134.5,106 135.5,105 C136.5,104 137.2,102.9 137.5,101.7 C137.8,100.5 138.2,99.5 138.2,96.6 L138.2,33.2 C138.2,32.6 138.7,32.1 139.3,32.1 L151.2,32.1 C151.8,32.1 152.3,32.6 152.3,33.2 L152.3,98 L152.2,98 Z M192.7,32.1 L200.7,32.1 C201.4,32.1 201.9,32.8 201.7,33.5 L199,43.9 C198.9,44.4 198.4,44.7 198,44.7 L192.4,44.7 C189.4,44.7 187,45.1 185.1,45.9 C183.3,46.7 181.8,47.6 180.8,48.7 C179.8,49.8 179.2,50.9 178.9,52 C178.6,53.2 178.5,54.3 178.5,55.3 L178.5,56.8 L178.5,120.3 C178.5,120.9 178,121.4 177.4,121.4 L165.4,121.4 C164.8,121.4 164.3,120.9 164.3,120.3 L164.3,56.3 L164.3,52.5 C164.3,51.3 164.5,49.5 165,47.2 C165.4,44.9 166.6,42.7 168.5,40.4 C170.4,38.2 173.2,36.2 177,34.6 C180.7,32.9 186,32.1 192.7,32.1 Z M29.2,32.1 C38.9,32.1 46,34 50.6,37.8 C55.1,41.6 57.4,46.4 57.4,52.1 L57.4,60 L57.4,96.3 L57.4,101.1 C57.4,103.1 57,105.3 56.3,107.6 C55.6,110 54.2,112.2 52.1,114.1 C50,116.1 47.1,117.7 43.5,119.1 C39.9,120.4 35.1,121.1 29.3,121.1 C23.4,121.1 18.7,120.4 15.1,119.1 C11.5,117.8 8.6,116.1 6.5,114.1 C4.4,112.1 3,109.9 2.3,107.6 C1.6,105.2 1.2,103 1.2,101.1 L1.2,93.3 C1.2,89.1 2.3,85.3 4.4,81.9 C6.6,78.5 9.6,76 13.6,74.6 C15.6,73.9 17.8,73.2 20.4,72.3 C22.9,71.4 25.4,70.6 27.8,69.7 C30.2,68.9 32.2,68.1 34,67.5 C35.8,66.8 36.9,66.5 37.3,66.3 C37.7,66.1 38.3,65.8 39,65.4 C39.7,65 40.4,64.4 41.1,63.7 C41.8,62.9 42.3,62 42.8,61.1 C43.3,60.1 43.5,58.9 43.5,57.6 L43.5,54.5 C43.5,53.4 43.3,52.3 42.8,51.1 C42.4,49.9 41.6,48.9 40.5,47.9 C39.4,46.9 37.9,46.1 36.1,45.5 C34.3,44.9 32,44.6 29.2,44.6 C23.7,44.6 20,45.7 18,48 C16.3,50 15.3,52.4 15.1,55.2 C15.1,55.8 14.6,56.2 14,56.2 L2,56.2 C1.4,56.2 0.9,55.7 0.9,55.1 L0.9,52.2 C0.9,49.4 1.4,46.8 2.5,44.4 C3.5,42 5.2,39.8 7.6,38 C9.9,36.2 12.8,34.7 16.4,33.7 C19.9,32.7 24.2,32.1 29.2,32.1 Z M43.4,76 C43.2,77.1 42.6,77.9 41.7,78.5 C40.8,79.1 40,79.4 39.2,79.7 C37.5,80.3 35.7,80.9 33.8,81.6 C31.9,82.3 30.1,83 28.4,83.5 C26.4,84.2 24.5,84.8 22.8,85.5 C21.5,86.1 20.2,86.8 19,87.8 C18,88.7 17.1,89.8 16.3,91.2 C15.5,92.6 15.1,94.3 15.1,96.4 C15.1,100.6 16.1,103.7 18.1,105.8 C20.1,107.8 23.8,108.9 29.2,108.9 C34.7,108.9 38.5,107.8 40.5,105.7 C42.5,103.5 43.5,100.5 43.5,96.5 L43.5,76 L43.4,76 Z M235.3,32.1 C245,32.1 252.1,34 256.7,37.8 C261.2,41.6 263.5,46.4 263.5,52.1 L263.5,60 L263.5,96.3 L263.5,101.1 C263.5,103.1 263.1,105.3 262.4,107.6 C261.7,110 260.3,112.2 258.2,114.1 C256.1,116.1 253.2,117.7 249.6,119.1 C246,120.4 241.2,121.1 235.4,121.1 C229.5,121.1 224.8,120.4 221.2,119.1 C217.6,117.8 214.7,116.1 212.6,114.1 C210.5,112.1 209.1,109.9 208.4,107.6 C207.7,105.2 207.3,103 207.3,101.1 L207.3,93.3 C207.3,89.1 208.4,85.3 210.5,81.9 C212.7,78.5 215.7,76 219.7,74.6 C221.7,73.9 223.9,73.2 226.5,72.3 C229,71.4 231.5,70.6 233.9,69.7 C236.3,68.9 238.3,68.1 240.1,67.5 C241.9,66.8 243,66.5 243.4,66.3 C243.8,66.1 244.4,65.8 245.1,65.4 C245.8,65 246.5,64.4 247.2,63.7 C247.9,62.9 248.4,62 248.9,61.1 C249.4,60.1 249.6,58.9 249.6,57.6 L249.6,54.5 C249.6,53.4 249.4,52.3 248.9,51.1 C248.5,49.9 247.7,48.9 246.6,47.9 C245.5,46.9 244,46.1 242.2,45.5 C240.4,44.9 238.1,44.6 235.3,44.6 C229.8,44.6 226.1,45.7 224.1,48 C222.4,50 221.4,52.4 221.2,55.2 C221.2,55.8 220.7,56.2 220.1,56.2 L208.1,56.2 C207.5,56.2 207,55.7 207,55.1 L207,52.2 C207,49.4 207.5,46.8 208.6,44.4 C209.6,42 211.3,39.8 213.7,38 C216,36.2 218.9,34.7 222.5,33.7 C226.1,32.7 230.3,32.1 235.3,32.1 Z M249.5,76 C249.3,77.1 248.7,77.9 247.8,78.5 C246.9,79.1 246.1,79.4 245.3,79.7 C243.6,80.3 241.8,80.9 239.9,81.6 C238,82.3 236.2,83 234.5,83.5 C232.5,84.2 230.6,84.8 228.9,85.5 C227.6,86.1 226.3,86.8 225.1,87.8 C224.1,88.7 223.2,89.8 222.4,91.2 C221.6,92.6 221.2,94.3 221.2,96.4 C221.2,100.6 222.2,103.7 224.2,105.8 C226.2,107.8 229.9,108.9 235.3,108.9 C240.8,108.9 244.6,107.8 246.6,105.7 C248.6,103.5 249.6,100.5 249.6,96.5 L249.6,76 L249.5,76 Z" id="XMLID_27_"></path>
        </g>
    </g>
</svg>