<?xml version="1.0" encoding="UTF-8"?>
<svg width="836px" height="191px" viewBox="0 0 836 191" version="1.1" xmlns="http://www.w3.org/2000/svg" xmlns:xlink="http://www.w3.org/1999/xlink">
    <!-- Generator: Sketch 44.1 (41455) - http://www.bohemiancoding.com/sketch -->
    <title>back4app</title>
    <desc>Created with Sketch.</desc>
    <defs>
        <polygon id="path-1" points="163.271633 99.2304687 0.217749784 99.2304687 0.217749784 0.271039312 163.271633 0.271039312 163.271633 99.2304687"></polygon>
    </defs>
    <g id="Page-1" stroke="none" stroke-width="1" fill="none" fill-rule="evenodd">
        <g id="back4app" transform="translate(-50.000000, -50.000000)">
            <g transform="translate(50.000000, 50.000000)">
                <path d="M54.3801966,70.6253836 C54.3801966,70.6253836 54.4764,70.5642039 54.6635864,70.4463211 C54.8522644,70.3321687 55.1289424,70.1501219 55.501078,69.9404695 C56.2438576,69.5263875 57.3281966,68.8840008 58.7496203,68.1729734 C59.4580949,67.8126102 60.2508407,67.4321023 61.1166712,67.0217508 C61.9825017,66.6143836 62.9303661,66.204032 63.9438576,65.7593602 C64.9595864,65.3258797 66.0513831,64.8938914 67.2035864,64.4350437 C68.3602644,63.9926102 69.584061,63.5501766 70.8652814,63.0935672 C71.5066373,62.8667547 72.1666373,62.6600867 72.8385695,62.439243 C73.5119932,62.224368 74.1943661,61.9886023 74.8961288,61.7796961 C75.5964,61.5610906 76.3138237,61.364868 77.0409424,61.1559617 C77.7695525,60.9530242 78.5063661,60.7269578 79.261078,60.5352117 C80.0142983,60.3322742 80.7816881,60.1479891 81.5595186,59.9599734 C82.3373492,59.7764344 83.1218915,59.5675281 83.9228407,59.3981648 C84.7230441,59.2205945 85.5329424,59.0475008 86.3540271,58.8885828 C87.1751119,58.7304109 88.0006712,58.5461258 88.8411458,58.4051141 C92.197078,57.8037625 95.6947051,57.306118 99.2721288,56.971868 C100.169281,56.9017352 101.069417,56.8316023 101.97179,56.7614695 C102.874908,56.6883523 103.78101,56.6182195 104.691586,56.5831531 C106.547044,56.5354031 108.410705,56.486907 110.27362,56.4384109 C112.044807,56.4861609 113.815247,56.5339109 115.578976,56.5809148 C116.480603,56.6144891 117.418773,56.685368 118.332332,56.7577391 C119.250366,56.828618 120.165417,56.8994969 121.076739,56.9703758 C124.667586,57.3038797 128.156264,57.7992859 131.51518,58.4006375 C132.355654,58.5394109 133.181214,58.7251883 134.002298,58.8826141 C134.823383,59.041532 135.634027,59.2146258 136.433485,59.3929422 C137.23518,59.5600672 138.019722,59.7704656 138.798298,59.9532586 C139.575383,60.1412742 140.342773,60.3263055 141.095993,60.5284969 C141.851451,60.7187508 142.587519,60.9463094 143.316875,61.1485008 C144.043993,61.357407 144.761417,61.5543758 145.461688,61.7729812 C146.163451,61.9796492 146.846569,62.2176531 147.519247,62.431782 C148.19118,62.6526258 148.851925,62.8592937 149.493281,63.0861063 C150.136129,63.3039656 150.758841,63.5442078 151.370366,63.7635594 C151.981146,63.9881336 152.577756,64.2007703 153.154976,64.4283289 C154.30718,64.8864305 155.398231,65.3199109 156.414705,65.7541375 C157.428197,66.1980633 158.375315,66.6091609 159.241892,67.0172742 C160.107722,67.4276258 160.899722,67.8088797 161.608197,68.1699891 C163.028875,68.8817625 164.113214,69.5248953 164.855993,69.9397234 C165.227383,70.1493758 165.503315,70.3314227 165.691993,70.445575 C165.87918,70.5642039 165.976129,70.6253836 165.976129,70.6253836 C165.976129,70.6253836 165.554027,70.4903406 164.763519,70.2374148 C163.970027,69.99195 162.803654,69.6427781 161.312129,69.2189969 C160.564875,69.0145672 159.737078,68.7885008 158.836197,68.5422898 C157.931586,68.3095086 156.953146,68.058075 155.907586,67.7894812 C154.858298,67.5380477 153.744129,67.2597547 152.564332,66.9874305 C151.381553,66.7270437 150.141349,66.4383055 148.841485,66.1644891 C147.538637,65.9033562 146.185824,65.6131258 144.778569,65.3467703 C143.369078,65.0938445 141.914841,64.8103289 140.41362,64.5603875 C138.910163,64.3246219 137.368671,64.0582664 135.786908,63.8314539 C134.202163,63.6218016 132.586841,63.3808133 130.937959,63.1853367 C129.286841,63.0092586 127.610366,62.8040828 125.909281,62.6451648 C124.205959,62.5116141 122.482502,62.35195 120.743383,62.2348133 C119.002027,62.1490125 117.247247,62.0475437 115.48501,61.9736805 C113.720536,61.9423445 111.949349,61.9110086 110.178908,61.8796727 C108.407722,61.9110086 106.636536,61.9423445 104.872807,61.9736805 C103.109824,62.0490359 101.355044,62.1497586 99.6136881,62.2355594 C97.8745695,62.3549344 96.1518576,62.5131062 94.4485356,62.6481492 C92.7467051,62.8093055 91.0709763,63.0129891 89.4198576,63.1890672 C87.7709763,63.3875281 86.1556542,63.6270242 84.5709085,63.8366766 C82.9891458,64.0657273 81.4476542,64.3313367 79.9441966,64.5671023 C78.4429763,64.819282 76.9894847,65.1005594 75.5792475,65.3534852 C74.172739,65.6213328 72.8191797,65.9108172 71.5163322,66.17195 C70.2172136,66.4465125 68.9762644,66.7337586 67.7942305,66.9941453 C66.6166712,67.2761687 65.4995186,67.5440164 64.4502305,67.79545 C63.4046712,68.0632977 62.4262305,68.3147312 61.5208746,68.5467664 C60.6199932,68.7929773 59.7921966,69.0190437 59.0449424,69.2227273 C57.5534169,69.6457625 56.3862983,69.9934422 55.5928068,70.238907 C54.8022983,70.4910867 54.3801966,70.6253836 54.3801966,70.6253836" id="Fill-1" fill="#1F8AEC"></path>
                <g id="Group-5" transform="translate(28.338983, 91.536750)">
                    <mask id="mask-2" fill="white">
                        <use xlink:href="#path-1"></use>
                    </mask>
                    <g id="Clip-4"></g>
                    <path d="M150.701268,72.5197156 C147.876319,78.6891648 144.788115,83.9580789 142.556793,87.4848641 L135.536929,60.8843836 L112.946285,59.6227391 L108.161471,42.0470086 L81.7443186,30.2430594 L55.3279119,42.0470086 L50.5430983,59.6227391 L27.9517085,60.8843836 L20.9318441,87.4871023 C18.7132,83.9804617 15.6466237,78.7488523 12.8276407,72.6062625 C4.27374237,53.971825 4.59814915,41.572493 6.37679322,34.4532664 C8.54696271,25.767243 14.2184881,18.9524227 23.232522,14.1990594 C28.7064203,11.3124227 35.3310305,10.2537156 42.1100136,10.2537156 C60.7003864,10.2537156 80.4414712,18.2234891 80.7106915,18.3331648 L81.7443186,18.7562 L82.7779458,18.3331648 C83.1456068,18.1832 119.787912,3.40681328 140.256115,14.1990594 C149.267912,18.9509305 154.937946,25.7620203 157.109607,34.4435672 C160.330556,47.3174148 155.402556,62.2557039 150.701268,72.5197156 M81.7413356,41.2986766 C88.9946237,41.2986766 95.2098102,44.2084422 97.8281831,48.3447859 C94.3574034,51.0613133 88.6963186,54.3523328 81.6317085,54.3523328 C74.6051322,54.3523328 69.0417424,51.0963797 65.6291322,48.3880594 C68.2310983,44.2285867 74.4634373,41.2986766 81.7413356,41.2986766 M55.0087254,83.8178133 C32.8439119,67.8902039 46.1468271,64.8498719 52.1300814,64.270157 L54.5814034,64.1336219 L59.1193695,47.4636492 C62.4991661,50.764368 70.5847254,57.3031336 81.6100814,57.3031336 C92.6697424,57.3031336 100.92459,50.7218406 104.361064,47.4315672 L108.90798,64.1336219 L111.366014,64.2709031 C116.532658,64.7722781 127.14859,67.1075516 115.691437,77.9841063 C101.946285,88.8203719 89.7239797,91.1504227 81.7696746,91.1504227 C72.3417424,91.1504227 63.3806576,88.6883133 55.0087254,83.8178133 M162.087573,33.3878445 C159.582556,23.3633289 153.087708,15.524868 142.783505,10.0910672 C131.278624,4.02457891 115.887573,4.95271953 103.302827,7.42527422 C101.949268,2.85992656 99.0318441,-0.237854688 96.4403186,0.340367969 C93.8197085,0.924559375 92.4534712,5.06164922 93.1701492,9.84933281 C87.7357763,11.3736023 83.6042508,12.8851883 81.7450644,13.6021844 C79.8896068,12.8866805 75.7752339,11.378825 70.3617424,9.85828594 C71.0806576,5.06687188 69.7151661,0.924559375 67.0930644,0.340367969 C64.5007932,-0.237854688 61.581878,2.86216484 60.2290644,7.42900469 C47.6398441,4.95048125 32.2301492,4.01413359 20.705878,10.0910672 C10.4009288,15.524868 3.90608136,23.3633289 1.40181017,33.3878445 C-1.43357966,44.7381688 0.829064407,58.5550789 8.12784407,74.4550828 C13.5018102,86.1620398 19.6028949,94.4966531 19.8594373,94.845825 L23.0893356,99.230618 L31.0689966,68.9906922 C33.3644542,71.9646219 36.8479119,75.9957664 41.5066915,80.0492938 C53.4083186,90.4043289 67.3317085,95.8784188 81.7696746,95.8784188 C94.9502847,95.8784188 108.466488,90.4162664 120.858081,80.082868 C125.924047,75.8592313 129.813946,71.6646922 132.336861,68.6773328 L140.400047,99.230618 L143.6292,94.845825 C143.886488,94.4966531 149.987573,86.1620398 155.361539,74.4550828 C162.660319,58.5550789 164.922963,44.7381688 162.087573,33.3878445" id="Fill-3" fill="#1F8AEC" mask="url(#mask-2)"></path>
                </g>
                <path d="M68.981261,47.4429078 L46.465939,7.94992734 L50.8234305,9.13472422 L50.8226847,9.13472422 L50.3961085,9.42197031 L49.9322441,9.74502891 C49.6227525,9.96438047 49.3110237,10.1889547 49.0007864,10.4187516 C48.3795661,10.8753609 47.7620746,11.3483844 47.1498034,11.8303609 C45.9260068,12.7950602 44.7223458,13.7985562 43.5410576,14.8304039 C41.1784814,16.8940992 38.9046508,19.0734391 36.7277695,21.3452945 C32.3665492,25.8845289 28.3961085,30.803525 24.8522441,36.0045445 C21.3113627,41.2092945 18.2201763,46.7147203 15.6323797,52.4454664 C14.3407186,55.3112125 13.1639051,58.2291852 12.1287864,61.1978922 C11.0996339,64.1680914 10.1994983,67.1823102 9.42465085,70.229357 C8.63712542,73.2734195 8.03305763,76.3629937 7.52221017,79.4667437 C7.00241356,82.5697477 6.66383729,85.7018492 6.41773559,88.8406656 L6.25515932,91.1975758 L6.16119322,93.5589625 C6.12017627,94.3453453 6.11197288,95.1339664 6.10600678,95.9218414 C6.1015322,96.7097164 6.07915932,97.4975914 6.08885424,98.2862125 C6.12390508,99.8627086 6.12315932,101.439951 6.21787119,103.016447 C6.2596339,103.804322 6.28200678,104.592943 6.33793898,105.380072 L6.51692203,107.742205 C6.5676339,108.53008 6.65190508,109.315716 6.73617627,110.101353 L6.98302373,112.458263 L7.29698983,114.809205 C7.39990508,115.593349 7.50207458,116.377494 7.63780339,117.157162 C7.89061695,118.718736 8.13149831,120.282548 8.44695593,121.83517 L8.89665085,124.167459 L9.40675254,126.489302 C10.0831593,129.585591 10.8930576,132.654275 11.7551593,135.709529 C12.189939,137.236037 12.6754305,138.749115 13.1325831,140.269654 L14.6375322,144.793966 L14.6643797,144.874545 C15.1953627,146.469693 14.3325153,148.193916 12.7380746,148.724388 C11.1436339,149.255607 9.42092203,148.393123 8.88993898,146.797228 L7.33278644,142.116982 C6.85848136,140.541978 6.35658305,138.975181 5.90539661,137.39197 C5.01122712,134.22331 4.17075254,131.036744 3.46600678,127.814365 L2.93576949,125.398513 L2.46668475,122.968486 C2.13929492,121.351701 1.88648136,119.719248 1.62248136,118.089033 C1.4815322,117.275045 1.37488814,116.455834 1.26749831,115.636623 L0.939362712,113.179736 L0.680583051,110.71315 C0.592583051,109.890955 0.504583051,109.068759 0.450888136,108.242834 L0.263701695,105.768041 C0.205532203,104.942861 0.180922034,104.115443 0.137667797,103.288771 C0.0392271186,101.636173 0.0377355932,99.9783531 0.00268474576,98.322025 C-0.00701016949,97.4938609 0.0153627119,96.6649508 0.0205830508,95.8367867 C0.0265491525,95.0078766 0.0354983051,94.1797125 0.0780067797,93.3508023 L0.177938983,90.8655641 L0.348718644,88.3833102 C0.606752542,85.0766227 0.966210169,81.7729195 1.5136,78.4960758 C2.05278644,75.2199781 2.69190508,71.955818 3.52343051,68.7379156 C4.34227797,65.517775 5.29387119,62.3304625 6.38268475,59.1901539 C7.47746441,56.0520836 8.72065085,52.9662398 10.0861424,49.9378453 C12.8208542,43.8810562 16.0858034,38.0682398 19.8198373,32.5799742 C23.5568542,27.094693 27.7383458,21.9153102 32.3367186,17.1291187 C34.632922,14.7326656 37.0312949,12.4332047 39.5378034,10.2434195 C40.7914305,9.14815391 42.0719051,8.08123984 43.3866847,7.04491562 C44.0444475,6.52638047 44.7104136,6.01679844 45.3912949,5.51542344 C45.7306169,5.26398984 46.0744136,5.01628672 46.424922,4.76932969 L46.9559051,4.39926719 L47.5346169,4.01055234 L47.5361085,4.00980625 L47.7374644,3.88893906 C49.1148881,3.06002891 50.9032271,3.50544687 51.7310237,4.88348203 C51.7891932,4.98047422 51.8481085,5.09388047 51.8936,5.19460312 L70.4578712,46.6938297 C70.6443119,47.1116422 70.4571254,47.6018258 70.0394983,47.7890953 C69.6479729,47.9644273 69.1908203,47.8070016 68.981261,47.4429078" id="Fill-6" fill="#1F8AEC"></path>
                <path d="M150.160515,46.6939043 L168.724041,5.19467773 C169.381058,3.72711133 171.102278,3.06980273 172.569193,3.72636523 C172.672108,3.77262305 172.771295,3.82410352 172.866007,3.88006055 L173.081532,4.00988086 L173.083024,4.01137305 L173.662481,4.3993418 L174.193464,4.7694043 C174.543227,5.01710742 174.887769,5.26481055 175.227092,5.51624414 C175.907973,6.01687305 176.573939,6.52720117 177.230956,7.04499023 C178.545736,8.08131445 179.82621,9.14897461 181.079837,10.2434941 C183.586346,12.4332793 185.985464,14.7334863 188.280922,17.1299395 C192.879295,21.9161309 197.060786,27.0947676 200.798549,32.5800488 C204.531837,38.0683145 207.796786,43.881877 210.531498,49.9379199 C211.897736,52.9670605 213.140176,56.0521582 214.234956,59.1909746 C215.323769,62.3312832 216.275363,65.5178496 217.094956,68.7387363 C217.925736,71.9566387 218.5656,75.2200527 219.104786,78.4968965 C219.652176,81.7729941 220.010888,85.0766973 220.269668,88.3841309 L220.440447,90.8663848 L220.539634,93.351623 C220.582142,94.1797871 220.591092,95.0086973 220.597803,95.8368613 C220.603024,96.6657715 220.625397,97.4946816 220.615702,98.3228457 C220.579905,99.9784277 220.578414,101.636248 220.479973,103.2881 C220.437464,104.115518 220.412108,104.943682 220.353939,105.768861 L220.166753,108.243654 C220.113058,109.06958 220.025803,109.891775 219.937803,110.713225 L219.678278,113.180557 L219.350888,115.637443 C219.242753,116.456654 219.136108,117.275865 218.995159,118.089107 C218.731159,119.719322 218.479092,121.351029 218.150956,122.967814 L217.682617,125.399334 L217.151634,127.815186 C216.447634,131.036818 215.606414,134.223385 214.712244,137.391299 C214.261058,138.975256 213.759905,140.542053 213.284854,142.117057 L211.727702,146.798049 C211.197464,148.393197 209.474753,149.255682 207.879566,148.725209 C206.285125,148.19399 205.423024,146.469768 205.953261,144.875365 L205.980108,144.794041 L207.485803,140.270475 C207.94221,138.749189 208.428447,137.235365 208.863227,135.709604 C209.724583,132.655096 210.535227,129.585666 211.211634,126.489377 L211.721736,124.168279 L212.171431,121.83599 C212.486888,120.283369 212.727024,118.719557 212.980583,117.157236 C213.116312,116.376822 213.217736,115.593424 213.320651,114.810025 L213.634617,112.459084 L213.88221,110.101428 C213.965736,109.315791 214.050753,108.5309 214.100719,107.743025 L214.279702,105.380893 C214.335634,104.593764 214.358753,103.804396 214.399769,103.016521 C214.494481,101.440771 214.494481,99.8635293 214.528786,98.2862871 C214.538481,97.4984121 214.516108,96.7105371 214.511634,95.921916 C214.505668,95.134041 214.49821,94.3454199 214.457193,93.5590371 L214.362481,91.1976504 L214.199905,88.8414863 C213.954549,85.7026699 213.615227,82.5698223 213.096176,79.4668184 C212.584583,76.3638145 211.980515,73.2734941 211.193736,70.2294316 C210.418142,67.1823848 209.518007,64.168166 208.488854,61.1979668 C207.453736,58.2300059 206.277668,55.3112871 204.985261,52.445541 C202.39821,46.7147949 199.306278,41.2093691 195.765397,36.0046191 C192.222278,30.8035996 188.251837,25.8846035 183.889871,21.3461152 C181.71299,19.0735137 179.439159,16.8941738 177.076583,14.8304785 C175.895295,13.7986309 174.69238,12.7958809 173.467837,11.8311816 C172.855566,11.348459 172.238075,10.8754355 171.6176,10.4188262 C171.307363,10.1890293 170.995634,9.96445508 170.685397,9.74584961 L170.222278,9.42279102 L169.794956,9.13479883 L169.79421,9.13479883 L174.151702,7.95000195 L151.63638,47.4429824 C151.409668,47.8406504 150.904041,47.9794238 150.506549,47.7526113 C150.133668,47.5399746 149.989736,47.0781426 150.160515,46.6939043" id="Fill-8" fill="#1F8AEC"></path>
                <path d="M196.320915,96.7200871 L196.26722,96.6350324 C196.070339,96.3254035 195.937593,96.1433566 195.773525,95.9135598 C195.615424,95.7053996 195.458814,95.4890324 195.296237,95.2905715 C194.983017,94.8929035 194.657119,94.5176184 194.329729,94.1430793 L194.411017,94.1430793 C194.411017,63.612177 175.678949,30.9004426 151.118,17.5356652 L149.458678,22.5143488 C159.645051,28.2667316 169.073729,37.8532902 176.355356,49.955677 C180.975356,57.6337277 184.443898,65.8668723 186.623763,74.1664191 C187.476169,78.040884 188.036237,85.728634 177.897593,82.5316223 C177.774542,82.4704426 177.650746,82.4077707 177.526949,82.3473371 C174.034542,80.675341 170.444441,79.2689543 166.814068,78.0192473 C165.003356,77.3686535 163.162814,76.8486262 161.326,76.2987551 L158.556237,75.5571379 C158.093864,75.4362707 157.632983,75.3049582 157.169119,75.1937902 L155.77678,74.8632707 C152.068102,73.9396066 148.325864,73.2352941 144.572441,72.6182746 C142.69461,72.3287902 140.814542,72.0609426 138.932983,71.7990637 C137.049932,71.5812043 135.167627,71.332009 133.282339,71.1417551 C131.397051,70.9634387 129.50878,70.7776613 127.621254,70.6590324 C125.732983,70.5501027 123.843966,70.4105832 121.955695,70.3270207 L116.290881,70.1128918 L110.628305,70.0173918 L110.274814,70.011423 L110.200237,70.010677 L110.177864,70.010677 L110.155492,70.010677 L110.080915,70.011423 L109.726678,70.0173918 L104.064102,70.1128918 L98.4000339,70.3270207 C96.5117627,70.4105832 94.6227458,70.5501027 92.7344746,70.6590324 C90.8469492,70.7776613 88.958678,70.9634387 87.0733898,71.1417551 C85.1881017,71.332009 83.3057966,71.5812043 81.4227458,71.7990637 C79.5411864,72.0609426 77.6611186,72.3287902 75.7832881,72.6182746 C72.0298644,73.2352941 68.2868814,73.9396066 64.5789492,74.8632707 L63.1866102,75.1937902 C62.7227458,75.3049582 62.2618644,75.4362707 61.7994915,75.5571379 L59.0297288,76.2987551 C57.1929153,76.8486262 55.3523729,77.3686535 53.541661,78.0192473 C49.9321695,79.2614934 46.3614576,80.659673 42.8876949,82.3189855 C31.966,85.983052 32.8281017,77.5439855 33.7006441,73.7545754 C35.8708136,65.641552 39.2692542,57.5979152 43.7669492,50.083259 C51.0001017,37.9980324 60.3728475,28.4174426 70.5010508,22.6523762 L68.9371864,17.6184816 C44.4784068,30.9683371 25.806,63.6718645 25.806,94.1430793 L26.026,94.1430793 C25.6986102,94.5176184 25.3727119,94.8929035 25.0587458,95.2905715 C24.8969153,95.4890324 24.7403051,95.7053996 24.5822034,95.9135598 C24.4181356,96.1433566 24.2853898,96.3254035 24.0885085,96.6350324 L24.0348136,96.7200871 C23.8394237,97.0289699 23.7558983,97.4139543 23.8304746,97.8041613 L23.8304746,97.8049074 C23.8759661,98.087677 23.9177288,98.2928527 23.9669492,98.5308566 C24.0154237,98.7591613 24.0676271,98.9859738 24.1228136,99.2112941 C24.2331864,99.6596965 24.3569831,100.105861 24.4956949,100.547548 C24.7761017,101.430177 25.1064746,102.303853 25.5248475,103.159622 C25.9126441,103.954212 26.3794915,104.734626 26.9537288,105.468782 C26.8560339,107.689157 26.9470169,109.7342 27.2468136,111.300251 C27.9150169,114.786001 29.4878305,115.729064 30.6892542,115.90738 C30.8421356,115.929763 30.9950169,115.940954 31.1501356,115.940954 C31.2582712,115.940954 31.3671525,115.934239 31.4775254,115.922302 C31.6527797,118.85445 32.0808475,121.4807 32.5797627,123.698091 C35.5620678,114.557696 41.5475593,107.289997 50.4206441,102.059134 C50.8487119,101.806954 51.2834915,101.570443 51.722,101.339154 C51.2215932,99.7454973 50.8375254,98.1988449 50.5504068,96.7282941 C50.1126441,92.1256418 51.6011864,84.8892785 64.1009153,82.0459152 C64.2679661,82.0101027 64.4350169,81.9742902 64.6028136,81.9429543 L65.949661,81.693759 C66.2942034,81.6310871 66.638,81.566923 66.9825424,81.502759 C67.0384746,81.4938059 67.0921695,81.4841066 67.1488475,81.4751535 L67.1481017,81.471423 C67.6462712,81.3789074 68.1444407,81.2871379 68.6441017,81.2020832 L71.3519661,80.7768098 L72.7055254,80.5611887 L74.0643051,80.3709348 L76.7811186,79.9896809 C78.5985424,79.7658527 80.4182034,79.5629152 82.2386102,79.3644543 C84.0664746,79.2100129 85.8883729,79.0234895 87.7177288,78.8944152 C88.6335254,78.8324895 89.549322,78.7825012 90.4643729,78.7108762 C91.3794237,78.6467121 92.2922373,78.5624035 93.2102712,78.5250988 C95.0455932,78.4378059 96.8771864,78.3206691 98.7147458,78.2579973 L104.228169,78.105048 L109.749051,78.0669973 L110.155492,78.0684895 L110.177864,78.0684895 L110.200237,78.0684895 L110.606678,78.0669973 L116.127559,78.105048 L121.640983,78.2579973 C123.477797,78.3206691 125.310136,78.4378059 127.145458,78.5250988 C128.063492,78.5624035 128.976305,78.6467121 129.891356,78.7108762 C130.805661,78.7825012 131.722203,78.8324895 132.637254,78.8944152 C134.467356,79.0234895 136.289254,79.2100129 138.117119,79.3644543 C139.93678,79.5629152 141.757186,79.7658527 143.57461,79.9896809 L146.291424,80.3709348 L147.650203,80.5611887 L149.003017,80.7768098 L151.711627,81.2020832 C151.921186,81.2378957 152.128508,81.2766926 152.337322,81.3147434 C168.063966,83.6731457 169.466,92.2136809 168.866407,97.1244699 C168.624034,98.303298 168.320508,99.5261457 167.943898,100.781075 L167.943153,100.782568 L167.943898,100.782568 C167.926,100.840763 167.905119,100.901196 167.88722,100.960884 C168.580034,101.301849 169.260915,101.666689 169.928373,102.059134 C178.850678,107.319841 184.852576,114.639021 187.817729,123.850294 C188.332305,121.605298 188.777525,118.928314 188.959492,115.930509 C189.039288,115.936478 189.119085,115.940954 189.198881,115.940954 C189.353254,115.940954 189.506881,115.929763 189.659763,115.90738 C190.861186,115.729064 192.434,114.786001 193.102203,111.300251 C193.402,109.736439 193.492237,107.693634 193.396034,105.476243 C193.973254,104.740595 194.441593,103.957943 194.830881,103.159622 C195.249254,102.303853 195.579627,101.430177 195.859288,100.547548 C195.998746,100.105861 196.122542,99.6596965 196.232915,99.2112941 C196.288102,98.9859738 196.340305,98.7591613 196.38878,98.5308566 C196.438,98.2928527 196.479763,98.087677 196.525254,97.8049074 L196.525254,97.8041613 C196.599831,97.4139543 196.516305,97.0289699 196.320915,96.7200871" id="Fill-10" fill="#1F8AEC"></path>
                <path d="M147.045614,19.3008484 L147.045614,19.3008484 L147.035919,19.2583211 L147.074698,19.3120398 C147.084393,19.3247234 147.079919,19.3247234 147.079919,19.3247234 L147.085885,19.3388992 L147.045614,19.3008484 Z M73.5723254,19.3008484 L73.5723254,19.3008484 L73.5320542,19.3388992 L73.5342915,19.3314383 C73.5380203,19.3247234 73.5328,19.3247234 73.5432407,19.3120398 L73.5820203,19.2583211 L73.5723254,19.3008484 Z M151.83341,14.3624539 L151.626088,14.1251961 L151.232325,13.6342664 L150.937003,13.2768875 C150.742359,13.050075 150.55219,12.8463914 150.360529,12.6397234 C149.980936,12.2435477 149.599851,11.8600555 149.217275,11.506407 C148.441681,10.8065711 147.651173,10.1753758 146.851715,9.57850078 C145.250563,8.39370391 143.584529,7.41482891 141.897614,6.53742266 C140.206969,5.67344609 138.490224,4.92660625 136.756325,4.27974297 C135.023919,3.62168828 133.275851,3.0822625 131.521071,2.60550859 C129.765546,2.12427812 128.005546,1.73854766 126.240325,1.40802812 C125.358088,1.24164922 124.477342,1.09243047 123.592868,0.958133594 L120.944664,0.607469531 C119.18019,0.398563281 117.414969,0.27098125 115.653478,0.153844531 C114.773478,0.112063281 113.891986,0.0762507812 113.012732,0.0501375 L110.320529,0.00014921875 L110.308597,0.00014921875 L110.29741,0.00014921875 L107.605207,0.0501375 C106.725953,0.0762507812 105.844461,0.112063281 104.964461,0.153844531 C103.202969,0.27098125 101.437749,0.398563281 99.6725288,0.607469531 L97.0250712,0.958133594 C96.1398508,1.09243047 95.2598508,1.24164922 94.3776136,1.40802812 C92.6123932,1.73854766 90.8523932,2.12427812 89.0968678,2.60550859 C87.3420881,3.0822625 85.5940203,3.62168828 83.8608678,4.27974297 C82.1277153,4.92660625 80.4109695,5.67344609 78.7195797,6.53742266 C77.0334102,7.41482891 75.3666305,8.39370391 73.7662237,9.57850078 C72.9660203,10.1753758 72.1755119,10.8065711 71.4006644,11.506407 C71.0180881,11.8600555 70.6370034,12.2435477 70.2574102,12.6397234 C70.0657492,12.8463914 69.8755797,13.050075 69.6809356,13.2768875 L69.3856136,13.6342664 L68.9918508,14.1251961 L68.7845288,14.3624539 C68.0365288,15.2249383 67.7546305,16.5261258 68.1580881,17.7273367 L79.1409356,50.4584695 C79.2826305,50.8822508 79.6823593,51.1396531 80.0902915,51.0448992 C80.541478,50.9404461 80.8308339,50.4457859 80.7376136,49.9399344 L74.8341559,18.016075 C74.8595119,17.9944383 74.8826305,17.9720555 74.9079864,17.9511648 C75.4963932,17.4654578 76.1355119,17.0028797 76.7984949,16.5611922 C78.1326644,15.684532 79.576461,14.9347078 81.0575458,14.2430789 C82.5475797,13.5730867 84.0883254,12.9956102 85.6514441,12.4711062 C87.2145627,11.9398875 88.8179525,11.5369969 90.4273085,11.148282 C92.0366644,10.7543445 93.669139,10.4469539 95.3083254,10.1917898 C96.1286644,10.0619695 96.9527322,9.95602422 97.7753085,9.83814141 L100.254224,9.55164141 C101.910563,9.38377031 103.573614,9.29423906 105.238156,9.21216875 L107.737207,9.12562187 L110.224325,9.08458672 L110.308597,9.08607891 L110.393614,9.08458672 L112.879986,9.12562187 L115.379783,9.21216875 C117.044325,9.29423906 118.707376,9.38377031 120.363715,9.55164141 L122.842631,9.83814141 C123.665207,9.95602422 124.489275,10.0619695 125.308868,10.1917898 C126.9488,10.4469539 128.581275,10.7543445 130.190631,11.148282 C131.799986,11.5369969 133.403376,11.9398875 134.965749,12.4711062 C136.529614,12.9956102 138.070359,13.5730867 139.560393,14.2430789 C141.041478,14.9347078 142.485275,15.684532 143.819444,16.5611922 C144.482427,17.0028797 145.121546,17.4654578 145.709207,17.9511648 C145.735308,17.9720555 145.757681,17.9944383 145.783037,18.016075 L139.880325,49.9399344 C139.786359,50.4457859 140.076461,50.9404461 140.527647,51.0448992 C140.93558,51.1396531 141.335308,50.8822508 141.477003,50.4584695 L152.459851,17.7273367 C152.863308,16.5261258 152.58141,15.2249383 151.83341,14.3624539 L151.83341,14.3624539 Z" id="Fill-12" fill="#1F8AEC"></path>
                <path d="M313.065593,101.334304 C313.065593,99.8137648 312.803831,98.3514211 312.285525,96.9465266 C311.762746,95.5483469 311.06322,94.324007 310.18322,93.2824602 C309.300237,92.2453898 308.26139,91.418718 307.061458,90.8225891 C305.86078,90.2204914 304.537797,89.9168313 303.097729,89.9168313 L277.63739,89.9168313 L277.63739,112.385445 L302.257254,112.385445 C303.777864,112.385445 305.197797,112.106405 306.52078,111.544597 C307.84078,110.986519 308.982542,110.203866 309.943831,109.201116 C310.904373,108.202097 311.662068,107.023269 312.224373,105.659409 C312.784441,104.29928 313.065593,102.855589 313.065593,101.334304 L313.065593,101.334304 Z M277.63739,55.3167336 L277.63739,76.8221398 L299.734339,76.8221398 C302.535424,76.8221398 304.916644,75.8626633 306.880237,73.9407258 C308.840847,72.0180422 309.823763,69.3768703 309.823763,66.0104953 C309.823763,62.7284289 308.92139,60.1215773 307.119627,58.1988937 C305.317864,56.2754641 303.097729,55.3167336 300.455492,55.3167336 L277.63739,55.3167336 Z M329.758746,104.45596 C329.758746,108.061085 329.037593,111.226015 327.597525,113.950003 C326.15522,116.675484 324.17522,118.9548 321.651559,120.79989 C319.128644,122.639011 316.207492,124.043159 312.884373,125.00189 C309.562,125.965097 306.019627,126.444089 302.257254,126.444089 L261.064305,126.444089 L261.064305,41.1402062 L306.699017,41.1402062 C309.662678,41.1402062 312.344441,41.7818469 314.747288,43.0628898 C317.148644,44.345425 319.189797,46.0032453 320.872237,48.0482883 C322.551695,50.0873625 323.852305,52.4166672 324.774068,55.0145656 C325.692847,57.6221633 326.15522,60.2431906 326.15522,62.8843625 C326.15522,67.0527883 325.11339,70.9570969 323.033458,74.6002727 C320.949797,78.2456867 317.908576,80.9510227 313.906814,82.7118039 C318.788576,84.1547492 322.651627,86.7377258 325.49522,90.4599875 C328.335831,94.1829953 329.758746,98.8498117 329.758746,104.45596 L329.758746,104.45596 Z" id="Fill-14" fill="#1F8AEC"></path>
                <path d="M362.905661,115.872985 C365.623966,115.872985 368.20878,115.389516 370.651153,114.43004 C373.090542,113.466087 374.992983,112.18952 376.354746,110.584673 C378.114746,109.22529 378.997729,107.698782 378.997729,106.020817 L378.997729,98.8105672 C377.075898,98.0913328 374.992983,97.5101258 372.753458,97.0691844 C370.508712,96.628243 368.347492,96.4081453 366.267559,96.4081453 C362.103966,96.4081453 358.700305,97.3474773 356.060305,99.2313641 C353.417322,101.115251 352.097322,103.496782 352.097322,106.378196 C352.097322,109.10293 353.136169,111.367325 355.219085,113.167649 C357.299763,114.967973 359.862203,115.872985 362.905661,115.872985 M358.340847,127.647837 C355.29739,127.647837 352.45678,127.143477 349.813797,126.146696 C347.173051,125.1432 344.889525,123.739052 342.968441,121.938727 C341.04661,120.138403 339.54539,118.035165 338.46478,115.634235 C337.384169,113.226591 336.843492,110.584673 336.843492,107.698782 C336.843492,104.739028 337.504237,101.994895 338.826475,99.4716063 C340.146475,96.946825 341.987763,94.8040438 344.349593,93.0425164 C346.711424,91.2817352 349.532644,89.9022078 352.816237,88.8994578 C356.099085,87.8967078 359.700373,87.3975711 363.624576,87.3975711 C366.426407,87.3975711 369.169322,87.6370672 371.851085,88.1168055 C374.533593,88.5965438 376.914814,89.2807117 378.997729,90.1618484 L378.997729,86.5559773 C378.997729,82.3935203 377.814203,79.1845711 375.45461,76.9440516 C373.090542,74.703532 369.587695,73.5784227 364.946814,73.5784227 C361.582678,73.5784227 358.299831,74.1797742 355.099017,75.3832234 C351.894475,76.5821961 348.613119,78.3482 345.25122,80.6663133 L340.327695,70.4575125 C348.412508,65.0908602 357.140915,62.4056688 366.506949,62.4056688 C375.553051,62.4056688 382.578881,64.6260438 387.583695,69.0727625 C392.585525,73.5194813 395.089051,79.947825 395.089051,88.3563016 L395.089051,107.943501 C395.089051,109.621466 395.390339,110.824915 395.991424,111.543403 C396.590271,112.26786 397.570949,112.668513 398.932712,112.747598 L398.932712,126.444388 C396.209186,127.00172 393.847356,127.285235 391.84722,127.285235 C388.803763,127.285235 386.461322,126.605544 384.82139,125.241684 C383.180712,123.880809 382.158271,122.080485 381.760034,119.836235 L381.398339,116.35347 C378.596508,120.036188 375.193593,122.839263 371.191085,124.7612 C367.186339,126.683884 362.905661,127.647837 358.340847,127.647837" id="Fill-16" fill="#1F8AEC"></path>
                <path d="M406.134766,94.965573 C406.134766,90.5628738 406.895444,86.3951941 408.418292,82.4722332 C409.936664,78.5485262 412.141885,75.1000809 415.02202,72.1351043 C417.904393,69.1760965 421.387851,66.8132176 425.470902,65.0472137 C429.553953,63.2864324 434.157546,62.4052957 439.281681,62.4052957 C446.167308,62.4052957 452.031241,63.887784 456.874224,66.8520145 C461.717953,69.816991 465.343851,73.7011551 467.744461,78.5045066 L452.012597,83.3130809 C450.650088,80.9897449 448.848325,79.2088191 446.6088,77.966573 C444.365546,76.724327 441.883647,76.1028309 439.161614,76.1028309 C436.839308,76.1028309 434.678088,76.5624246 432.675715,77.4823582 C430.673342,78.4067684 428.932732,79.6885574 427.453885,81.3269793 C425.970563,82.9706238 424.810902,84.9522488 423.969681,87.2755848 C423.128461,89.5989207 422.708597,92.1624988 422.708597,94.965573 C422.708597,97.7686473 423.148597,100.332225 424.030834,102.655561 C424.910834,104.978897 426.089139,106.979921 427.573207,108.661616 C429.0528,110.34555 430.795647,111.645991 432.795783,112.566671 C434.798902,113.491081 436.919851,113.950675 439.161614,113.950675 C442.043986,113.950675 444.704122,113.226964 447.148732,111.788495 C449.589614,110.34555 451.290698,108.584022 452.251241,106.500182 L467.984597,111.303534 C465.822631,116.112854 462.257885,120.035815 457.29558,123.079132 C452.329546,126.126179 446.366427,127.647464 439.401749,127.647464 C434.276868,127.647464 429.673275,126.762596 425.590969,125.001069 C421.507919,123.239542 418.023715,120.858011 415.14358,117.854237 C412.261207,114.850464 410.038834,111.367698 408.477207,107.400718 C406.917071,103.437468 406.134766,99.2899324 406.134766,94.965573" id="Fill-18" fill="#1F8AEC"></path>
                <polygon id="Fill-20" fill="#1F8AEC" points="520.826434 126.444313 502.573146 99.172348 493.926027 107.698707 493.926027 126.444313 477.831722 126.444313 477.831722 38.7342777 493.926027 38.7342777 493.926027 91.962098 519.144739 63.6090434 536.319654 63.6090434 512.900468 90.2789105 538.001349 126.444313"></polygon>
                <path d="M556.014875,109.38182 L576.791078,109.38182 L576.791078,82.2322148 L556.014875,109.38182 Z M574.989315,141.701109 L574.989315,123.803066 L539.920569,123.803066 L539.920569,109.50418 L580.152231,57.8416641 L591.080637,57.8416641 L591.080637,109.38182 L601.649586,109.38182 L601.649586,123.803066 L591.080637,123.803066 L591.080637,141.701109 L574.989315,141.701109 Z" id="Fill-22" fill="#1F8AEC"></path>
                <path d="M658.332922,93.5225531 L646.563295,60.0035453 L634.314888,93.5225531 L658.332922,93.5225531 Z M639.239159,41.1408031 L653.890414,41.1408031 L686.314685,126.44394 L669.261329,126.44394 L661.335363,105.179522 L631.552583,105.179522 L623.745939,126.44394 L606.693329,126.44394 L639.239159,41.1408031 Z" id="Fill-24" fill="#1F8AEC"></path>
                <path d="M726.426054,113.950898 C728.830393,113.950898 731.049037,113.427141 733.093173,112.384848 C735.134325,111.348523 736.875681,109.944375 738.315003,108.183594 C739.758054,106.422066 740.877444,104.37777 741.679139,102.053688 C742.478597,99.7296055 742.879817,97.3286758 742.879817,94.8434375 C742.879817,92.2022656 742.440563,89.7416484 741.559817,87.4571094 C740.676834,85.1725703 739.457512,83.1901992 737.894393,81.5085039 C736.335003,79.8253164 734.491478,78.5047305 732.372766,77.546 C730.24958,76.5820469 727.946664,76.1023086 725.465512,76.1023086 C723.944902,76.1023086 722.382529,76.3619492 720.784359,76.885707 C719.179478,77.4042422 717.698393,78.142875 716.339614,79.1068281 C714.977105,80.0655586 713.757783,81.190668 712.676427,82.4717109 C711.595817,83.7535 710.774732,85.1524258 710.21541,86.674457 L710.21541,101.452336 C711.654732,105.057461 713.856969,108.041836 716.817647,110.403969 C719.781308,112.766848 722.983614,113.950898 726.426054,113.950898 M731.831342,127.646941 C726.866054,127.646941 722.541376,126.542723 718.861783,124.341 C715.177715,122.140023 712.295342,119.155648 710.21541,115.389367 L710.21541,152.033762 L694.121105,152.033762 L694.121105,63.4866094 L708.172766,63.4866094 L708.172766,74.3027305 C710.49358,70.6192656 713.495275,67.7132305 717.180834,65.5905937 C720.861919,63.4672109 725.106054,62.4055195 729.910258,62.4055195 C734.15141,62.4055195 738.075614,63.2665117 741.679139,64.9884961 C745.280427,66.7104805 748.3828,69.0345625 750.987749,71.95925 C753.585241,74.8846836 755.629376,78.3241758 757.111207,82.2911563 C758.590054,86.2536602 759.33358,90.4407383 759.33358,94.8434375 C759.33358,99.4125156 758.651207,103.697332 757.292427,107.699379 C755.928427,111.705156 754.028969,115.193145 751.585851,118.152898 C749.143478,121.116383 746.240969,123.441211 742.879817,125.123652 C739.518664,126.806094 735.833851,127.646941 731.831342,127.646941" id="Fill-26" fill="#1F8AEC"></path>
                <path d="M802.56522,113.950898 C804.969559,113.950898 807.188203,113.427141 809.232339,112.384848 C811.273492,111.348523 813.014102,109.944375 814.454169,108.183594 C815.896475,106.422066 817.01661,104.37777 817.818305,102.053688 C818.617763,99.7296055 819.018983,97.3286758 819.018983,94.8434375 C819.018983,92.2022656 818.579729,89.7416484 817.698983,87.4571094 C816.816,85.1725703 815.596678,83.1901992 814.033559,81.5085039 C812.474169,79.8253164 810.630644,78.5047305 808.511932,77.546 C806.388746,76.5820469 804.085831,76.1023086 801.604678,76.1023086 C800.083322,76.1023086 798.521695,76.3619492 796.923525,76.885707 C795.318644,77.4042422 793.837559,78.142875 792.47878,79.1068281 C791.116271,80.0655586 789.896949,81.190668 788.815593,82.4717109 C787.734983,83.7535 786.913898,85.1524258 786.354576,86.674457 L786.354576,101.452336 C787.793898,105.057461 789.996136,108.041836 792.956814,110.403969 C795.920475,112.766848 799.12278,113.950898 802.56522,113.950898 M807.970508,127.646941 C803.00522,127.646941 798.680542,126.542723 795.000949,124.341 C791.316881,122.140023 788.434508,119.155648 786.354576,115.389367 L786.354576,152.033762 L770.259525,152.033762 L770.259525,63.4866094 L784.311932,63.4866094 L784.311932,74.3027305 C786.632,70.6192656 789.634441,67.7132305 793.32,65.5905937 C797.001085,63.4672109 801.24522,62.4055195 806.049424,62.4055195 C810.290576,62.4055195 814.21478,63.2665117 817.818305,64.9884961 C821.419593,66.7104805 824.521966,69.0345625 827.126915,71.95925 C829.724407,74.8846836 831.768542,78.3241758 833.250373,82.2911563 C834.72922,86.2536602 835.472746,90.4407383 835.472746,94.8434375 C835.472746,99.4125156 834.790373,103.697332 833.430847,107.699379 C832.067593,111.705156 830.168136,115.193145 827.725017,118.152898 C825.282644,121.116383 822.380136,123.441211 819.018983,125.123652 C815.657831,126.806094 811.973017,127.646941 807.970508,127.646941" id="Fill-28" fill="#1F8AEC"></path>
            </g>
        </g>
    </g>
</svg>