<?xml version="1.0" encoding="UTF-8"?>
<svg width="364px" height="120px" viewBox="0 0 364 120" version="1.1" xmlns="http://www.w3.org/2000/svg" xmlns:xlink="http://www.w3.org/1999/xlink">
    <!-- Generator: Sketch 45.2 (43514) - http://www.bohemiancoding.com/sketch -->
    <title>Page 1</title>
    <desc>Created with Sketch.</desc>
    <defs>
        <polygon id="path-1" points="54.2789799 87.7852349 0.409449664 87.7852349 0.409449664 0.436026846 54.2789799 0.436026846 54.2789799 87.7852349"></polygon>
        <polygon id="path-3" points="0 119.663356 363.503356 119.663356 363.503356 0 0 0"></polygon>
    </defs>
    <g id="Page-1" stroke="none" stroke-width="1" fill="none" fill-rule="evenodd">
        <g>
            <g id="Group-3" transform="translate(49.127517, 31.878121)">
                <mask id="mask-2" fill="white">
                    <use xlink:href="#path-1"></use>
                </mask>
                <g id="Clip-2"></g>
                <path d="M41.7466309,33.7267651 C40.9227383,35.6089128 39.8048859,37.256698 38.3930738,38.6685101 C36.9812617,40.0811275 35.321396,41.1989799 33.4150872,42.0220671 C31.5095839,42.8467651 29.4728054,43.2575034 27.3087785,43.2575034 C25.1906577,43.2575034 23.1780403,42.8467651 21.2725369,42.0220671 C19.3662282,41.1989799 17.7063624,40.0811275 16.2945503,38.6685101 C14.8827383,37.256698 13.7640805,35.6089128 12.9409933,33.7267651 C12.1171007,31.8446174 11.705557,29.8199195 11.705557,27.6542819 C11.705557,25.490255 12.1171007,23.4663624 12.9409933,21.582604 C13.7640805,19.7012617 14.8827383,18.0526711 16.2945503,16.6408591 C17.7063624,15.229047 19.3662282,14.1111946 21.2725369,13.287302 C23.1780403,12.4642148 25.1906577,12.0518658 27.3087785,12.0518658 C29.4728054,12.0518658 31.5095839,12.4642148 33.4150872,13.287302 C35.321396,14.1111946 36.9812617,15.229047 38.3930738,16.6408591 C39.8048859,18.0526711 40.9227383,19.7012617 41.7466309,21.582604 C42.5689128,23.4663624 42.9820671,25.490255 42.9820671,27.6542819 C42.9820671,29.8199195 42.5689128,31.8446174 41.7466309,33.7267651 M52.5409933,17.0910604 C51.1283758,13.8430067 49.2736107,10.8365638 46.826094,8.38904698 C44.3793826,5.9415302 41.4792483,3.97481879 38.2086443,2.56300671 C34.9372349,1.15119463 31.0609933,0.436026846 27.3442148,0.436026846 C23.6250201,0.436026846 20.0950872,1.46126174 16.8236779,2.87307383 C13.5522685,4.28569128 10.7052886,6.21616107 8.28193289,8.66287248 C5.85696644,11.1103893 3.94018792,13.9573691 2.52757047,17.2062282 C1.11495302,20.4534765 0.409449664,23.936698 0.409449664,27.6542819 C0.409449664,31.3734765 1.11495302,34.8679732 2.52757047,38.1393826 C3.94018792,41.4115973 5.54931544,44.4107919 8.28193289,46.7165638 C10.9138792,48.9385772 13.5522685,51.0945503 16.8236779,52.5063624 C18.1324027,53.0717315 19.4789799,53.5171007 20.8585772,53.8561611 L20.8585772,60.3216644 L9.48032215,60.3216644 L9.48032215,71.8295839 L20.8585772,71.8295839 L20.8585772,87.785557 L32.3664966,87.785557 L32.3664966,71.8295839 L43.4097181,71.8295839 L43.4097181,60.3216644 L32.3664966,60.3216644 L32.3664966,54.1565638 C34.2381745,53.8054228 36.0405906,53.2400537 37.7930738,52.5063624 C40.7004564,51.2894497 43.9235436,49.1648859 46.370255,46.7165638 C48.8169664,44.269047 50.7482416,41.4115973 52.1608591,38.1393826 C53.5734765,34.8679732 54.2789799,31.3734765 54.2789799,27.6542819 C54.2789799,23.936698 53.9536107,20.3383087 52.5409933,17.0910604" id="Fill-1" fill="#9FD7DD" mask="url(#mask-2)"></path>
            </g>
            <path d="M53.7257718,74.1875436 L62.4004027,66.9368054 C61.9179866,66.0235168 61.5265772,65.0764027 61.2366443,64.0882148 C60.681745,62.1939866 60.4932886,60.2353289 60.6688591,58.2122416 C60.8484564,56.1907651 61.4500671,54.2393557 62.4744966,52.3628456 C63.4997315,50.4847248 64.8173154,48.9239195 66.4224161,47.6820403 C68.0291275,46.4393557 69.7783893,45.5397584 71.6710067,44.9840537 C73.5652349,44.428349 75.5343624,44.2447248 77.5775839,44.4339866 C79.62,44.622443 81.5810738,45.2296913 83.4583893,46.2557315 C85.2946309,47.2592215 86.8465772,48.5679463 88.1077852,50.1867383 C89.3714094,51.8031141 90.2814765,53.5596242 90.8363758,55.4522416 C91.3920805,57.3456644 91.5813423,59.3043221 91.4033557,61.3274094 C91.2261745,63.3496913 90.6237584,65.3002953 89.5985235,67.1784161 C89.5075168,67.3443221 89.4020134,67.4949262 89.3069799,67.656 L98.9593289,74.3478121 C99.3410738,73.7598926 99.592349,73.3757315 99.9354362,72.7467383 C101.695973,69.5212349 103.111812,66.0428456 103.406577,62.4968054 C103.695705,59.0063356 103.703758,56.2044564 102.647114,52.160698 C101.786174,48.8675436 100.252752,45.5051275 98.0838926,42.7290201 C97.2157047,41.6208322 95.6991946,39.9867383 94.6626846,39.0396242 L97.1351678,34.5126443 L102.587517,24.5325101 L104.027517,21.8965369 L105.060805,26.0554631 L116.322282,27.5751946 L110.112081,0.000161073826 L81.8436242,8.74324832 L88.7134228,17.1255302 L94.6699329,15.3021745 L92.6065772,19.0809664 L87.1542282,29.0611007 L84.7308725,33.4994899 C82.9405369,32.9172081 80.5598658,32.5733154 78.6889933,32.3993557 C75.1856376,32.0739866 71.9077852,32.5668725 68.4567785,33.8232483 C65.2433557,34.9926443 62.2288591,36.5147919 59.4543624,38.6828456 C56.6798658,40.8508993 54.4393289,43.7864698 52.6779866,47.0111678 C50.9174497,50.2350604 49.8793289,53.5910336 49.5644295,57.0766711 C49.2511409,60.5623087 49.5773154,63.9456644 50.5389262,67.2275436 C51.262953,69.6903624 52.3252349,72.0098255 53.7257718,74.1875436" id="Fill-4" fill="#F6B518"></path>
            <path d="M80.2954631,43.9079195 C82.2235168,44.3275168 84.0323758,45.0998658 85.7220403,46.2265772 C87.4117047,47.3516779 88.8347919,48.8158389 89.9904966,50.6166443 C90.689557,51.7055034 91.2170738,52.837047 91.610094,54.0024161 L101.81251,49.3256376 C101.178685,47.7012081 100.370094,46.1218792 99.3851275,44.5868456 C97.3990872,41.4934228 94.9467383,38.9645638 92.0264698,36.9986577 C89.1062013,35.0311409 85.9845906,33.6765101 82.662443,32.9371812 C79.3402953,32.1946309 75.9432483,32.1100671 72.4680805,32.6826846 C71.0788188,32.9114094 69.7209664,33.2585235 68.3929128,33.7127517 L66.3376107,30.5122148 L78.0460671,23.3251007 L73.6165369,16.1097987 L61.8750604,23.5369128 L58.7985503,18.7667114 L57.1757315,16.2394631 L61.3209664,17.3275168 L68.0554631,8.17449664 L40.8815034,0.398657718 L34.994255,29.3967785 L45.6460671,27.3889933 L46.902443,21.2875168 L49.228349,24.9108725 L52.2621745,29.5771812 L42.5574765,35.4483221 L46.865396,42.4655034 L56.6441879,36.4622819 L58.4433826,39.2649664 C57.074255,40.5567785 55.8508993,42.1449664 54.8023087,43.7025503 C54.2997584,44.4483221 53.5306309,45.4783893 53.1086174,46.2515436 L63.2449933,52.0292617 C63.5494228,51.4268456 63.8804295,50.834094 64.2678121,50.258255 C65.413047,48.5548993 66.8868725,47.1253691 68.6868725,45.9704698 C70.4490201,44.8405369 72.3408322,44.107651 74.3655302,43.7758389 C76.3910336,43.4424161 78.3674094,43.4867114 80.2954631,43.9079195" id="Fill-6" fill="#D6DE23"></path>
            <path d="M34.4861477,40.0635705 L34.4861477,47.8780671 C30.6735302,44.6888054 26.7280268,43.0933691 22.6512483,43.0933691 C18.1588993,43.0933691 14.3736644,44.7073289 11.2971544,47.934443 C8.20131544,51.1438389 6.65339597,55.0700134 6.65339597,59.7129664 C6.65339597,64.300349 8.20131544,68.1693423 11.2971544,71.3223624 C14.3929933,74.4745772 18.1870872,76.0506846 22.6794362,76.0506846 C25.0013154,76.0506846 26.9728591,75.6729664 28.5972886,74.9175302 C29.5033289,74.5406174 30.4415839,74.0308188 31.4144698,73.3889396 C32.3865503,72.7478658 33.4101745,71.9731007 34.4861477,71.0670604 L34.4861477,79.023302 C30.7105772,81.1567248 26.7465503,82.2230336 22.5940671,82.2230336 C16.3468188,82.2230336 11.0136644,80.0428993 6.59702013,75.6826309 C2.19889933,71.2845101 0.000241610738,65.980349 0.000241610738,59.7701477 C0.000241610738,54.2018255 1.84051007,49.2375302 5.52104698,44.8772617 C10.0512483,39.5352483 15.9127248,36.8638389 23.1038658,36.8638389 C27.0300403,36.8638389 30.8241342,37.930953 34.4861477,40.0635705" id="Fill-8" fill="#D91C5B"></path>
            <path d="M64.1495034,59.5689664 C64.1495034,61.3085638 64.4772886,62.9128591 65.1352752,64.3818523 C65.7924564,65.851651 66.6807785,67.1273557 67.8026577,68.2089664 C68.9237315,69.2913826 70.2284295,70.1321879 71.7167517,70.7313826 C73.2042685,71.3313826 74.7803758,71.6301745 76.4426577,71.6301745 C78.1041342,71.6301745 79.6802416,71.3313826 81.1685638,70.7313826 C82.6560805,70.1321879 83.9712483,69.2913826 85.111651,68.2089664 C86.2512483,67.1273557 87.1500403,65.851651 87.8080268,64.3818523 C88.4644027,62.9128591 88.7937987,61.3085638 88.7937987,59.5689664 C88.7937987,57.8293691 88.4644027,56.2258792 87.8080268,54.7560805 C87.1500403,53.2870872 86.2512483,52.0113826 85.111651,50.9289664 C83.9712483,49.8473557 82.6560805,49.0065503 81.1685638,48.4065503 C79.6802416,47.8073557 78.1041342,47.5077584 76.4426577,47.5077584 C74.7803758,47.5077584 73.2042685,47.8073557 71.7167517,48.4065503 C70.2284295,49.0065503 68.9237315,49.8473557 67.8026577,50.9289664 C66.6807785,52.0113826 65.7924564,53.2870872 65.1352752,54.7560805 C64.4772886,56.2258792 64.1495034,57.8293691 64.1495034,59.5689664 M52.262255,59.5689664 C52.262255,56.3217181 52.8606443,53.297557 54.0598389,50.4940671 C55.2574228,47.6913826 56.9197047,45.2462819 59.0466846,43.1587651 C61.1720537,41.0712483 63.714604,39.4387651 66.6719195,38.2588993 C69.6292349,37.0806443 72.8853423,36.4903087 76.4426577,36.4903087 C79.9597047,36.4903087 83.206953,37.0806443 86.1844027,38.2588993 C89.161047,39.4387651 91.7221208,41.0712483 93.8676242,43.1587651 C96.0131275,45.2462819 97.6850738,47.6913826 98.8834631,50.4940671 C100.081047,53.297557 100.681047,56.3217181 100.681047,59.5689664 C100.681047,62.8162148 100.081047,65.8419866 98.8834631,68.6438658 C97.6850738,71.4473557 96.0131275,73.891651 93.8676242,75.9791678 C91.7221208,78.0666846 89.161047,79.7007785 86.1844027,80.8790336 C83.206953,82.058094 79.9597047,82.6476242 76.4426577,82.6476242 C72.8853423,82.6476242 69.6292349,82.058094 66.6719195,80.8790336 C63.714604,79.7007785 61.1720537,78.0666846 59.0466846,75.9791678 C56.9197047,73.891651 55.2574228,71.4473557 54.0598389,68.6438658 C52.8606443,65.8419866 52.262255,62.8162148 52.262255,59.5689664" id="Fill-10" fill="#D91C5B"></path>
            <path d="M123.984,75.2292081 L126.956617,75.2292081 C129.920376,75.2292081 132.383195,74.9175302 134.346685,74.2949799 C136.310174,73.6345772 138.084403,72.5867919 139.670174,71.1524295 C142.915812,68.1886711 144.539436,64.3285369 144.539436,59.5720268 C144.539436,54.7768591 142.935141,50.8893423 139.72655,47.906255 C136.838497,45.2453154 132.581315,43.9140403 126.956617,43.9140403 L123.984,43.9140403 L123.984,75.2292081 Z M117.387221,81.429745 L117.387221,37.7135034 L126.560376,37.7135034 C130.958497,37.7135034 134.432054,38.1484027 136.980242,39.0157852 C139.716886,39.8654497 142.199034,41.3094765 144.426685,43.3478658 C148.937557,47.463302 151.193396,52.8713557 151.193396,59.5720268 C151.193396,66.2920268 148.843329,71.7282685 144.143195,75.8807517 C141.783463,77.9569933 139.31098,79.4010201 136.72494,80.2120268 C134.308832,81.0238389 130.882792,81.429745 126.447624,81.429745 L117.387221,81.429745 Z" id="Fill-12" fill="#D91C5B"></path>
            <path d="M190.798148,64.6115436 L184.314121,49.7468456 L177.519221,64.6115436 L190.798148,64.6115436 Z M193.488081,70.8120805 L174.772913,70.8120805 L169.902846,81.4300671 L162.795463,81.4300671 L184.427678,34.9667114 L205.294792,81.4300671 L198.074658,81.4300671 L193.488081,70.8120805 Z" id="Fill-14" fill="#D91C5B"></path>
            <polygon id="Fill-16" fill="#D91C5B" points="218.08945 81.4299866 227.291597 34.4294497 242.29804 68.405557 257.84247 34.4294497 266.109584 81.4299866 259.342872 81.4299866 255.124349 55.0412617 242.184483 83.4401879 229.613477 55.0130738 224.913342 81.4299866"></polygon>
            <path d="M284.674389,59.4584698 C284.674389,64.2906846 286.298013,68.2643758 289.544456,71.3787383 C292.772376,74.4931007 296.50043,76.0506846 300.728617,76.0506846 C305.315195,76.0506846 309.184993,74.4649128 312.337208,71.2933691 C315.489423,68.0847785 317.06553,64.1771275 317.06553,59.5720268 C317.06553,54.909745 315.507946,51.002094 312.393584,47.8498792 C309.297745,44.6783356 305.465799,43.0933691 300.89855,43.0933691 C296.34902,43.0933691 292.508215,44.6783356 289.374523,47.8498792 C286.240832,50.9835705 284.674389,54.8533691 284.674389,59.4584698 M278.02043,59.373906 C278.02043,53.2200805 280.276268,47.934443 284.787946,43.5177987 C289.280295,39.1011544 294.678685,36.8920268 300.983114,36.8920268 C307.211839,36.8920268 312.553852,39.1196779 317.008349,43.5741745 C321.482174,48.0294765 323.718685,53.3811544 323.718685,59.6284027 C323.718685,65.9143087 321.47251,71.2466577 316.980161,75.6254497 C312.469289,80.0243758 307.023383,82.2230336 300.643248,82.2230336 C294.999221,82.2230336 289.931034,80.2692081 285.438685,76.361557 C280.493718,72.0399463 278.02043,66.3765906 278.02043,59.373906" id="Fill-18" fill="#D91C5B"></path>
            <path d="M362.370523,44.2256376 L357.018846,47.3971812 C356.018577,45.66 355.065826,44.527651 354.159785,43.9993289 C353.215893,43.395302 351.998174,43.0932886 350.507436,43.0932886 C348.676027,43.0932886 347.156295,43.6127517 345.948242,44.6500671 C344.740188,45.6696644 344.136161,46.9534228 344.136161,48.5013423 C344.136161,50.6347651 345.721933,52.3518121 348.893477,53.654094 L353.253745,55.4379866 C356.802201,56.872349 359.397906,58.6232215 361.040054,60.6897987 C362.682201,62.7571812 363.502872,65.2908725 363.502872,68.2924832 C363.502872,72.3128859 362.162738,75.6350336 359.48247,78.2589262 C356.783678,80.9021477 353.432537,82.222953 349.431463,82.222953 C345.637369,82.222953 342.503678,81.1002685 340.031195,78.8532886 C337.595758,76.6071141 336.076832,73.4452349 335.472805,69.3684564 L342.154148,67.8962416 C342.456161,70.462953 342.985289,72.2379866 343.739919,73.2189262 C345.099383,75.1067114 347.081396,76.050604 349.68596,76.050604 C351.743678,76.050604 353.451866,75.3612081 354.810523,73.9832215 C356.169987,72.6060403 356.849718,70.8591946 356.849718,68.7451007 C356.849718,67.8962416 356.731329,67.1174497 356.495356,66.4095302 C356.259383,65.7016107 355.891329,65.0500671 355.391195,64.4557047 C354.89106,63.8613423 354.244349,63.3048322 353.451866,62.7853691 C352.658577,62.265906 351.71549,61.770604 350.620188,61.2986577 L346.401664,59.5437584 C340.417772,57.014094 337.425826,53.3142282 337.425826,48.4441611 C337.425826,45.1598658 338.681396,42.413557 341.191732,40.2052349 C343.702067,37.9783893 346.826094,36.8637584 350.563812,36.8637584 C355.603812,36.8637584 359.538846,39.3177181 362.370523,44.2256376" id="Fill-20" fill="#D91C5B"></path>
            <mask id="mask-4" fill="white">
                <use xlink:href="#path-3"></use>
            </mask>
            <g id="Clip-23"></g>
            <path d="M68.572349,62.9138255 L83.6496644,62.9138255 L83.6496644,60.5073826 L68.572349,60.5073826 L68.572349,62.9138255 Z M68.572349,58.3272483 L83.6496644,58.3272483 L83.6496644,55.9208054 L68.572349,55.9208054 L68.572349,58.3272483 Z" id="Fill-22" fill="#D91C5B" mask="url(#mask-4)"></path>
            <path d="M70.3266846,46.373557 C71.4759463,45.3402685 71.5693691,43.5716779 70.5368859,42.4224161 C69.5035973,41.2731544 67.7350067,41.1797315 66.585745,42.2122148 C65.4372886,43.2463087 65.3438658,45.014094 66.376349,46.1633557 C67.4096376,47.3118121 69.1774228,47.4060403 70.3266846,46.373557" id="Fill-24" fill="#F0F0F1" mask="url(#mask-4)"></path>
            <path d="M64.4735839,47.2269262 C65.0123758,46.7428993 65.0566711,45.9125638 64.5718389,45.3745772 C64.0878121,44.8357852 63.2566711,44.7922953 62.7202953,45.2755168 C62.180698,45.7595436 62.1364027,46.5890738 62.6212349,47.1286711 C63.1060671,47.6666577 63.9355973,47.7117584 64.4735839,47.2269262" id="Fill-25" fill="#F0F0F1" mask="url(#mask-4)"></path>
        </g>
    </g>
</svg>