<?xml version="1.0" encoding="UTF-8"?>
<svg width="334px" height="120px" viewBox="0 0 334 120" version="1.1" xmlns="http://www.w3.org/2000/svg" xmlns:xlink="http://www.w3.org/1999/xlink">
    <!-- Generator: Sketch 45.2 (43514) - http://www.bohemiancoding.com/sketch -->
    <title>gdgvaledoparaiba</title>
    <desc>Created with Sketch.</desc>
    <defs>
        <polygon id="path-1" points="0 119.302326 333.054767 119.302326 333.054767 0.0474418605 0 0.0474418605"></polygon>
    </defs>
    <g id="Page-1" stroke="none" stroke-width="1" fill="none" fill-rule="evenodd">
        <g id="gdgvaledoparaiba">
            <g id="Vale-do-Paraíba" transform="translate(0.000000, 0.301395)">
                <polygon id="Fill-29" fill="#787979" points="118.709058 115.187477 118.847198 115.690849 118.988826 115.187477 126.461616 94.3758488 128.657547 94.3758488 119.820802 118.12364 117.891384 118.12364 109.053593 94.3758488 111.2415 94.3758488"></polygon>
                <path d="M135.949605,116.721488 C137.256,116.721488 138.421814,116.409628 139.459605,115.77893 C140.481698,115.147186 141.224023,114.307186 141.692512,113.247419 L141.692512,109.372535 L138.198209,109.372535 C136.255535,109.388581 134.732512,109.73986 133.64414,110.435093 C132.537279,111.120558 131.986116,112.074279 131.986116,113.279512 C131.986116,114.270209 132.353791,115.096953 133.089837,115.746837 C133.828326,116.399163 134.778907,116.721488 135.949605,116.721488 L135.949605,116.721488 Z M142.087047,118.123814 C141.895186,117.572302 141.764721,116.749744 141.71414,115.664512 C141.03286,116.551256 140.152395,117.239512 139.092279,117.729628 C138.030767,118.211372 136.910651,118.451372 135.728442,118.451372 C134.022628,118.451372 132.654488,117.977302 131.605884,117.034047 C130.555186,116.087651 130.038907,114.889395 130.038907,113.443814 C130.038907,111.725093 130.74914,110.362535 132.181465,109.372186 C133.60786,108.366837 135.598326,107.863116 138.153558,107.863116 L141.69286,107.863116 L141.69286,105.856605 C141.69286,104.595907 141.303907,103.607302 140.532628,102.88207 C139.75507,102.157884 138.616116,101.800674 137.130767,101.800674 C135.773791,101.800674 134.637628,102.144279 133.754023,102.844744 C132.862047,103.538233 132.409953,104.374395 132.409953,105.350442 L130.454023,105.337186 C130.454023,103.929977 131.108442,102.719163 132.409953,101.688698 C133.716349,100.662419 135.331814,100.148233 137.22914,100.148233 C139.195884,100.148233 140.750302,100.643581 141.884372,101.630093 C143.020884,102.607884 143.601,103.98614 143.633093,105.747767 L143.633093,114.094395 C143.633093,115.805442 143.816581,117.079744 144.176233,117.926721 L144.176233,118.123465 L142.087047,118.123465 L142.087047,118.123814 Z" id="Fill-31" fill="#787979"></path>
                <mask id="mask-2" fill="white">
                    <use xlink:href="#path-1"></use>
                </mask>
                <g id="Clip-34"></g>
                <polygon id="Fill-33" fill="#787979" mask="url(#mask-2)" points="149.067558 118.123605 151.02907 118.123605 151.02907 93.0725581 149.067558 93.0725581"></polygon>
                <path d="M162.802919,101.81686 C161.339547,101.81686 160.093151,102.351977 159.092686,103.426744 C158.091872,104.505349 157.477221,105.950233 157.256756,107.762442 L167.846058,107.762442 L167.846058,107.554535 C167.789895,105.857093 167.302919,104.476047 166.389314,103.413488 C165.480593,102.351977 164.279547,101.81686 162.802919,101.81686 M163.16257,118.451512 C161.661174,118.451512 160.308733,118.078256 159.093035,117.346395 C157.873849,116.601628 156.934779,115.571163 156.266756,114.256744 C155.588267,112.928023 155.252337,111.448256 155.252337,109.80907 L155.252337,109.106163 C155.252337,107.408023 155.585826,105.880814 156.248267,104.524186 C156.894663,103.161628 157.815244,102.093488 158.989081,101.31593 C160.165012,100.539419 161.432686,100.148372 162.802919,100.148372 C164.943384,100.148372 166.6485,100.883023 167.90536,102.347093 C169.163616,103.804884 169.786988,105.800581 169.786988,108.337674 L169.786988,109.433721 L157.192919,109.433721 L157.192919,109.80907 C157.192919,111.802674 157.76257,113.476395 158.914779,114.806512 C160.064547,116.141163 161.507337,116.805349 163.239663,116.805349 C164.281988,116.805349 165.209198,116.617674 166.009081,116.233953 C166.808267,115.850233 167.532105,115.242907 168.189314,114.402907 L169.405709,115.336395 C167.968151,117.415116 165.890128,118.451512 163.16257,118.451512" id="Fill-35" fill="#787979" mask="url(#mask-2)"></path>
                <path d="M182.902256,109.479 C182.902256,111.730395 183.354349,113.505628 184.246326,114.806093 C185.153651,116.10586 186.431442,116.754349 188.07307,116.754349 C190.471326,116.754349 192.185163,115.690744 193.192953,113.574698 L193.192953,105.286674 C192.185163,102.990977 190.490163,101.842953 188.102372,101.842953 C186.460744,101.842953 185.182953,102.493186 184.275628,103.783535 C183.354349,105.069698 182.902256,106.970163 182.902256,109.479 L182.902256,109.479 Z M180.932721,109.137837 C180.932721,106.39807 181.53586,104.215047 182.766209,102.586326 C183.98714,100.963535 185.642721,100.148651 187.745512,100.148651 C190.130163,100.148651 191.945163,101.091209 193.192256,102.973186 L193.192256,93.0724884 L195.135279,93.0724884 L195.135279,118.123535 L193.304233,118.123535 L193.221558,115.779 C191.965744,117.559116 190.130163,118.451442 187.707488,118.451442 C185.669233,118.451442 184.042953,117.630628 182.792721,115.999814 C181.554349,114.363767 180.932721,112.146209 180.932721,109.372256 L180.932721,109.137837 Z" id="Fill-36" fill="#787979" mask="url(#mask-2)"></path>
                <path d="M201.145012,109.580547 C201.145012,111.68857 201.699663,113.417756 202.786988,114.771244 C203.884779,116.128221 205.316058,116.806012 207.08536,116.806012 C208.852919,116.806012 210.27443,116.128221 211.373267,114.771244 C212.460942,113.417756 213.012802,111.632407 213.012802,109.414849 L213.012802,109.042291 C213.012802,107.687756 212.762337,106.461942 212.254081,105.337988 C211.767105,104.221012 211.058965,103.349965 210.162453,102.732872 C209.251988,102.120314 208.221872,101.816826 207.056058,101.816826 C205.316058,101.816826 203.895244,102.498453 202.797802,103.861012 C201.701756,105.226012 201.14536,107.012756 201.14536,109.218105 L201.14536,109.580547 L201.145012,109.580547 Z M199.199895,109.042291 C199.199895,107.338919 199.524663,105.817291 200.190593,104.457174 C200.836291,103.103337 201.765593,102.037988 202.965593,101.284151 C204.179547,100.529267 205.536872,100.148337 207.056058,100.148337 C209.40164,100.148337 211.309779,100.976477 212.765128,102.624035 C214.229198,104.270895 214.949895,106.450779 214.949895,109.169965 L214.949895,109.580547 C214.949895,111.28357 214.62757,112.819849 213.965477,114.18764 C213.303384,115.552291 212.376523,116.601942 211.186988,117.346709 C209.981756,118.07857 208.618849,118.451826 207.08536,118.451826 C204.754081,118.451826 202.853616,117.62857 201.390244,115.981709 C199.929663,114.3345 199.200244,112.146244 199.200244,109.433686 L199.200244,109.042291 L199.199895,109.042291 Z" id="Fill-37" fill="#787979" mask="url(#mask-2)"></path>
                <path d="M229.569105,106.757128 L235.655965,106.757128 C237.598291,106.757128 239.083291,106.297012 240.108174,105.369453 C241.122244,104.443988 241.640965,103.153291 241.640965,101.500151 C241.640965,99.8473605 241.125035,98.5409651 240.110965,97.566314 C239.096895,96.5955 237.654105,96.0949186 235.7805,96.0708488 L229.569105,96.0708488 L229.569105,106.757128 Z M229.569105,108.457709 L229.569105,118.12364 L227.559802,118.12364 L227.559802,94.3758488 L235.655965,94.3758488 C238.11736,94.3758488 240.070849,95.0072442 241.499686,96.2686395 C242.937942,97.5289884 243.642244,99.263407 243.642244,101.47364 C243.642244,103.698523 242.958523,105.420035 241.58236,106.637477 C240.212128,107.8455 238.216081,108.458058 235.6005,108.458058 L229.569105,108.458058 L229.569105,108.457709 Z" id="Fill-38" fill="#787979" mask="url(#mask-2)"></path>
                <path d="M252.502779,116.721488 C253.809174,116.721488 254.972198,116.409628 256.005105,115.77893 C257.034174,115.147186 257.779988,114.307186 258.243244,113.247419 L258.243244,109.372535 L254.751035,109.372535 C252.80557,109.388581 251.290919,109.73986 250.187198,110.435093 C249.087663,111.120558 248.545221,112.074279 248.545221,113.279512 C248.545221,114.270209 248.904174,115.096953 249.641267,115.746837 C250.378709,116.399163 251.328593,116.721488 252.502779,116.721488 L252.502779,116.721488 Z M258.637081,118.123814 C258.442081,117.572302 258.315453,116.749744 258.259291,115.664512 C257.577663,116.551256 256.707663,117.239512 255.645453,117.729628 C254.583244,118.211372 253.46557,118.451372 252.271151,118.451372 C250.581035,118.451372 249.19964,117.977302 248.159058,117.034047 C247.107663,116.087651 246.575686,114.889395 246.575686,113.443814 C246.575686,111.725093 247.298826,110.362535 248.729058,109.372186 C250.155453,108.366837 252.1515,107.863116 254.703244,107.863116 L258.243244,107.863116 L258.243244,105.856605 C258.243244,104.595907 257.857081,103.607302 257.079523,102.88207 C256.305453,102.157884 255.166151,101.800674 253.675919,101.800674 C252.313709,101.800674 251.194988,102.144279 250.293593,102.844744 C249.404058,103.538233 248.968012,104.374395 248.968012,105.350442 L247.0065,105.337186 C247.0065,103.929977 247.650453,102.719163 248.968012,101.688698 C250.269523,100.662419 251.871035,100.148233 253.771849,100.148233 C255.744174,100.148233 257.295453,100.643581 258.437198,101.630093 C259.571267,102.607884 260.154523,103.98614 260.181035,105.747767 L260.181035,114.094395 C260.181035,115.805442 260.364523,117.079744 260.721035,117.926721 L260.721035,118.123465 L258.637081,118.123465 L258.637081,118.123814 Z" id="Fill-39" fill="#787979" mask="url(#mask-2)"></path>
                <path d="M273.548826,102.139116 C273.125337,102.064116 272.688593,102.024698 272.223244,102.024698 C271.00964,102.024698 269.980221,102.365163 269.130802,103.047488 C268.289756,103.722488 267.68557,104.715977 267.326267,106.005977 L267.326267,118.123186 L265.386035,118.123186 L265.386035,100.478302 L267.299058,100.478302 L267.325919,103.280163 C268.358477,101.197256 270.024523,100.147605 272.305221,100.147605 C272.848012,100.147605 273.276733,100.219465 273.593477,100.358651 L273.548826,102.139116 Z" id="Fill-40" fill="#787979" mask="url(#mask-2)"></path>
                <path d="M280.984465,116.721488 C282.285628,116.721488 283.45807,116.409628 284.486791,115.77893 C285.504349,115.147186 286.251558,114.307186 286.728419,113.247419 L286.728419,109.372535 L283.228884,109.372535 C281.28307,109.388581 279.760395,109.73986 278.671674,110.435093 C277.571093,111.120558 277.022372,112.074279 277.022372,113.279512 C277.022372,114.270209 277.386907,115.096953 278.118419,115.746837 C278.857953,116.399163 279.807837,116.721488 280.984465,116.721488 L280.984465,116.721488 Z M287.119116,118.123814 C286.924465,117.572302 286.791558,116.749744 286.740628,115.664512 C286.059698,116.551256 285.190047,117.239512 284.121558,117.729628 C283.062837,118.211372 281.93714,118.451372 280.755628,118.451372 C279.060279,118.451372 277.679233,117.977302 276.641093,117.034047 C275.592837,116.087651 275.060512,114.889395 275.060512,113.443814 C275.060512,111.725093 275.779116,110.362535 277.208302,109.372186 C278.634698,108.366837 280.630047,107.863116 283.180047,107.863116 L286.72807,107.863116 L286.72807,105.856605 C286.72807,104.595907 286.330395,103.607302 285.554233,102.88207 C284.779465,102.157884 283.648535,101.800674 282.157605,101.800674 C280.800977,101.800674 279.670047,102.144279 278.783302,102.844744 C277.892023,103.538233 277.447605,104.374395 277.447605,105.350442 L275.491674,105.337186 C275.491674,103.929977 276.135977,102.719163 277.447605,101.688698 C278.749116,100.662419 280.342605,100.148233 282.253884,100.148233 C284.22307,100.148233 285.774698,100.643581 286.922023,101.630093 C288.047721,102.607884 288.630628,103.98614 288.673186,105.747767 L288.673186,114.094395 C288.673186,115.805442 288.843767,117.079744 289.203767,117.926721 L289.203767,118.123465 L287.119116,118.123465 L287.119116,118.123814 Z" id="Fill-41" fill="#787979" mask="url(#mask-2)"></path>
                <path d="M294.057209,118.123605 L296.01593,118.123605 L296.01593,100.478721 L294.057209,100.478721 L294.057209,118.123605 Z M297.030349,93.4636047 L299.398605,93.4636047 L295.635698,98.0110465 L293.924302,98.0030233 L297.030349,93.4636047 Z" id="Fill-42" fill="#787979" mask="url(#mask-2)"></path>
                <path d="M313.55714,109.138012 C313.55714,106.810221 313.108186,105.011267 312.202605,103.746384 C311.299814,102.480105 310.029,101.843477 308.389465,101.843477 C307.135744,101.843477 306.076326,102.152547 305.206326,102.770337 C304.34086,103.3815 303.683302,104.284291 303.233651,105.465453 L303.233651,113.425919 C304.213884,115.64557 305.937837,116.754872 308.418767,116.754872 C310.028651,116.754872 311.284116,116.11964 312.19493,114.843942 C313.107488,113.575221 313.55714,111.669523 313.55714,109.138012 L313.55714,109.138012 Z M315.518651,109.479174 C315.518651,112.233593 314.906791,114.416267 313.690744,116.0265 C312.47714,117.647547 310.832023,118.451267 308.782605,118.451267 C306.316326,118.451267 304.466442,117.535221 303.199465,115.709756 L303.114,118.123709 L301.291326,118.123709 L301.291326,93.072314 L303.233651,93.072314 L303.233651,103.036849 C304.468884,101.115105 306.310744,100.148128 308.749116,100.148128 C310.832023,100.148128 312.488302,100.950105 313.69807,102.541151 C314.906791,104.132547 315.518651,106.349756 315.518651,109.188942 L315.518651,109.479174 Z" id="Fill-43" fill="#787979" mask="url(#mask-2)"></path>
                <path d="M324.833023,116.721488 C326.135581,116.721488 327.303488,116.409628 328.333256,115.77893 C329.360581,115.147186 330.105698,114.307186 330.579419,113.247419 L330.579419,109.372535 L327.077093,109.372535 C325.136512,109.388581 323.617674,109.73986 322.51814,110.435093 C321.416163,111.120558 320.871279,112.074279 320.871279,113.279512 C320.871279,114.270209 321.232674,115.096953 321.969767,115.746837 C322.696395,116.399163 323.646977,116.721488 324.833023,116.721488 L324.833023,116.721488 Z M330.970465,118.123814 C330.760116,117.572302 330.643256,116.749744 330.587093,115.664512 C329.90407,116.551256 329.030581,117.239512 327.96907,117.729628 C326.908953,118.211372 325.789186,118.451372 324.602093,118.451372 C322.906744,118.451372 321.533372,117.977302 320.490349,117.034047 C319.433721,116.087651 318.904186,114.889395 318.904186,113.443814 C318.904186,111.725093 319.627674,110.362535 321.048837,109.372186 C322.481163,108.366837 324.47686,107.863116 327.028953,107.863116 L330.579767,107.863116 L330.579767,105.856605 C330.579767,104.595907 330.191163,103.607302 329.406279,102.88207 C328.623488,102.157884 327.497791,101.800674 326.005116,101.800674 C324.642558,101.800674 323.518953,102.144279 322.627674,102.844744 C321.744419,103.538233 321.285698,104.374395 321.285698,105.350442 L319.332209,105.337186 C319.332209,103.929977 319.982093,102.719163 321.285698,101.688698 C322.592791,100.662419 324.192558,100.148233 326.101047,100.148233 C328.070581,100.148233 329.622209,100.643581 330.760116,101.630093 C331.889651,102.607884 332.477442,103.98614 332.511628,105.747767 L332.511628,114.094395 C332.511628,115.805442 332.689884,117.079744 333.054767,117.926721 L333.054767,118.123465 L330.970465,118.123465 L330.970465,118.123814 Z" id="Fill-44" fill="#787979" mask="url(#mask-2)"></path>
            </g>
            <g id="GDG" transform="translate(109.883721, 1.046512)" fill="#787979">
                <path d="M222.604291,34.9081744 L187.941733,34.9081744 L187.941733,45.6422442 L212.379174,45.6422442 C211.577895,51.1193372 209.675337,55.3842209 206.835453,58.2373605 C203.218709,61.8582907 197.554291,65.8427093 187.633709,65.8427093 C172.319407,65.8427093 160.345919,53.5029419 160.345919,38.1991047 C160.345919,22.8900349 172.319058,10.5464302 187.633709,10.5464302 C195.883012,10.5464302 201.916849,13.7982907 206.370105,17.9707326 L213.699174,10.6420116 C207.484988,4.69852326 199.229407,0.154918605 187.633709,0.154918605 C166.666849,0.154918605 149.037314,17.2256163 149.037314,38.1991047 C149.037314,59.1631744 166.6665,76.238407 187.633709,76.238407 C198.944407,76.238407 207.48464,72.5316628 214.15964,65.5723605 C221.030686,58.7027093 223.170802,49.0542209 223.170802,41.2587558 C223.170802,38.8427093 222.986965,36.7636395 222.604291,34.9081744" id="G"></path>
                <path d="M105.441663,63.3778953 C121.210849,63.3778953 130.988407,54.6266163 130.988407,38.1897558 C130.988407,21.8449884 121.210849,12.9967326 105.441663,12.9967326 L93.7528256,12.9967326 L93.7528256,63.3778953 L105.441663,63.3778953 Z M82.8014302,2.04533721 L105.053058,2.04533721 C127.709686,2.04533721 141.93736,17.0878953 141.93736,38.1897558 C141.93736,59.388593 127.699221,74.3327791 105.053058,74.3327791 L82.8014302,74.3327791 L82.8014302,2.04533721 Z" id="D"></path>
                <path d="M73.6562442,34.9081744 L38.9891512,34.9081744 L38.9891512,45.6422442 L63.4311279,45.6422442 C62.6225233,51.1193372 60.7276395,55.3842209 57.8825233,58.2373605 C54.257407,61.8582907 48.6048488,65.8427093 38.6748488,65.8427093 C23.3727558,65.8427093 11.3989186,53.5029419 11.3989186,38.1991047 C11.3989186,22.8900349 23.3727558,10.5464302 38.6748488,10.5464302 C46.9283372,10.5464302 52.9649651,13.7982907 57.4199651,17.9707326 L64.7490349,10.6420116 C58.5372907,4.69852326 50.2810116,0.154918605 38.6748488,0.154918605 C17.708686,0.154918605 0.0795,17.2256163 0.0795,38.1991047 C0.0795,59.1631744 17.708686,76.238407 38.6751977,76.238407 C49.9970581,76.238407 58.5372907,72.5316628 65.2126395,65.5723605 C72.0788023,58.7027093 74.2157791,49.0542209 74.2157791,41.2587558 C74.2157791,38.8427093 74.0319419,36.7636395 73.6562442,34.9081744" id="G"></path>
            </g>
            <g id="Icon" transform="translate(0.000000, 0.301395)">
                <polygon id="Yellow" fill="#FCC013" points="21.4354884 119.302326 41.7943256 119.302326 55.3839767 95.7994186 55.1132791 95.329186 45.2094419 78.2023256"></polygon>
                <polygon id="Green" fill="#0F9D58" points="0 119.302326 21.4353488 119.302326 45.2096512 78.2023256 34.4912791 59.6752326"></polygon>
                <polygon id="Blue" fill="#557DBE" points="0 0.0474069767 55.3838372 95.7993837 66.0903488 77.2872907 66.1015116 77.2684535 21.4353488 0.0474069767"></polygon>
                <path d="M73.0441047,65.268 C75.0457326,61.8085814 75.0457326,57.5489302 73.0441047,54.0867209 L41.7945698,0.0476511628 L21.4353837,0.0476511628 L66.1015465,77.268 L73.0441047,65.268 Z" id="Red" fill="#DA4536"></path>
            </g>
        </g>
    </g>
</svg>