<?xml version="1.0" encoding="UTF-8"?>
<svg width="659px" height="192px" viewBox="0 0 659 192" version="1.1" xmlns="http://www.w3.org/2000/svg" xmlns:xlink="http://www.w3.org/1999/xlink">
    <!-- Generator: Sketch 45.2 (43514) - http://www.bohemiancoding.com/sketch -->
    <title>quero-educacao</title>
    <desc>Created with Sketch.</desc>
    <defs></defs>
    <g id="Page-1" stroke="none" stroke-width="1" fill="none" fill-rule="evenodd">
        <g id="quero-educacao" transform="translate(0.000000, -0.001226)" fill-rule="nonzero">
            <path d="M262.24849,165.022041 C262.24849,166.757878 263.165388,167.670857 264.901224,167.670857 L281.852082,167.670857 C283.584,167.670857 284.500898,166.757878 284.500898,165.022041 L284.500898,163.094204 C284.500898,161.362286 283.584,160.445388 281.852082,160.445388 L270.676898,160.445388 L270.676898,153.940898 L278.529306,153.940898 C280.261224,153.940898 281.178122,153.024 281.178122,151.292082 L281.178122,149.364245 C281.178122,147.628408 280.261224,146.715429 278.529306,146.715429 L270.676898,146.715429 L270.676898,140.449959 L281.178122,140.449959 C282.910041,140.449959 283.826939,139.53698 283.826939,137.801143 L283.826939,135.873306 C283.826939,134.141388 282.910041,133.22449 281.178122,133.22449 L264.901224,133.22449 C263.165388,133.22449 262.24849,134.141388 262.24849,135.873306 L262.24849,165.022041 L262.24849,165.022041 Z M307.102041,165.022041 C307.102041,166.757878 308.018939,167.670857 309.750857,167.670857 L319.335184,167.670857 C330.173388,167.670857 337.108898,161.217306 337.108898,150.375184 C337.108898,139.53698 330.173388,133.22449 319.335184,133.22449 L309.750857,133.22449 C308.018939,133.22449 307.102041,134.141388 307.102041,135.873306 L307.102041,165.022041 Z M315.530449,160.445388 L315.530449,140.449959 L318.998204,140.449959 C324.679837,140.449959 328.390531,143.823673 328.390531,150.375184 C328.390531,156.977633 324.824816,160.445388 318.998204,160.445388 L315.530449,160.445388 Z M359.612082,155.002776 C359.612082,162.757224 365.293714,168.250776 374.059102,168.250776 C382.730449,168.250776 388.412082,162.757224 388.412082,155.002776 L388.412082,135.873306 C388.412082,134.141388 387.499102,133.22449 385.763265,133.22449 L382.63249,133.22449 C380.900571,133.22449 379.983673,134.141388 379.983673,135.873306 L379.983673,155.002776 C379.983673,158.61551 377.624816,160.543347 374.012082,160.543347 C370.399347,160.543347 368.04049,158.61551 368.04049,155.002776 L368.04049,135.873306 C368.04049,134.141388 367.123592,133.22449 365.391673,133.22449 L362.260898,133.22449 C360.52898,133.22449 359.612082,134.141388 359.612082,135.873306 L359.612082,155.002776 L359.612082,155.002776 Z M410.840816,150.375184 C410.840816,160.590367 417.81551,168.250776 428.865306,168.250776 C434.703673,168.250776 438.739592,165.84098 440.933878,164.156082 C442.226939,163.145143 442.266122,161.793306 441.364898,160.445388 L439.993469,158.564571 C439.013878,157.122612 437.76,157.071673 436.310204,158.082612 C434.66449,159.242449 432.156735,160.543347 429.257143,160.543347 C422.635102,160.543347 419.539592,155.288816 419.539592,150.183184 C419.539592,145.222531 422.4,140.355918 429.257143,140.355918 C431.804082,140.355918 434.076735,141.366857 435.683265,142.279837 C437.172245,143.196735 438.386939,143.051755 439.288163,141.558857 L440.502857,139.584 C441.364898,138.185143 441.247347,136.884245 439.915102,135.920327 C437.877551,134.525388 434.194286,132.644571 428.865306,132.644571 C418.246531,132.644571 410.840816,140.355918 410.840816,150.375184 L410.840816,150.375184 Z M461.466122,164.638041 C460.839184,166.467918 461.701224,167.670857 463.621224,167.670857 L466.795102,167.670857 C468.323265,167.670857 469.302857,166.949878 469.733878,165.45698 L471.183673,160.445388 L481.92,160.445388 L483.369796,165.45698 C483.84,166.949878 484.819592,167.670857 486.347755,167.670857 L489.521633,167.670857 C491.441633,167.670857 492.342857,166.467918 491.715918,164.638041 L481.724082,135.391347 C481.253878,133.898449 480.274286,133.22449 478.746122,133.22449 L474.396735,133.22449 C472.868571,133.22449 471.88898,133.898449 471.418776,135.391347 L461.466122,164.638041 L461.466122,164.638041 Z M473.142857,153.701878 L475.141224,147.001469 C475.768163,144.834612 476.512653,141.076898 476.512653,141.076898 L476.630204,141.076898 C476.630204,141.076898 477.413878,144.834612 478.001633,147.001469 L479.960816,153.701878 L473.142857,153.701878 Z M526.001633,169.790694 C525.64898,170.852571 525.844898,171.47951 526.667755,171.526531 C527.843265,171.62449 528.666122,171.86351 528.666122,172.682449 C528.666122,173.403429 528.156735,173.838367 527.333878,173.838367 C527.020408,173.838367 526.628571,173.744327 526.158367,173.744327 C525.609796,173.744327 524.982857,174.367347 524.982857,175.813224 C524.982857,177.549061 526.785306,177.788082 528.078367,177.788082 C530.821224,177.788082 533.720816,176.730122 533.720816,173.262367 C533.720816,170.707592 532.035918,169.598694 530.115918,169.406694 L530.35102,168.203755 C535.523265,167.913796 539.206531,165.74302 541.204898,164.156082 C542.537143,163.145143 542.576327,161.793306 541.675102,160.445388 L540.303673,158.564571 C539.284898,157.122612 538.03102,157.071673 536.581224,158.082612 C534.974694,159.242449 532.466939,160.543347 529.567347,160.543347 C522.906122,160.543347 519.849796,155.288816 519.849796,150.183184 C519.849796,145.222531 522.67102,140.355918 529.567347,140.355918 C532.114286,140.355918 534.386939,141.366857 535.954286,142.279837 C537.482449,143.196735 538.657959,143.051755 539.598367,141.558857 L540.773878,139.584 C541.675102,138.185143 541.557551,136.884245 540.225306,135.920327 C538.187755,134.525388 534.465306,132.644571 529.17551,132.644571 C518.556735,132.644571 511.111837,140.355918 511.111837,150.375184 C511.111837,159.771429 516.989388,166.996898 526.550204,168.105796 L526.001633,169.790694 L526.001633,169.790694 Z M561.81551,164.638041 C561.188571,166.467918 562.050612,167.670857 563.970612,167.670857 L567.14449,167.670857 C568.672653,167.670857 569.652245,166.949878 570.083265,165.45698 L571.533061,160.445388 L582.269388,160.445388 L583.719184,165.45698 C584.189388,166.949878 585.16898,167.670857 586.697143,167.670857 L589.87102,167.670857 C591.79102,167.670857 592.692245,166.467918 592.065306,164.638041 L582.073469,135.391347 C581.603265,133.898449 580.623673,133.22449 579.09551,133.22449 L574.746122,133.22449 C573.217959,133.22449 572.238367,133.898449 571.768163,135.391347 L561.81551,164.638041 L561.81551,164.638041 Z M573.492245,153.701878 L575.490612,147.001469 C576.117551,144.834612 576.862041,141.076898 576.862041,141.076898 L576.979592,141.076898 C576.979592,141.076898 577.724082,144.834612 578.35102,147.001469 L580.310204,153.701878 L573.492245,153.701878 L573.492245,153.701878 Z M569.80898,131.006694 L570.357551,131.006694 C571.533061,131.006694 572.316735,130.575673 572.434286,129.803755 C572.59102,128.937796 573.217959,128.259918 574.197551,128.259918 C576.039184,128.259918 577.214694,131.151673 581.054694,131.151673 C584.228571,131.151673 586.422857,128.937796 586.422857,125.854041 C586.422857,124.408163 585.639184,123.781224 584.11102,123.781224 L583.523265,123.781224 C582.230204,123.781224 581.407347,124.310204 581.289796,125.082122 C581.172245,126.093061 580.623673,126.528 579.722449,126.528 C577.841633,126.528 576.666122,123.636245 572.865306,123.636245 C569.691429,123.636245 567.497143,126.093061 567.497143,128.792816 C567.497143,130.285714 568.359184,131.006694 569.80898,131.006694 L569.80898,131.006694 Z M612.088163,150.230204 C612.088163,160.347429 619.41551,168.250776 630.112653,168.250776 C640.809796,168.250776 648.137143,160.347429 648.137143,150.230204 C648.137143,140.355918 640.809796,132.644571 630.112653,132.644571 C619.41551,132.644571 612.088163,140.355918 612.088163,150.230204 L612.088163,150.230204 Z M620.826122,150.230204 C620.826122,144.595592 624.666122,140.355918 630.112653,140.355918 C635.559184,140.355918 639.399184,144.595592 639.399184,150.230204 C639.399184,156.107755 635.559184,160.543347 630.112653,160.543347 C624.666122,160.543347 620.826122,156.107755 620.826122,150.230204 Z" id="EDUCAÇÃO" fill="#18ACC4"></path>
            <g id="QUERO" transform="translate(251.296653, 22.658351)" fill="#FC9F00">
                <g id="Group" transform="translate(0.068952, 0.146183)">
                    <path d="M97.6222041,9.2587102 C97.6222041,4.06491429 100.451265,1.43020408 105.572571,1.43020408 L115.509551,1.43024327 C120.630857,1.43024327 123.459918,4.06491429 123.459918,9.25874939 L123.459918,55.7031576 C123.459918,62.9286269 128.275592,66.4669127 135.461878,66.4669127 C142.80098,66.4669127 147.616653,63.0030759 147.616653,55.8520555 L147.616653,9.25874939 C147.616653,4.06456163 150.292898,1.42985143 155.56702,1.42985143 L165.355102,1.42989061 C170.629224,1.42989061 173.305469,4.06456163 173.305469,9.25839673 L173.305469,55.7028049 C173.305469,75.3494988 158.474449,89.5770906 135.540245,89.5770906 C112.374857,89.5770906 97.5438367,75.3494988 97.5438367,55.7028049 L97.5438367,9.25839673 L97.6222041,9.2580049 L97.6222041,9.2587102 Z" id="Shape"></path>
                    <path d="M179.954939,9.2587102 C179.954939,4.06491429 182.784,1.43020408 188.058122,1.43020408 L229.110857,1.43024327 C234.232163,1.43024327 237.061224,4.06491429 237.061224,9.25874939 L237.061224,15.2808882 C237.061224,20.3242188 234.232163,23.1093943 229.110857,23.1093943 L205.792653,23.1093943 L205.792653,33.5726106 L222.457469,33.5726106 C227.73551,33.5726106 230.560653,36.3577861 230.560653,41.4015086 L230.560653,47.4240392 C230.560653,52.6158759 227.73551,55.2529371 222.457469,55.2529371 L205.792653,55.2529371 L205.792653,66.3184065 L230.560653,66.3184065 C235.838694,66.3184065 238.667755,69.1043657 238.667755,74.1473045 L238.667755,80.1698351 C238.667755,85.2127739 235.838694,87.9948147 230.560653,87.9948147 L188.058122,87.9948147 C182.784,87.9948147 179.954939,85.2127739 179.954939,80.1698351 L179.954939,9.25914122 L179.954939,9.25874939 L179.954939,9.2587102 Z" id="Shape"></path>
                    <path d="M243.02498,9.2587102 C243.02498,4.06491429 245.850122,1.43020408 251.128163,1.43020408 L275.053714,1.43024327 C283.156898,1.43024327 288.662204,1.88187429 292.56098,3.23680653 C302.497959,6.47353469 309.837061,16.4851984 309.837061,29.2818024 C309.837061,38.0891167 306.169469,48.3250678 297.607837,53.5208229 L297.607837,53.7480882 C297.607837,53.7480882 299.594449,55.9306188 301.506612,59.3160882 L312.513306,78.5866188 C315.953633,84.6091494 312.897306,88.1474351 307.008,88.1474351 L295.617306,88.1474351 C291.796898,88.1474351 288.356571,86.717231 286.217143,82.5755167 L275.053714,61.3497208 L268.937143,61.3497208 L268.937143,80.3185371 C268.937143,85.3614759 266.264816,88.1474351 260.986776,88.1474351 L251.202612,88.1474351 C245.92849,88.1474351 243.099429,85.3614759 243.099429,80.3185371 L243.099429,9.25894531 L243.02498,9.25855347 L243.02498,9.2587102 Z M274.368,39.669551 C280.480653,39.669551 283.540898,37.0352327 283.540898,30.4864653 C283.540898,28.2283102 283.156898,25.5183673 279.642122,24.0881633 C277.65551,23.2598204 275.590531,23.1093551 272.761469,23.1093551 L268.862694,23.1093551 L268.862694,39.669551 L274.368,39.669551 L274.368,39.669551 Z" id="Shape"></path>
                    <path d="M360.141061,0 C388.043755,0 406.687347,19.4209959 406.687347,44.2618776 C406.687347,69.7038367 388.043755,89.6522449 360.141061,89.6522449 C332.238367,89.6522449 313.735837,69.7782857 313.735837,44.2618776 C313.661388,19.4209959 332.16,0 360.141061,0 Z M360.141061,66.4672653 C371.911837,66.4672653 380.01502,56.906449 380.01502,44.2618776 C380.01502,32.2176 371.911837,23.1845878 360.141061,23.1845878 C348.519184,23.1845878 340.416,32.2176 340.416,44.2618776 C340.416,56.9848163 348.444735,66.4672653 360.141061,66.4672653 Z" id="Shape"></path>
                    <path d="M92.9593469,44.2618776 C92.9593469,19.4209959 74.3079184,0 46.4013061,0 C18.5001796,0 0,19.4209959 0,44.2618776 C-4.05080816e-12,69.7038367 18.5001796,89.6522449 46.4013061,89.6522449 C54.6573061,89.6522449 62.0747755,87.9203265 68.4969796,84.8365714 L69.1826939,85.5105306 C73.3126531,89.5777959 80.1149388,89.5777959 84.244898,85.5105306 L84.3193469,85.4360816 C88.2964898,81.5216327 88.4493061,75.2013061 84.7777959,71.0595918 C89.9774694,63.6068571 92.9593469,54.3477551 92.9593469,44.2618776 Z M26.6017959,44.2618776 C26.6017959,32.2176 34.7049796,23.1845878 46.3252898,23.1845878 C58.0960653,23.1845878 66.199249,32.2176 66.199249,44.2618776 C66.199249,46.8950204 65.8191673,49.4576327 65.1295347,51.7146122 C60.9251265,47.8746122 54.4284735,47.9490612 50.2985143,51.9379592 L50.2240653,52.0163265 C46.3252898,55.8524082 46.0941061,62.0277551 49.5344327,66.091102 C48.4647184,66.2439184 47.3950041,66.3928163 46.2469224,66.3928163 C34.7049796,66.4672653 26.6017959,56.9848163 26.6017959,44.2618776 Z" id="Shape"></path>
                </g>
            </g>
            <g id="icon">
                <g id="Group-2" fill="#18ACC4">
                    <path d="M142.244571,115.380245 C145.167673,141.844898 155.390694,165.668571 170.496,184.049633 C158.80751,189.163102 145.89649,192 132.323265,192 C79.6525714,192 36.9541224,149.285878 36.9541224,96.5955918 C36.9556898,79.3782857 41.515102,63.2228571 49.492898,49.2773878 C30.9319837,56.3931429 14.1813551,67.1725714 0.125387755,80.7262041 C20.5937633,33.2395102 67.8112653,0 122.785959,0 C133.44,0 143.804082,1.2482351 153.737143,3.60642612 C160.94302,5.2608 167.843265,7.7320751 174.324245,10.9180996 C164.751673,21.4381322 156.879673,34.0141322 151.233306,48.0352261 C155.641469,49.6025731 159.947755,51.3736751 164.152163,53.3367771 C155.018449,71.1340016 149.763918,91.2508996 149.501388,112.566818 C147.04849,113.436696 144.630857,114.377104 142.244571,115.380206 L142.244571,115.380245 Z" id="Combined-Shape"></path>
                </g>
                <path d="M226.830367,108.993306 C211.830857,84.8875102 190.048653,65.4445714 164.152163,53.3368163 C170.562612,40.8411429 178.885224,29.4872816 188.736,19.6635429 C212.359837,37.0281796 227.692408,65.0225633 227.692408,96.5967673 C227.692408,100.828604 227.418122,104.997747 226.885224,109.084604 C226.865633,109.053257 226.846041,109.02191 226.830367,108.994482 C226.849959,108.9984 226.873469,109.006237 226.893061,109.010155 C222.465306,143.115624 200.028735,171.570808 169.434122,184.509257 C156.789551,164.098482 149.489633,140.024033 149.489633,114.249012 C149.489633,113.688686 149.493551,113.128359 149.501388,112.568033 C163.442939,107.63089 178.446367,104.946808 194.076735,104.946808 C205.377306,104.946808 216.348735,106.349584 226.830367,108.994482 L226.830367,108.993306 Z" id="Combined-Shape" fill="#FC9F00"></path>
                <path d="M149.368163,112.617796 C118.354286,123.640163 92.618449,145.802449 76.9724082,174.296816 C92.5792653,185.440653 111.685224,192 132.323265,192 C145.48898,192 158.027755,189.331592 169.434122,184.508082 C156.789551,164.097306 149.489633,140.022857 149.489633,114.247837 C149.489633,113.820735 149.493551,113.397551 149.497469,112.974367 C149.838367,76.5257143 164.771265,43.5683265 188.736,19.6623673 L188.736,19.6635429 C179.308408,12.7339102 168.560327,7.49701224 156.938449,4.40032653 C147.009306,23.0776163 141.386449,44.3911837 141.386449,67.0197551 C141.386449,83.0341224 144.199837,98.3902041 149.368163,112.617796 Z" id="Combined-Shape" fill="#003D52"></path>
                <path d="M164.152163,53.3368163 C190.048653,65.4445714 211.830857,84.8875102 226.830367,108.993306 C216.348735,106.348408 205.377306,104.945633 194.076735,104.945633 C178.446367,104.945633 163.442939,107.629714 149.501388,112.566857 C149.763918,91.2509388 155.018449,71.1340408 164.152163,53.3368163 Z" id="Combined-Shape" fill="#FFFFFF"></path>
            </g>
        </g>
    </g>
</svg>