<?xml version="1.0" encoding="UTF-8"?>
<svg width="545px" height="175px" viewBox="0 0 545 175" version="1.1" xmlns="http://www.w3.org/2000/svg" xmlns:xlink="http://www.w3.org/1999/xlink">
    <!-- Generator: Sketch 46 (44423) - http://www.bohemiancoding.com/sketch -->
    <title>toptal</title>
    <desc>Created with Sketch.</desc>
    <defs></defs>
    <g id="Page-1" stroke="none" stroke-width="1" fill="none" fill-rule="evenodd">
        <g id="toptal" transform="translate(-3.000000, 0.000000)" fill="#3D64AC">
            <path d="M36.0892282,103.874698 L79.9046644,60.0518792 L88.9335235,69.077047 L45.1070134,112.896174 L36.0892282,103.874698 Z M122.568423,73.1263758 L49.7617114,0.315973154 L35.0335235,15.0404698 L62.3341946,42.3411409 L3.42513423,101.24651 L76.2318456,174.056913 L90.9600336,159.332416 L63.6556711,132.01698 L122.568423,73.1263758 Z" id="Fill-1"></path>
            <g id="Group-14" transform="translate(140.268456, 0.000000)">
                <path d="M32.4913423,21.4680872 L32.4913423,43.7744631 L56.7208725,43.7744631 L56.7208725,56.6570134 L32.4913423,56.6570134 L32.4913423,106.839899 C32.4913423,118.382517 35.7581208,124.923456 45.1819463,124.923456 C49.792349,124.923456 52.4906711,124.532181 54.9896644,123.768087 L55.7574497,136.654329 C52.4906711,137.806007 47.297047,138.961376 40.7597987,138.961376 C32.8752349,138.961376 26.5299329,136.263054 22.4916779,131.844597 C17.8775839,126.654664 15.9544295,118.382517 15.9544295,107.41943 L15.9544295,56.6570134 L1.52892617,56.6570134 L1.52892617,43.7744631 L15.9544295,43.7744631 L15.9544295,26.4660738 L32.4913423,21.4680872 Z" id="Fill-2"></path>
                <path d="M74.1012416,90.4993624 C74.1012416,110.886275 85.6364765,126.264128 102.173389,126.264128 C118.326409,126.264128 130.444866,111.07453 130.444866,90.1117785 C130.444866,74.3463423 122.556611,54.542651 102.560973,54.542651 C82.7535906,54.542651 74.1012416,73.0027181 74.1012416,90.4993624 M147.745872,89.5359396 C147.745872,123.957081 123.708289,138.958423 101.405604,138.958423 C76.4082886,138.958423 56.7928523,120.494664 56.7928523,91.0752013 C56.7928523,60.1201678 77.3717114,41.8483557 102.944866,41.8483557 C129.673389,41.8483557 147.745872,61.2718456 147.745872,89.5359396" id="Fill-4"></path>
                <path d="M172.898591,98.9616107 C172.898591,101.464295 173.094228,103.771342 173.670067,105.882752 C176.748591,117.613624 186.93651,125.686443 199.054966,125.686443 C216.935503,125.686443 227.315369,111.072685 227.315369,89.7297315 C227.315369,71.2733557 217.511342,55.3085906 199.630805,55.3085906 C188.088188,55.3085906 177.128792,63.3887919 174.050268,76.0757047 C173.47443,78.1944966 172.898591,80.6934899 172.898591,82.8085906 L172.898591,98.9616107 Z M156.169732,74.1562416 C156.169732,62.2334228 155.785839,52.617651 155.401946,43.7733557 L170.395906,43.7733557 L171.36302,59.7307383 L171.746913,59.7307383 C178.479799,48.3874497 189.631141,41.8502013 204.820738,41.8502013 C227.511007,41.8502013 244.431812,60.8861074 244.431812,88.958255 C244.431812,122.419664 223.856644,138.960268 201.937852,138.960268 C189.631141,138.960268 178.86,133.574698 173.282483,124.34651 L172.898591,124.34651 L172.898591,174.913289 L156.169732,174.913289 L156.169732,74.1562416 Z" id="Fill-6"></path>
                <path d="M276.737483,21.4680872 L276.737483,43.7744631 L300.959631,43.7744631 L300.959631,56.6570134 L276.737483,56.6570134 L276.737483,106.839899 C276.737483,118.382517 280.004262,124.923456 289.428087,124.923456 C294.03849,124.923456 296.72943,124.532181 299.232114,123.768087 L300.003591,136.654329 C296.72943,137.806007 291.539497,138.961376 284.998557,138.961376 C277.121376,138.961376 270.776074,136.263054 266.737819,131.844597 C262.116342,126.654664 260.20057,118.382517 260.20057,107.41943 L260.20057,56.6570134 L245.771376,56.6570134 L245.771376,43.7744631 L260.20057,43.7744631 L260.20057,26.4660738 L276.737483,21.4680872 Z" id="Fill-8"></path>
                <path d="M361.651208,89.3458389 C343.18745,88.958255 322.228389,92.2287248 322.228389,110.308591 C322.228389,121.456242 329.533423,126.457919 337.997517,126.457919 C350.304228,126.457919 358.192483,118.765302 360.879732,110.88443 C361.45557,108.961275 361.651208,107.03443 361.651208,105.498859 L361.651208,89.3458389 Z M377.996174,114.535101 C377.996174,122.615302 378.376376,130.496174 379.336107,136.841477 L364.14651,136.841477 L362.802886,125.110604 L362.227047,125.110604 C357.029732,132.419329 347.03745,138.960268 333.763624,138.960268 C314.919664,138.960268 305.307584,125.686443 305.307584,112.228054 C305.307584,89.7297315 325.306913,77.4230201 361.263624,77.6149664 L361.263624,75.6955034 C361.263624,68.1948322 359.148523,54.1569128 340.108926,54.3525503 C331.264631,54.3525503 322.228389,56.8478523 315.691141,61.2736913 L311.848523,49.9267114 C319.533758,45.1169799 330.880738,41.8502013 342.611611,41.8502013 C371.075034,41.8502013 377.996174,61.2736913 377.996174,79.7300671 L377.996174,114.535101 Z" id="Fill-10"></path>
                <polygon id="Fill-12" points="390.533221 136.839262 407.454027 136.839262 407.454027 0.313758389 390.533221 0.313758389"></polygon>
            </g>
        </g>
    </g>
</svg>