<?xml version="1.0" encoding="UTF-8"?>
<svg width="403px" height="338px" viewBox="0 0 403 338" version="1.1" xmlns="http://www.w3.org/2000/svg" xmlns:xlink="http://www.w3.org/1999/xlink">
    <!-- Generator: Sketch 46 (44423) - http://www.bohemiancoding.com/sketch -->
    <title>training-center</title>
    <desc>Created with Sketch.</desc>
    <defs></defs>
    <g id="Page-1" stroke="none" stroke-width="1" fill="none" fill-rule="evenodd">
        <g id="training-center" fill-rule="nonzero">
            <g transform="translate(109.000000, 74.000000)" id="Group">
                <g transform="translate(3.000000, 0.000000)">
                    <path d="M148.55794,45.8055556 C144.540773,42.5722222 140.369099,39.6468254 135.965665,37.1833333 L134.575107,43.9579365 C136.583691,45.0357143 138.051502,46.4984127 138.746781,47.268254 C139.133047,47.7301587 139.364807,48.0380952 139.364807,48.0380952 C139.596567,48.3460317 139.519313,48.8079365 139.2103,49.115873 L135.193133,52.9650794 C142.300429,56.7373016 148.635193,61.8952381 154.042918,68.2079365 C157.982833,72.8269841 161.304721,77.9849206 163.93133,83.4507937 L166.866953,81.218254 C167.175966,80.9873016 167.639485,80.9873016 167.948498,81.2952381 C167.948498,81.2952381 168.257511,81.5261905 168.643777,82.0650794 C169.339056,82.9119048 170.343348,84.2206349 171.038627,85.9142857 L178.995708,85.2984127 C176.987124,80.6793651 174.592275,76.2142857 171.888412,71.9031746 C166.866953,71.5952381 160.609442,68.0539683 155.665236,62.2801587 C150.95279,56.8912698 148.480687,50.7325397 148.55794,45.8055556 Z" id="Shape" fill="#D33837"></path>
                    <path d="M60.1030043,61.8952381 C57.6309013,67.5150794 52.1459227,71.518254 44.806867,73.0579365 C43.8798283,73.2119048 43.0300429,73.365873 42.1030043,73.5198413 C41.1759657,80.8333333 41.4077253,88.531746 42.8755365,96.4611111 L59.2532189,95.152381 C58.3261803,90.7642857 58.944206,87.5309524 58.944206,87.3769841 C59.0214592,87.1460317 59.0987124,86.9150794 59.3304721,86.8380952 C59.5622318,86.684127 59.7939914,86.684127 60.0257511,86.7611111 L75.3991416,91.3031746 C73.2360515,76.8301587 77.0987124,63.9738095 86.2918455,55.5825397 L77.639485,47.9611111 L77.5622318,47.884127 C77.3304721,47.5761905 77.2532189,47.1912698 77.4849785,46.8833333 C78.5665236,45.0357143 79.9570815,43.5730159 81.7339056,42.3412698 L71.9227468,30.947619 C67.6738197,32.9492063 63.7339056,35.4126984 60.2575107,38.3380952 C59.0987124,39.3388889 58.0171674,40.4166667 56.9356223,41.4944444 C61.4935622,48.0380952 62.9613734,55.5055556 60.1030043,61.8952381 Z" id="Shape" fill="#ED684E"></path>
                    <path d="M91.4678112,29.1769841 C90.1545064,28.2531746 88.9957082,27.3293651 87.9141631,26.2515873 C82.8927039,26.8674603 78.0257511,28.1761905 73.4678112,30.0238095 L83.1244635,41.2634921 C86.2918455,39.415873 89.1502146,39.1849206 89.304721,39.1849206 C89.6137339,39.1849206 89.8454936,39.2619048 90,39.4928571 C90.0772532,39.5698413 90.1545064,39.6468254 90.1545064,39.8007937 L93.7854077,50.347619 C103.828326,45.2666667 116.497854,45.1896825 128.935622,50.1166667 L127.776824,43.5730159 C127.699571,43.3420635 127.776824,43.1111111 127.93133,42.8801587 C128.085837,42.7261905 128.317597,42.5722222 128.549356,42.5722222 C130.094421,42.4952381 131.484979,42.7261905 132.95279,43.2650794 L134.343348,36.3365079 C129.012876,33.4111111 123.60515,31.1015873 118.120172,29.4079365 C113.407725,36.1825397 101.433476,36.1055556 91.4678112,29.1769841 Z" id="Shape" fill="#F5A36A"></path>
                    <path d="M172.660944,47.4992063 C165.553648,39.2619048 156.051502,35.797619 151.416309,39.7238095 C149.871245,41.0325397 149.098712,43.034127 148.944206,45.497619 L148.944206,45.497619 C148.944206,45.8825397 148.944206,46.1904762 148.944206,46.5753968 C149.098712,51.1174603 151.493562,56.8142857 155.896996,61.818254 C160.532189,67.2071429 166.248927,70.5944444 170.88412,71.1333333 C171.270386,71.2103175 171.579399,71.2103175 171.965665,71.2103175 L171.965665,71.2103175 C173.974249,71.2873016 175.751073,70.7484127 177.141631,69.5936508 C181.776824,65.6674603 179.76824,55.7365079 172.660944,47.4992063 Z" id="Shape" fill="#D33837"></path>
                    <path d="M58.944206,61.6642857 C61.6480687,55.5825397 60.2575107,48.4230159 55.9313305,42.1103175 C55.776824,41.8793651 55.6223176,41.6484127 55.4678112,41.3404762 C51.7596567,36.3365079 46.1974249,31.7944444 39.3218884,28.7920635 C23.5622318,21.8634921 6.64377682,25.3277778 1.69957082,36.4904762 C-3.24463519,47.6531746 5.56223176,62.434127 21.3218884,69.3626984 C27.8111588,72.2111111 34.6866953,73.365873 40.944206,72.8269841 L40.944206,72.8269841 C41.2532189,72.8269841 41.5622318,72.75 41.8712446,72.75 C42.72103,72.6730159 43.4935622,72.5190476 44.2660944,72.3650794 C51.3733906,70.8253968 56.5493562,67.0531746 58.944206,61.6642857 Z" id="Shape" fill="#ED684E"></path>
                    <path d="M116.961373,29.2539683 C117.038627,29.1769841 117.11588,29.1 117.193133,29.0230159 C117.270386,28.8690476 117.424893,28.7150794 117.502146,28.5611111 L117.502146,28.5611111 C121.44206,22.0944444 117.347639,11.7785714 107.922747,5.31190476 C98.3433476,-1.30873016 86.832618,-1.46269841 82.3519313,4.92698413 C78.4892704,10.4698413 81.0386266,19.0920635 87.8369099,25.6357143 L87.8369099,25.6357143 C88.1459227,25.8666667 88.3776824,26.1746032 88.6866953,26.4055556 C89.6137339,27.1753968 90.5407725,28.0222222 91.6223176,28.7150794 C101.04721,35.181746 112.32618,35.4126984 116.961373,29.2539683 Z" id="Shape" fill="#F5A36A"></path>
                </g>
                <g transform="translate(0.000000, 108.000000)" fill="#0C1624">
                    <g id="Shape">
                        <polygon points="28.8647303 8.71714286 18.7543568 8.71714286 18.7543568 42.7371429 10.4190871 42.7371429 10.4190871 8.71714286 0.463070539 8.71714286 0.463070539 1.85142857 28.7875519 1.85142857 28.7875519 8.71714286"></polygon>
                        <path d="M46.3842324,20.0571429 L43.760166,19.8257143 C41.5991701,19.8257143 40.1327801,20.7514286 39.3609959,22.68 L39.3609959,42.7371429 L31.3344398,42.7371429 L31.3344398,12.3428571 L38.8207469,12.3428571 L39.0522822,15.66 C40.2871369,13.1142857 42.0622407,11.8028571 44.2232365,11.8028571 C45.1493776,11.8028571 45.8439834,11.9571429 46.3842324,12.1885714 L46.3842324,20.0571429 Z"></path>
                        <path d="M64.0580913,42.7371429 C63.826556,42.2742857 63.5950207,41.5028571 63.3634855,40.3457143 C61.9742739,42.2742857 60.0448133,43.2771429 57.5751037,43.2771429 C55.0282158,43.2771429 52.9443983,42.4285714 51.246473,40.7314286 C49.5485477,39.0342857 48.6995851,36.8742857 48.6995851,34.1742857 C48.6995851,31.0114286 49.7029046,28.5428571 51.786722,26.7685714 C53.793361,24.9942857 56.7261411,24.1457143 60.5850622,24.0685714 L62.9775934,24.0685714 L62.9775934,21.6 C62.9775934,20.2114286 62.7460581,19.2857143 62.2829876,18.6685714 C61.819917,18.1285714 61.1253112,17.82 60.1991701,17.82 C58.1925311,17.82 57.1892116,18.9771429 57.1892116,21.2914286 L49.3170124,21.2914286 C49.3170124,18.5142857 50.3975104,16.2 52.4813278,14.3485714 C54.5651452,12.4971429 57.26639,11.5714286 60.5078838,11.5714286 C63.826556,11.5714286 66.4506224,12.42 68.2257261,14.1942857 C70.0780083,15.8914286 71.0041494,18.4371429 71.0041494,21.6 L71.0041494,35.8714286 C71.0041494,38.4942857 71.3900415,40.5771429 72.1618257,42.0428571 L72.1618257,42.5057143 L64.0580913,42.5057143 L64.0580913,42.7371429 Z M59.3502075,37.1057143 C60.1991701,37.1057143 60.9709544,36.9514286 61.5883817,36.5657143 C62.2058091,36.18 62.6688797,35.7942857 62.9775934,35.3314286 L62.9775934,29.0057143 L61.0481328,29.0057143 C59.7360996,29.0057143 58.6556017,29.4685714 57.8838174,30.3171429 C57.1120332,31.1657143 56.7261411,32.3228571 56.7261411,33.7885714 C56.7261411,35.9485714 57.5751037,37.1057143 59.3502075,37.1057143 Z"></path>
                        <path d="M76.7153527,4.47428571 C76.7153527,3.24 77.1012448,2.23714286 77.873029,1.46571429 C78.6448133,0.694285714 79.7253112,0.308571429 81.0373444,0.308571429 C82.3493776,0.308571429 83.4298755,0.694285714 84.2016598,1.46571429 C84.973444,2.23714286 85.3593361,3.24 85.3593361,4.47428571 C85.3593361,5.70857143 84.973444,6.71142857 84.2016598,7.48285714 C83.4298755,8.25428571 82.3493776,8.71714286 81.0373444,8.71714286 C79.7253112,8.71714286 78.6448133,8.33142857 77.873029,7.48285714 C77.1012448,6.71142857 76.7153527,5.70857143 76.7153527,4.47428571 Z M85.0506224,42.7371429 L77.1012448,42.7371429 L77.1012448,12.3428571 L85.0506224,12.3428571 L85.0506224,42.7371429 Z"></path>
                        <path d="M98.479668,12.3428571 L98.7112033,15.3514286 C100.486307,12.96 102.878838,11.8028571 105.73444,11.8028571 C110.982573,11.8028571 113.683817,15.4285714 113.838174,22.7571429 L113.838174,42.7371429 L105.888797,42.7371429 L105.888797,23.3742857 C105.888797,21.6771429 105.657261,20.3657143 105.117012,19.5942857 C104.576763,18.8228571 103.727801,18.4371429 102.415768,18.4371429 C100.949378,18.4371429 99.8688797,19.2085714 99.019917,20.6742857 L99.019917,42.7371429 L91.0705394,42.7371429 L91.0705394,12.3428571 L98.479668,12.3428571 Z"></path>
                        <path d="M119.549378,4.47428571 C119.549378,3.24 119.93527,2.23714286 120.707054,1.46571429 C121.478838,0.694285714 122.559336,0.308571429 123.871369,0.308571429 C125.183402,0.308571429 126.2639,0.694285714 127.035685,1.46571429 C127.807469,2.23714286 128.193361,3.24 128.193361,4.47428571 C128.193361,5.70857143 127.807469,6.71142857 127.035685,7.48285714 C126.2639,8.25428571 125.183402,8.71714286 123.871369,8.71714286 C122.559336,8.71714286 121.478838,8.33142857 120.707054,7.48285714 C119.93527,6.71142857 119.549378,5.70857143 119.549378,4.47428571 Z M127.884647,42.7371429 L119.93527,42.7371429 L119.93527,12.3428571 L127.884647,12.3428571 L127.884647,42.7371429 Z"></path>
                        <path d="M141.313693,12.3428571 L141.545228,15.3514286 C143.320332,12.96 145.712863,11.8028571 148.568465,11.8028571 C153.816598,11.8028571 156.517842,15.4285714 156.672199,22.7571429 L156.672199,42.7371429 L148.722822,42.7371429 L148.722822,23.3742857 C148.722822,21.6771429 148.491286,20.3657143 147.951037,19.5942857 C147.410788,18.8228571 146.561826,18.4371429 145.249793,18.4371429 C143.783402,18.4371429 142.702905,19.2085714 141.853942,20.6742857 L141.853942,42.7371429 L133.904564,42.7371429 L133.904564,12.3428571 L141.313693,12.3428571 Z"></path>
                        <path d="M161.457261,26.6142857 C161.457261,21.6 162.383402,17.8971429 164.158506,15.4285714 C165.93361,12.96 168.480498,11.7257143 171.721992,11.7257143 C174.500415,11.7257143 176.584232,12.8057143 178.127801,14.9657143 L178.436515,12.2657143 L185.614108,12.2657143 L185.614108,42.66 C185.614108,46.5171429 184.53361,49.5257143 182.372614,51.5314286 C180.211618,53.6142857 177.047303,54.6171429 173.034025,54.6171429 C171.3361,54.6171429 169.638174,54.3085714 167.785892,53.6142857 C165.93361,52.92 164.544398,52.0714286 163.695436,51.0685714 L166.39668,45.5914286 C167.168465,46.3628571 168.094606,47.0571429 169.329461,47.52 C170.564315,47.9828571 171.644813,48.2914286 172.725311,48.2914286 C174.500415,48.2914286 175.812448,47.8285714 176.584232,46.98 C177.356017,46.1314286 177.741909,44.7428571 177.741909,42.8914286 L177.741909,40.2685714 C176.19834,42.2742857 174.26888,43.2771429 171.79917,43.2771429 C168.557676,43.2771429 166.087967,42.0428571 164.312863,39.4971429 C162.537759,36.9514286 161.611618,33.4028571 161.611618,28.8514286 L161.611618,26.6142857 L161.457261,26.6142857 Z M169.406639,28.62 C169.406639,31.3971429 169.792531,33.48 170.487137,34.7914286 C171.181743,36.1028571 172.416598,36.72 173.960166,36.72 C175.580913,36.72 176.815768,36.1028571 177.587552,34.9457143 L177.587552,20.4428571 C176.738589,19.1314286 175.580913,18.5142857 174.037344,18.5142857 C172.493776,18.5142857 171.258921,19.1314286 170.564315,20.4428571 C169.792531,21.7542857 169.406639,23.8371429 169.406639,26.6914286 L169.406639,28.62 L169.406639,28.62 Z"></path>
                    </g>
                    <g transform="translate(42.448133, 47.057143)" id="Shape">
                        <path d="M22.7676349,22.2942857 C22.613278,25.9971429 21.5327801,28.7742857 19.6804979,30.7028571 C17.7510373,32.6314286 15.0497925,33.5571429 11.5767635,33.5571429 C7.94937759,33.5571429 5.09377593,32.3228571 3.16431535,29.9314286 C1.23485477,27.54 0.23153527,24.0685714 0.23153527,19.6714286 L0.23153527,14.1942857 C0.23153527,9.72 1.23485477,6.32571429 3.24149378,3.93428571 C5.24813278,1.54285714 8.02655602,0.308571429 11.6539419,0.308571429 C15.2041494,0.308571429 17.8282158,1.31142857 19.6804979,3.24 C21.5327801,5.24571429 22.5360996,8.02285714 22.7676349,11.7257143 L16.2074689,11.7257143 C16.1302905,9.41142857 15.8215768,7.86857143 15.126971,7.02 C14.5095436,6.17142857 13.2746888,5.70857143 11.5767635,5.70857143 C9.80165975,5.70857143 8.56680498,6.32571429 7.87219917,7.56 C7.17759336,8.79428571 6.79170124,10.8 6.71452282,13.5771429 L6.71452282,19.6714286 C6.71452282,22.9114286 7.10041494,25.0714286 7.79502075,26.3057143 C8.48962656,27.54 9.72448133,28.08 11.4995851,28.08 C13.1975104,28.08 14.4323651,27.6942857 15.0497925,26.8457143 C15.6672199,25.9971429 16.053112,24.5314286 16.1302905,22.2942857 L22.7676349,22.2942857 L22.7676349,22.2942857 Z"></path>
                        <path d="M36.1966805,33.5571429 C32.9551867,33.5571429 30.4854772,32.6314286 28.633195,30.7028571 C26.8580913,28.7742857 25.9319502,25.9971429 25.9319502,22.4485714 L25.9319502,20.52 C25.9319502,16.74 26.7809129,13.8085714 28.4016598,11.7257143 C30.0224066,9.64285714 32.4149378,8.64 35.5020747,8.64 C38.5120332,8.64 40.8273859,9.64285714 42.2937759,11.5714286 C43.8373444,13.5 44.6091286,16.3542857 44.6091286,20.1342857 L44.6091286,23.22 L32.1062241,23.22 C32.1834025,24.9942857 32.5692946,26.3057143 33.2639004,27.1542857 C33.9585062,28.0028571 35.0390041,28.3885714 36.5053942,28.3885714 C38.5892116,28.3885714 40.3643154,27.6942857 41.753527,26.2285714 L44.2232365,30.0085714 C43.4514523,31.0885714 42.3709544,31.9371429 40.9045643,32.6314286 C39.5153527,33.1714286 37.8946058,33.5571429 36.1966805,33.5571429 Z M32.2605809,18.7457143 L38.5120332,18.7457143 L38.5120332,18.1285714 C38.5120332,16.6628571 38.2804979,15.5828571 37.8174274,14.8114286 C37.3543568,14.04 36.5825726,13.6542857 35.5020747,13.6542857 C34.4215768,13.6542857 33.5726141,14.04 33.1095436,14.8114286 C32.646473,15.7371429 32.3377593,17.0485714 32.2605809,18.7457143 Z"></path>
                        <path d="M54.0248963,9.02571429 L54.1792531,11.4171429 C55.5684647,9.56571429 57.4207469,8.56285714 59.7360996,8.56285714 C63.9037344,8.56285714 65.9875519,11.4942857 66.1419087,17.28 L66.1419087,33.0942857 L59.813278,33.0942857 L59.813278,17.7428571 C59.813278,16.3542857 59.5817427,15.4285714 59.1958506,14.8114286 C58.8099585,14.1942857 58.0381743,13.8857143 57.0348548,13.8857143 C55.8771784,13.8857143 55.0282158,14.5028571 54.33361,15.66 L54.33361,33.0942857 L48.0049793,33.0942857 L48.0049793,9.10285714 L54.0248963,9.10285714 L54.0248963,9.02571429 Z"></path>
                        <path d="M77.9502075,3.16285714 L77.9502075,9.10285714 L81.1917012,9.10285714 L81.1917012,13.8085714 L77.9502075,13.8085714 L77.9502075,25.7657143 C77.9502075,26.6914286 78.1045643,27.3857143 78.3360996,27.6942857 C78.5676349,28.08 79.1078838,28.2342857 79.8024896,28.2342857 C80.419917,28.2342857 80.8829876,28.1571429 81.2688797,28.08 L81.1917012,32.94 C80.1112033,33.3257143 78.953527,33.5571429 77.7186722,33.5571429 C73.6282158,33.5571429 71.6215768,31.2428571 71.5443983,26.6142857 L71.5443983,13.8085714 L68.7659751,13.8085714 L68.7659751,9.10285714 L71.5443983,9.10285714 L71.5443983,3.16285714 L77.9502075,3.16285714 L77.9502075,3.16285714 Z"></path>
                        <path d="M94.3120332,33.5571429 C91.0705394,33.5571429 88.6008299,32.6314286 86.7485477,30.7028571 C84.973444,28.7742857 84.0473029,25.9971429 84.0473029,22.4485714 L84.0473029,20.52 C84.0473029,16.74 84.8962656,13.8085714 86.5170124,11.7257143 C88.1377593,9.64285714 90.5302905,8.64 93.6174274,8.64 C96.6273859,8.64 98.9427386,9.64285714 100.409129,11.5714286 C101.952697,13.5 102.724481,16.3542857 102.724481,20.1342857 L102.724481,23.22 L90.2987552,23.22 C90.3759336,24.9942857 90.7618257,26.3057143 91.4564315,27.1542857 C92.1510373,28.0028571 93.2315353,28.3885714 94.6979253,28.3885714 C96.7817427,28.3885714 98.5568465,27.6942857 99.9460581,26.2285714 L102.415768,30.0085714 C101.643983,31.0885714 100.563485,31.9371429 99.0970954,32.6314286 C97.6307054,33.1714286 96.0099585,33.5571429 94.3120332,33.5571429 Z M90.3759336,18.7457143 L96.6273859,18.7457143 L96.6273859,18.1285714 C96.6273859,16.6628571 96.3958506,15.5828571 95.9327801,14.8114286 C95.4697095,14.04 94.6979253,13.6542857 93.6174274,13.6542857 C92.5369295,13.6542857 91.6879668,14.04 91.2248963,14.8114286 C90.7618257,15.7371429 90.453112,17.0485714 90.3759336,18.7457143 Z"></path>
                        <path d="M118.237344,15.12 L116.153527,14.9657143 C114.455602,14.9657143 113.297925,15.7371429 112.680498,17.2028571 L112.680498,33.0942857 L106.351867,33.0942857 L106.351867,9.10285714 L112.294606,9.10285714 L112.448963,11.7257143 C113.452282,9.72 114.841494,8.71714286 116.539419,8.71714286 C117.234025,8.71714286 117.851452,8.79428571 118.237344,9.02571429 L118.237344,15.12 Z"></path>
                    </g>
                </g>
            </g>
        </g>
    </g>
</svg>