<?xml version="1.0" encoding="UTF-8"?>
<svg width="384px" height="99px" viewBox="0 0 384 99" version="1.1" xmlns="http://www.w3.org/2000/svg" xmlns:xlink="http://www.w3.org/1999/xlink">
    <!-- Generator: Sketch 45.2 (43514) - http://www.bohemiancoding.com/sketch -->
    <title>uilab</title>
    <desc>Created with Sketch.</desc>
    <defs></defs>
    <g id="Page-1" stroke="none" stroke-width="1" fill="none" fill-rule="evenodd">
        <g id="uilab" transform="translate(0.000000, -1.000000)" fill="#FF0095">
            <g id="Logo" transform="translate(0.395903, 1.011468)">
                <path d="M69.329519,76.5703303 C67.6552323,79.4706393 63.637455,81.0670226 58.0194631,81.0670226 C56.7998263,81.0670226 55.5035631,80.9929504 54.1638783,80.8422518 L52.7373503,80.6826135 L53.1358075,79.3020613 C54.0629869,76.100355 54.7756124,72.6291793 55.2558044,68.9868713 L55.3209369,68.4887998 L55.7206712,68.1822942 C58.6618477,65.9333095 61.3195065,63.5847105 63.6170213,61.206738 L64.6118873,60.1735588 L65.4637174,61.3280631 C69.975735,67.4543434 71.3843835,73.0110342 69.329519,76.5703303 L69.329519,76.5703303 Z M49.5215959,70.6534954 C49.7476437,70.9906516 50.1014023,71.2218079 50.5164619,71.3022656 L51.6977855,71.5385303 L51.4704605,72.7185768 C51.0502925,74.8998748 50.5330643,77.0147634 49.9328242,78.9968328 L49.6007765,80.0925902 L48.4909709,79.825675 C46.5127328,79.3518684 44.4655309,78.7426886 42.4042809,78.0211233 L41.2408368,77.609895 L41.6712217,76.4541136 C41.8231974,76.0479937 41.8040408,75.608669 41.6163061,75.2217057 C41.3506679,74.6802125 40.8091747,74.3417793 40.2025491,74.3417793 C39.9650073,74.3417793 39.7351281,74.3941406 39.5167429,74.4988634 C38.7555873,74.8705014 38.0059258,75.2165973 37.2613726,75.5524763 L36.7633011,75.7785242 L36.2639524,75.5524763 C35.5193992,75.2165973 34.7697377,74.8679472 34.0085822,74.4988634 C33.7876427,74.3915864 33.5577635,74.3353937 33.3189446,74.3353937 C32.7148732,74.3353937 32.17338,74.6751041 31.9090189,75.2191515 C31.7200072,75.6061148 31.7008506,76.0454395 31.8528262,76.4541136 L32.2857654,77.6111721 L31.1197671,78.0224004 C29.0597941,78.7439657 27.0125923,79.3518684 25.0369084,79.825675 L23.9271028,80.0925902 L23.5963321,78.9981099 C23.0012005,77.0351971 22.4852494,74.9407423 22.0638042,72.7658297 L21.8313708,71.5602411 L23.0382366,71.343133 C23.4686215,71.2665066 23.833874,71.0340732 24.0650303,70.6905315 C24.5503308,69.9753518 24.3600419,68.994534 23.642308,68.5105106 C19.0332303,65.3994789 15.0371638,62.0662307 11.7626625,58.6027177 L10.9759649,57.76749 L11.7626625,56.9360936 C15.0371638,53.4738576 19.0319532,50.1431636 23.6346453,47.032132 C23.9832954,46.7971444 24.2182831,46.4421088 24.2961866,46.0283262 C24.3766443,45.618375 24.2923552,45.2007612 24.0573676,44.8546653 C23.8198258,44.5021839 23.4571275,44.2659191 23.0369595,44.1892927 L21.8339251,43.9683533 L22.0663585,42.766596 C22.4839723,40.598069 22.9973692,38.50106 23.5886695,36.5407014 L23.918163,35.4474981 L25.0292457,35.7118592 C26.9908815,36.1818344 29.0380833,36.7884601 31.1159357,37.5151337 L32.2819341,37.9250849 L31.8489949,39.0821435 C31.6957421,39.4933718 31.7136216,39.9339736 31.9026334,40.3234911 C32.1682716,40.8649843 32.7084877,41.2046946 33.3151133,41.2046946 C33.5526551,41.2046946 33.7838114,41.1510562 34.0009195,41.0450563 C34.7671835,40.6734183 35.5181221,40.3234911 36.2639524,39.986335 L36.7633011,39.7602871 L37.2626497,39.986335 C38.0033716,40.3234911 38.7479247,40.6670328 39.5052489,41.0322853 C39.7236341,41.1395622 39.9547904,41.1932007 40.1936094,41.1932007 C40.7989579,41.1932007 41.339174,40.8560445 41.6060892,40.3094429 C41.7925468,39.9263109 41.8129805,39.4895405 41.6622819,39.0821435 L41.2382825,37.9289162 L42.3966182,37.5202421 C44.4655309,36.7935685 46.5178412,36.1843886 48.4960793,35.7118592 L49.607162,35.4474981 L49.9366555,36.5394243 C50.5317872,38.5099997 51.0439069,40.6057317 51.4602437,42.766596 L51.6914,43.9696304 L50.4870885,44.1892927 C50.0669204,44.2659191 49.7067763,44.4996296 49.4692345,44.8495568 C48.9852111,45.5685679 49.1742229,46.5455544 49.8906797,47.0334091 C54.4946489,50.1418865 58.4894383,53.4725805 61.7626625,56.9360936 L62.5493602,57.76749 L61.7626625,58.6027177 C58.4996552,62.0547368 54.5227453,65.3739368 49.9417639,68.4734745 C49.22403,68.958775 49.0362954,69.9383158 49.5215959,70.6534954 L49.5215959,70.6534954 Z M47.9673572,84.3874997 C44.8716508,91.4703328 40.8934638,95.3731705 36.7645782,95.3731705 C32.6395239,95.3731705 28.662614,91.4703328 25.5630763,84.3849455 L24.9896554,83.0759112 L26.3804245,82.7247069 C29.5795765,81.9239611 32.9141018,80.8013844 36.2971572,79.3940129 L36.7633011,79.2011698 L37.2281679,79.3940129 C40.620163,80.8039386 43.9585196,81.9265153 47.151286,82.725984 L48.5395009,83.0771883 L47.9673572,84.3874997 Z M19.3640009,80.8409747 C18.0243161,80.9916733 16.7254987,81.0670226 15.5058619,81.0670226 C9.88787004,81.0670226 5.87136982,79.4706393 4.19708309,76.5703303 C2.14221859,73.0123113 3.55214426,67.4543434 8.06160762,61.3293402 L8.91216061,60.1748359 L9.90958085,61.2092922 C12.212204,63.591096 14.8685857,65.9371408 17.8046538,68.1810171 L18.2056652,68.4862456 L18.2707977,68.9855942 C18.7497127,72.6202396 19.4636152,76.0901382 20.3920717,79.299507 L20.7918061,80.6787822 L19.3640009,80.8409747 Z M4.19708309,38.9672039 C5.87136982,36.0681719 9.88787004,34.4717887 15.507139,34.4717887 C16.7229445,34.4717887 18.0153764,34.5484151 19.3486756,34.6965595 L20.7752037,34.8561978 L20.3767464,36.2354729 C19.4636152,39.4090828 18.7548211,42.8802585 18.2733519,46.553217 L18.2082195,47.0500115 L17.8084851,47.3565171 C14.8711399,49.6016705 12.2134811,51.9489924 9.90958085,54.3320733 L8.91216061,55.3626983 L8.06160762,54.2081939 C3.55214426,48.0819136 2.14221859,42.5252229 4.19708309,38.9672039 L4.19708309,38.9672039 Z M25.5439197,31.1474803 C28.6243008,24.0659242 32.6088733,20.1643636 36.7645782,20.1643636 C40.9151746,20.1643636 44.89847,24.0659242 47.9801282,31.1500345 L48.5497178,32.4590687 L47.1640571,32.8064417 C43.9661822,33.6059104 40.6227172,34.7297642 37.2281679,36.1447983 L36.7633011,36.3389185 L36.2971572,36.1447983 C32.9064392,34.7323185 29.5642512,33.6084647 26.3599908,32.8051646 L24.9743302,32.4565145 L25.5439197,31.1474803 Z M54.1766494,34.6965595 C55.5112258,34.5484151 56.8036576,34.4717887 58.0207402,34.4717887 C63.6387321,34.4717887 67.6552323,36.0681719 69.329519,38.9672039 C71.3843835,42.5239457 69.9744579,48.0780823 65.4637174,54.2069168 L64.6131644,55.3626983 L63.6170213,54.3307961 C61.313121,51.9477153 58.6567393,49.6016705 55.7193941,47.3565171 L55.3183827,47.0500115 L55.2532502,46.553217 C54.7717811,42.8853669 54.0629869,39.411637 53.1485786,36.2354729 L52.7501213,34.8561978 L54.1766494,34.6965595 Z M67.2657148,58.5120431 L66.6859084,57.7662129 L67.2657148,57.0229368 C73.1480677,49.4714056 74.8925953,42.3183316 72.048479,37.398917 C69.1558325,32.3837194 62.8290465,31.3339378 58.0309571,31.3339378 C56.3324053,31.3339378 54.5150826,31.4667569 52.6326275,31.7298409 L51.6977855,31.8613829 L51.3414728,30.9878419 C47.7310924,22.1132283 42.418329,17.0252356 36.7645782,17.0252356 C31.1044418,17.0252356 25.7904013,22.1132283 22.1825752,30.9865648 L21.8275395,31.8588286 L20.8939746,31.7285638 C19.0115195,31.4654798 17.1954739,31.3326607 15.4994764,31.3326607 C10.7001098,31.3326607 4.37204669,32.3837194 1.47812316,37.398917 C-1.3647161,42.3221629 0.377257286,49.4739598 6.26216444,57.0229368 L6.84197083,57.76749 L6.26216444,58.5133202 C0.378534392,66.0610202 -1.36343899,73.2166484 1.47812316,78.1398943 C4.37587801,83.1589231 10.702664,84.211259 15.5020306,84.211259 C17.1903655,84.211259 19.0127966,84.0771628 20.9182396,83.8102475 L21.8518046,83.6774284 L22.2081173,84.5496922 C25.8376542,93.4230288 31.1440321,98.5148527 36.7645782,98.5148527 C42.3902327,98.5148527 47.6953335,93.4230288 51.3235933,84.5496922 L51.679906,83.6774284 L52.6134709,83.8102475 C54.5163597,84.0771628 56.3387908,84.211259 58.0245715,84.211259 C62.8239381,84.211259 69.1532783,83.1589231 72.0497561,78.1398943 C74.8925953,73.2179255 73.1493448,66.0610202 67.2657148,58.5120431 L67.2657148,58.5120431 Z" id="Fill-2"></path>
                <path d="M36.7633011,63.0608414 C33.4032336,63.0608414 30.6689484,60.3265562 30.6689484,56.9677658 C30.6689484,53.6076984 33.4032336,50.8734132 36.7633011,50.8734132 C40.1233685,50.8734132 42.8563766,53.6076984 42.8563766,56.9677658 C42.8563766,60.3265562 40.1233685,63.0608414 36.7633011,63.0608414 M36.7633011,47.5452734 C31.5667544,47.5452734 27.3395316,51.769942 27.3395316,56.9677658 C27.3395316,62.1655896 31.5667544,66.3902582 36.7633011,66.3902582 C41.9598478,66.3902582 46.1857935,62.1655896 46.1857935,56.9677658 C46.1857935,51.769942 41.9598478,47.5452734 36.7633011,47.5452734" id="Fill-4"></path>
                <path d="M146.375061,87.2211438 C143.209113,91.3117162 137.798013,94.2158566 130.805854,94.2158566 C116.554622,94.2158566 110.354269,84.4498225 110.354269,71.2560343 L110.354269,36.6873132 C110.354269,31.2762126 114.048939,27.5828204 119.457485,27.5828204 C124.868586,27.5828204 128.826339,31.2762126 128.826339,36.6873132 L128.826339,69.9380603 C128.826339,74.8178846 131.464841,78.1166509 136.478762,78.1166509 C141.888585,78.1166509 145.318894,74.1576205 145.318894,68.6188092 L145.318894,36.6873132 C145.318894,31.2762126 149.013563,27.5828204 154.423386,27.5828204 C159.83321,27.5828204 163.790963,31.2762126 163.790963,36.6873132 L163.790963,84.4498225 C163.790963,89.859646 160.493474,93.5543153 155.08365,93.5543153 C151.388981,93.5543153 148.61766,91.7088963 146.770964,88.0129499 L146.375061,87.2211438 Z" id="Fill-6"></path>
                <path d="M200.767413,36.6869301 L200.767413,84.4507165 C200.767413,89.86054 196.941202,93.5552093 191.531379,93.5552093 C186.121555,93.5552093 182.295344,89.86054 182.295344,84.4507165 L182.295344,36.6869301 C182.295344,31.2771066 186.121555,27.5837143 191.531379,27.5837143 C196.941202,27.5837143 200.767413,31.2771066 200.767413,36.6869301 M191.531379,0.929222753 C197.204286,0.929222753 201.690761,5.4169753 201.690761,11.0898828 C201.690761,16.7627902 197.204286,21.2492657 191.531379,21.2492657 C185.857194,21.2492657 181.370719,16.7627902 181.370719,11.0898828 C181.370719,5.4169753 185.857194,0.929222753 191.531379,0.929222753" id="Fill-8"></path>
                <path d="M228.507062,4.6669306 C224.033358,4.6669306 221.029603,7.61960103 221.029603,12.0128477 L221.029603,84.4516104 C221.029603,88.8461342 224.033358,91.7975275 228.507062,91.7975275 C232.97949,91.7975275 235.984521,88.8461342 235.984521,84.4516104 L235.984521,12.0128477 C235.984521,7.61960103 232.97949,4.6669306 228.507062,4.6669306 M228.507062,95.313402 C222.136855,95.313402 217.513729,90.7451917 217.513729,84.4516104 L217.513729,12.0128477 C217.513729,5.71926643 222.136855,1.15105617 228.507062,1.15105617 C234.87727,1.15105617 239.500396,5.71926643 239.500396,12.0128477 L239.500396,84.4516104 C239.500396,90.7451917 234.87727,95.313402 228.507062,95.313402" id="Fill-10"></path>
                <path d="M282.106843,44.7785497 C276.191285,44.7785497 275.552732,50.1934816 275.552732,52.5203699 L275.552732,68.6182984 C275.552732,70.9451866 276.191285,76.3588414 282.106843,76.3588414 C286.409415,76.3588414 289.189676,73.3206048 289.189676,68.6182984 L289.189676,52.5203699 C289.189676,47.8167863 286.409415,44.7785497 282.106843,44.7785497 M282.106843,79.8734387 C275.990779,79.8734387 272.036857,75.4559271 272.036857,68.6182984 L272.036857,52.5203699 C272.036857,45.6814641 275.990779,41.2626753 282.106843,41.2626753 C288.348063,41.2626753 292.70555,45.8921867 292.70555,52.5203699 L292.70555,68.6182984 C292.70555,75.2464816 288.348063,79.8734387 282.106843,79.8734387 M277.092922,28.6806212 C264.374218,28.6806212 257.080662,37.3700544 257.080662,52.5203699 L257.080662,68.6182984 C257.080662,83.7686138 264.374218,92.4567699 277.092922,92.4567699 C282.894818,92.4567699 287.613726,90.3201706 290.745192,86.2781283 L292.627647,83.8452402 L294.032464,87.3623918 C295.246992,90.2984598 297.497254,91.7977829 300.710454,91.7977829 C304.998978,91.7977829 307.663023,88.98304 307.663023,84.4505887 L307.663023,36.6868024 C307.663023,32.1556282 304.998978,29.3408853 300.710454,29.3408853 C297.497254,29.3408853 295.246992,30.8402084 294.022247,33.7967102 L292.648081,37.2385124 L290.761794,34.8822508 C288.498761,32.0534597 284.290695,28.6806212 277.092922,28.6806212 M277.092922,95.9726444 C262.58116,95.9726444 253.564788,85.4901535 253.564788,68.6182984 L253.564788,52.5203699 C253.564788,35.6472376 262.58116,25.1647467 277.092922,25.1647467 C282.811806,25.1647467 287.893413,27.108503 291.672371,30.6882327 C293.617404,27.5312253 296.761641,25.8250109 300.710454,25.8250109 C306.972108,25.8250109 311.178897,30.1901612 311.178897,36.6868024 L311.178897,84.4505887 C311.178897,90.9485071 306.972108,95.3136574 300.710454,95.3136574 C296.769303,95.3136574 293.627621,93.6138285 291.690251,90.4823632 C288.764399,93.3137085 284.141274,95.9726444 277.092922,95.9726444" id="Fill-12"></path>
                <path d="M354.312023,44.7785497 C350.010728,44.7785497 347.230467,47.8167863 347.230467,52.5203699 L347.230467,68.6182984 C347.230467,73.3206048 350.010728,76.3588414 354.312023,76.3588414 C360.228858,76.3588414 360.867411,70.9451866 360.867411,68.6182984 L360.867411,52.5203699 C360.867411,50.1934816 360.228858,44.7785497 354.312023,44.7785497 L354.312023,44.7785497 Z M354.312023,79.8734387 C348.07208,79.8734387 343.714592,75.2464816 343.714592,68.6182984 L343.714592,52.5203699 C343.714592,45.8921867 348.07208,41.2626753 354.312023,41.2626753 C360.43064,41.2626753 364.383285,45.6814641 364.383285,52.5203699 L364.383285,68.6182984 C364.383285,75.4559271 360.43064,79.8734387 354.312023,79.8734387 L354.312023,79.8734387 Z M343.792496,83.8452402 L345.673674,86.2781283 C348.805139,90.3201706 353.525325,92.4567699 359.325943,92.4567699 C372.044648,92.4567699 379.340758,83.7686138 379.340758,68.6182984 L379.340758,52.5203699 C379.340758,37.3700544 372.044648,28.6806212 359.325943,28.6806212 C354.232842,28.6806212 349.880463,30.4111006 346.740058,33.6830477 L343.714592,36.8349467 L343.714592,12.6733672 C343.714592,8.27884345 340.70956,5.32745013 336.237133,5.32745013 C331.693188,5.32745013 328.758397,8.2098797 328.758397,12.6733672 L328.758397,84.4505887 C328.758397,88.98304 331.421164,91.7977829 335.708411,91.7977829 C338.922888,91.7977829 341.17315,90.2984598 342.396618,87.3419581 L343.792496,83.8452402 Z M359.325943,95.9726444 C352.277592,95.9726444 347.653189,93.3124314 344.728615,90.4798089 C342.783582,93.6189369 339.647008,95.3136574 335.708411,95.3136574 C329.448035,95.3136574 325.241245,90.9485071 325.241245,84.4505887 L325.241245,12.6733672 C325.241245,6.27761743 329.76348,1.81029859 336.237133,1.81029859 C342.607341,1.81029859 347.230467,6.37850885 347.230467,12.6733672 L347.230467,28.6818983 C350.614799,26.3703354 354.728359,25.1647467 359.325943,25.1647467 C373.84026,25.1647467 382.856632,35.6472376 382.856632,52.5203699 L382.856632,68.6182984 C382.856632,85.4901535 373.84026,95.9726444 359.325943,95.9726444 L359.325943,95.9726444 Z" id="Fill-14"></path>
            </g>
        </g>
    </g>
</svg>