<?xml version="1.0" encoding="UTF-8"?>
<svg width="403px" height="338px" viewBox="0 0 403 338" version="1.1" xmlns="http://www.w3.org/2000/svg" xmlns:xlink="http://www.w3.org/1999/xlink">
    <!-- Generator: Sketch 46 (44423) - http://www.bohemiancoding.com/sketch -->
    <title>zeplin</title>
    <desc>Created with Sketch.</desc>
    <defs></defs>
    <g id="Page-1" stroke="none" stroke-width="1" fill="none" fill-rule="evenodd">
        <g id="zeplin" fill-rule="nonzero">
            <g transform="translate(89.000000, 79.000000)" id="Shape">
                <path d="M34.4799516,125 L22.6359304,129.265339 L22,164 L63,149.234909 C48.9374805,144.578207 38.6681695,136.385262 34.4799516,125" fill="#FDBD39"></path>
                <path d="M41,88 L0,102.798195 L22.9993194,129 L34.8160113,124.734994 C30.6496818,113.383826 33.2190246,100.552443 41,88" fill="#F69833"></path>
                <path d="M110.140293,37.1944624 C57.9438063,56.2454401 24.2930315,95.5573378 34.979488,125 L224,56.0100583 C213.313543,26.5672633 162.336912,18.1433518 110.140293,37.1944624" fill="#FECF33"></path>
                <path d="M148.848736,142.766347 C201.040388,123.723739 234.751184,84.6036811 224.00252,55 L35,123.959149 C45.7485319,153.562963 96.657218,161.808821 148.848736,142.766347" fill="#EE6723"></path>
                <path d="M224.072639,55 L35,123.816637 C38.7022992,133.988619 52.8206775,139 72.630363,139 C91.9432278,139 116.665439,134.240417 142.439355,124.859308 C194.650502,105.856187 231.384357,75.0888429 224.072639,55" fill="#F69833"></path>
                <path d="M186.369643,40 C167.056647,40 142.334574,44.7597086 116.560395,54.1406701 C64.3495218,73.143894 27.6155399,103.911056 34.92739,124 L224,55.1834715 C220.297701,45.0113734 206.179325,40 186.369643,40" fill="#FDBD39"></path>
                <path d="M175.621748,166 L175.62042,166 C170.06167,166 161.86077,160.970734 151.245304,151.052091 C138.686632,139.317403 124.300668,122.129905 110.736866,102.655963 C97.1735958,83.1828223 86.0284777,63.7142202 79.3546579,47.8361968 C72.0833377,30.5331014 71.0466073,19.8940475 76.2731474,16.2143015 C77.419154,15.4083268 78.800576,15 80.3787747,15 C84.6301928,15 92.9139453,18.1703721 108.23201,33.2748572 L108.567009,33.6049625 L108.521732,34.0744248 C108.41697,35.1595139 108.32044,36.2543475 108.2344,37.3288915 L108.063648,39.4626291 L106.560867,37.9461204 C90.0561649,21.2914887 82.7908197,19.4934628 80.4329487,19.4934628 C79.7605607,19.4934628 79.2250667,19.6304171 78.841206,19.9007217 C76.5741543,21.4962527 76.4282319,29.3109243 83.4778132,46.0843564 C90.032531,61.6793941 101.015527,80.8535315 114.403664,100.074521 C127.792331,119.29738 141.958148,136.230858 154.292292,147.755711 C167.592796,160.183046 173.586394,161.524958 175.546064,161.524958 C176.222701,161.524958 176.772534,161.379328 177.180296,161.09207 C179.571893,159.408974 179.574681,151.037409 171.713163,132.9836 L171.352272,132.1548 L172.142301,131.721645 C172.932462,131.288357 173.6966,130.861742 174.413202,130.453683 L175.359644,129.914943 L175.795952,130.916204 C181.370237,143.708751 186.580844,159.967737 179.748354,164.778491 C178.596373,165.589004 177.208179,166 175.621748,166 L175.621748,166 Z M175.62042,164.02671 L175.621831,164.02671 L175.62089,165.013288 L175.62042,164.02671 Z" fill="#EE6723"></path>
                <path d="M150,143.137874 L149.92117,144.122626 C148.611644,160.495087 145.163691,180.178616 136.173652,180.975268 C135.992791,180.991577 135.805208,181 135.617624,181 C129.510414,181 123.732497,172.158494 118.444695,154.720668 C113.441631,138.223476 109.559323,116.073388 107.512908,92.3508534 C105.466362,68.6332659 105.497077,46.1361223 107.599252,29.0040424 C109.890593,10.3353438 114.252868,0.585957788 120.564139,0.0263366928 C120.750668,0.00895713991 120.944052,0 121.135063,0 C125.56549,0 132.242569,5.06894271 139.0781,28.6791787 L134.61485,29.5496262 C132.332605,21.659717 129.845375,15.2426569 127.376206,10.8332007 C125.092115,6.75462423 122.871299,4.50851951 121.122408,4.50851951 C121.064934,4.50851951 121.007063,4.51092591 120.949984,4.51587239 C118.214401,4.75865117 114.230458,11.4635432 112.009378,29.5607224 C109.944641,46.385452 109.919726,68.5454323 111.939249,91.9586109 C113.959958,115.375266 117.778859,137.194339 122.692152,153.395946 C124.892535,160.652171 127.306076,166.632336 129.671765,170.690324 C131.853297,174.432406 133.964437,176.493352 135.616306,176.493352 C135.673122,176.493352 135.729673,176.490678 135.786093,176.485866 C138.403564,176.254049 143.336234,169.276833 145.412309,144.728637 L150,143.137874" fill="#EE6723"></path>
            </g>
        </g>
    </g>
</svg>